<svg fill="none" xmlns="http://www.w3.org/2000/svg" viewBox="0 0 1660 810"><g clip-path="url(#a)"><path fill="#fff" d="M21.6 396h239.9v395.5H21.6z"/><path fill="#fff" d="M20 695h1622v114.4H20z"/><path fill-rule="evenodd" clip-rule="evenodd" d="M469.8 41.1c.3.9.1 92.5 0 138.2 2.5.6 8.4 1.5 12.2 0 3.8-1.5 7.9-4 9.5-5V41l-8.5-2.6.8-6.9c11.9 0 21.4-2.7 21.4-6 0-3.4-10-6-22.2-6s-22.1 2.6-22.1 6c0 2.9 7.5 5.3 17.4 5.9l.5 7-9 2.6Z" fill="#fff"/><path d="M1113.7 499.9c.1-8 .2-24.3 0-25.6l526-98.3-4.5 39.8-521.5 84.1ZM1117.7 602l-2.1-100.5 523.6-85.7v203L1117.7 602Z" fill="#fff"/><path d="M1121 471.4v-9l521-96v9.8l-521 95.2Z" fill="#fff"/><path d="M1120.6 720.6V603.8L1633 619v172.4l-485.6-56.4v-8l-27-6.5Z" fill="#E2E7E9"/><path d="M257.3 436.4 261 729l735.6-10V462h27.7v-14.3L664.4 35.9 237 419.5v16.9h20.3Z" fill="#fff"/><path fill-rule="evenodd" clip-rule="evenodd" d="m690.8 352.5-72.5-3.4 29.8-81.7 7.6 22.1-15 42L699 334l24.2 67.2-15.8-1-16.6-47.8Zm-59 4.2-19 8.2-11.4 32H617l14.7-40.2Zm23.1-108 26.4 75.3h14.5l-25.6-75.4H655Z" fill="#E2E7E9"/><path fill="#E2E7E9" d="M940.2 599.6h55.9v121.3h-55.9zM861.1 493.6l58.6 1v213l-58.6 3.2V493.6ZM443.2 609l-184.5 3.8 1.5 115.2 184.9-1.6-1.9-117.3ZM716.4 479l30.6 1.7v231.2l-26.4 1-4.2-233.8Z"/><path d="m112.3 300.8-90.7 80.5-1.3 78.5L213 427.1l20 1 3.8-1v-7.4L657 41.8l-165 75.6V174a18.1 18.1 0 0 1-10.6 5.8c-5 .7-9.8-.2-11.6-.8v-51.4L127.4 284l-3.2 4.7-11.9 12.1ZM442.7 463.3H455v17.4l253.1 2.6 1.6-23.2h5.5l5 263.4-275.2 2.4-2.4-262.6Z" fill="#fff"/><path d="m765.7 477.2 77 1.6-1.6 242.6-75.4 1.6V477.2Z" fill="#E2E7E9"/><path d="M1003.8 517h-6.4l-1.8 201.7 124 1.4V517l-5.4-1.9-1.5 4.7h-106.3l-2.6-2.9Z" fill="#7E8690"/><path d="M443 462.4v-.1.2l.3 1.8a14.2 14.2 0 0 1 0 4 33.3 33.3 0 0 1 0 1.4l.2 1.8a30.2 30.2 0 0 1 .2 6.1 46.9 46.9 0 0 0 0 2.3v5.2a462.8 462.8 0 0 1-.3 16.1v.3a29.6 29.6 0 0 0 .1 2v6.5a161.9 161.9 0 0 1 0 7.8 95 95 0 0 1 0 7.4 167 167 0 0 1-.3 13.6 289.8 289.8 0 0 0 .2 14.3 212.6 212.6 0 0 1-.2 19.5 53 53 0 0 0 0 10.3 176.6 176.6 0 0 1 .5 13.3M443.8 597.2a374.9 374.9 0 0 1 .7 20.7 94.7 94.7 0 0 1 .2 14.7 175.6 175.6 0 0 0 .1 5.4 28 28 0 0 0-.1 4.5v.4a3.4 3.4 0 0 0 0 .3s0 0 0 0a34.9 34.9 0 0 0 0 3v.8a303.7 303.7 0 0 1 0 10.5 14.7 14.7 0 0 0 .3 2.7 12.7 12.7 0 0 1 0 1.5 136.9 136.9 0 0 0 .2 7.7l.1.7v1.2a88.4 88.4 0 0 1 .5 8 40.7 40.7 0 0 1 0 4.7 29.1 29.1 0 0 0-.4 2.2 39 39 0 0 0-.4 4.4 23.2 23.2 0 0 0 .4 4 30.5 30.5 0 0 0 0 1v2a63 63 0 0 0 .4 8 42.6 42.6 0 0 1-.2 2.7l-.2.6a252.5 252.5 0 0 0-.3 2.8 10.2 10.2 0 0 0 .1 2.3v.7s0 0 0 0a4.2 4.2 0 0 1 0 .5v.3a5.7 5.7 0 0 1 0 .5 20.3 20.3 0 0 0 0 1.5 12.8 12.8 0 0 1-.1 1.4 5.4 5.4 0 0 0 0 .5v.6a9.9 9.9 0 0 0 .1 1.5v.4l.1.3v.5l.1.4s0 0 0 0v.1a25.8 25.8 0 0 1 .3 3.6v.1s0 0 0 0 0 0 0 0 0 0 0 0 0 0 0 0v-.1s0 0 0 0 0 0 0 0 0 0 0 0v.5a11 11 0 0 0 0 1.3 5.3 5.3 0 0 0 .2 1s0 0 0 0 0 0 0 0v.7l-.1.6a10.3 10.3 0 0 0 0 .7 308.5 308.5 0 0 1 0 .6v.6s0 0 0 0l-.1.6v.7M715.7 467.2a3115.1 3115.1 0 0 1 1 25.7v4l-.2 6.5a592.2 592.2 0 0 0 .2 31l.4 8.3v3.3l.3 5.5a271.5 271.5 0 0 1 .5 23.4 1132.3 1132.3 0 0 1 .3 15.4 119.6 119.6 0 0 0 0 6.1v33.9a3521.9 3521.9 0 0 0 .2 19.3 771.5 771.5 0 0 1 .4 20.3 101 101 0 0 1 .3 9.7v7.9a77.8 77.8 0 0 0 0 7l.1 1.3a195.6 195.6 0 0 1 .4 5.3v.2-.1l.1.7a79.5 79.5 0 0 0 .2 2v.4s0 0 0 0v3a56.1 56.1 0 0 0 .6 3.7v2.6a353.8 353.8 0 0 0 0 6v3.2h.1" stroke="#171612" stroke-width="1.1" stroke-linecap="round" stroke-linejoin="round"/><path d="M441.5 462.5s0 0 0 0h2.4a50.2 50.2 0 0 1 3.3.3h1.3a197 197 0 0 1 2.4 0c.8-.1 2 0 3.5.5M454.8 454.7v-.1a112.4 112.4 0 0 0 .2 8.8 101.8 101.8 0 0 1 .5 14.4 13.4 13.4 0 0 1 0 .2l-.1 2.4M456.8 480.4h1.1l.6-.1a83.9 83.9 0 0 1 12.9.4l8.2.1a1014.4 1014.4 0 0 1 37.9 1.9l8.4.3a782.8 782.8 0 0 0 55.2 0l4.3.2h7l12-.3a462 462 0 0 1 29.8-.2 5346 5346 0 0 0 44.5-.2 239.6 239.6 0 0 1 14.7.7 236.4 236.4 0 0 1 9.2.4 64 64 0 0 0 2.4 0h.5s0 0 0 0a21.4 21.4 0 0 0 4.5-.1s0 0 0 0h.6a25.4 25.4 0 0 1 1.3 0s0 0 0 0 0 0 0 0h1s0 0 0 0 .1 0 0 0c0 0 0 0 0 0h.8s0 0 0 0a8.2 8.2 0 0 1 .5 0s0 0 0 0h.4c0 .1-.3.2-1.1.2M457.6 455.1h.3l2.3.2a211 211 0 0 0 12.3 0h3.2a746.7 746.7 0 0 1 16.9.2 2551.6 2551.6 0 0 1 16.8.6 434.4 434.4 0 0 1 20 .6l3.1.4 8.4.3c4.8.1 10.3.2 16.4 0a374 374 0 0 1 43.6 2 128.5 128.5 0 0 0 10.9 0 593.5 593.5 0 0 1 16.7.1h3.3a150.6 150.6 0 0 1 3.2 0l2-.3 4-.2h6.5a188.5 188.5 0 0 0 11.3-.3 80.9 80.9 0 0 1 13.8.3 98.5 98.5 0 0 0 7.4.1h3.7v-.1l4.8-.4c3-.2 7.3-.1 12.9.3h0v0l1.8.1 4.8.2M707 459.1s0 0 0 0c-.1 0 0 0 0 0l.3.1a3.4 3.4 0 0 1 .2 0h.2l.5.1H710.2a86.5 86.5 0 0 1 .7 0h.5a5.2 5.2 0 0 1 .2 0s0 0 0 0h.8s0 0 0 0a.1.1 0 0 0 0 0h.2a14.2 14.2 0 0 1 1-.1h.2a3.6 3.6 0 0 1 .2 0 1.3 1.3 0 0 1 .2 0h.2a1 1 0 0 0 .3 0s0 0 0 0 0 0 0 0 0 0 0 0h.2s0 0 0 0M715 459.4v0s0 0 0 0 0 0 0 0 .1 0 0 0h.1s0 0 0 0v.5a691.2 691.2 0 0 0 .4 2.7s0 0 0 0v.1a9.5 9.5 0 0 1 0 1.2v.5s0 0 0 0 0 0 0 0a2.7 2.7 0 0 1 0 .3s0 0 0 0 0 0 0 0v.1s0 0 0 0v.5s0 0 0 0v.1l.1.1s0 0 0 0v.1s0 0 0 0 0 0 0 0v.3a2.6 2.6 0 0 0 0 .5s0 0 0 0 0 0 0 0 0 0 0 0v.2a6 6 0 0 1 .1.2v.2h0v.1s0 0 0 0 0 0 0 0v.1h0v.1s0 0 0 0V468" stroke="#171612" stroke-width="1.1" stroke-linecap="round" stroke-linejoin="round"/><path d="M714.8 466.4s0 0 0 0h0Zm0 0 7.7.2 13.6.3 9 .2a6264.3 6264.3 0 0 1 18.1.5l6.2.2h5.4l5.1.2 4.4.1 9.1.3 11 .2 8.8.3 8.8.2 6.5.1 4.4.1a78618 78618 0 0 1 50.9 1.3l5.2.2h4l7.8.3 8.2.2 6.7.1 6.3.2h3l2.2.1h2.2l1.3.1H932.3s0 0 0 0H932.9s0 0 0 0h.8l1 .1h.8s0 0 0 0 0 0 0 0h.9s0 0 0 0 0 0 0 0a12.7 12.7 0 0 0 .5 0s0 0 0 0h.5l1 .1h-1.8M716.8 475.5h-.2 2.5l5.6.2 3.9.1 4 .1 5.2.2h5.3l1.4.1h2.1-.1l1.4.1h-.1M764.7 476.7s0 0 0 0a55566.1 55566.1 0 0 0 50.1 1.3l5.3.1a6381.5 6381.5 0 0 0 6.5.2h2.6l2.2.1h3.6a64977 64977 0 0 1 7.7.3h3.6" stroke="#171612" stroke-width="1.1" stroke-linecap="round" stroke-linejoin="round"/><path d="M842 478.7h-.2 5.3a37643.8 37643.8 0 0 1 47.4 1.3h4.3l5.6.2 5.6.2h3.9l2.9.1h1a632.6 632.6 0 0 0 2.4.1h2l1 .1H925.4a1933 1933 0 0 0 5.5.2h.5a413.8 413.8 0 0 1 1 0h-.2.6-.5M997.2 450.7v60.8a184049.8 184049.8 0 0 0 0 52.5V708.7s0 0 0 0v6.3M940.4 473.7v241s0 0 0 0v.6M932.6 481.8a1755894 1755894 0 0 0 0 56.3V714.4s0 0 0 0v1.2M932.6 715.6c0-.3 0-.3 0 0ZM847.7 481V480.2v153.5a96437.1 96437.1 0 0 1 0 42.3V712.2c0 .2 0 .2 0 0v3s0 0 0 0v.7s0 0 0 0v5.5M847.7 721.5v-2.1M765 476.8s0 0 0 0l.1 13.5v138.9a13253.3 13253.3 0 0 0 0 17.6l.1 12a1377578.4 1377578.4 0 0 1 0 25.8V713.3v-1.2M765.2 706.9V725.5M750.3 480.5v-.3 20.3a10167.8 10167.8 0 0 1 0 14.2v36.8a568081.4 568081.4 0 0 0 0 62.7v14.3l.1 12v32.2a117421.4 117421.4 0 0 1 0 26.2V720.1v-.2 2-2.3M756 466.9v5a62596.3 62596.3 0 0 1 0 31.7v49.8l.1 10v33.1a121694 121694 0 0 0 0 73.2V716.8l.1 3.6v5M658.3 74l-15.7 14-24.8 22.3-13 11.8-9 8-7.7 6.9-7.8 7a82555.6 82555.6 0 0 0-22.8 20.4l-16 14.4-23.6 21.2-30.6 27.4-25 22.3-13.2 11.9-12 10.8-10.6 9.5-6.4 5.7-10.4 9.3-16.3 14.6-14.9 13.4-8.7 7.8-5.9 5.3-6 5.3-14.7 13.3-21.2 19-13.8 12.3a54575.5 54575.5 0 0 0-10.5 9.4l-4.7 4.2-5.2 4.7-5.7 5.2a4122.7 4122.7 0 0 1-9 8l-2 1.8a9513.5 9513.5 0 0 0-13 11.7l-.8.7a4.6 4.6 0 0 0-.3.2l-.2.2-2 1.9 2.5-2.4M661.2 37.9a127.1 127.1 0 0 1-.2.2 146964.4 146964.4 0 0 1-36.7 33l-12 10.8-6.1 5.5-7.1 6.4-10 9-15 13.5-14.7 13.2-9.6 8.6a47817 47817 0 0 1-34.9 31.5l-24.6 22.2a1460029.8 1460029.8 0 0 1-127.5 114.7l-4.4 4-5.5 5-7 6.4-4.6 4-17 15.3-24.1 21.8-16.5 14.8-12.8 11.5-7.7 7-3.4 3-1.7 1.5-.6.6-.6.6-1.4 1.2-.6.6s0 0 0 0l-1 1a12284.5 12284.5 0 0 1-4 3.5c-.2 0-1 .8-2.2 2l-3.8 3.4-2.5 2.2-1.4 1.2a3762.8 3762.8 0 0 1-.6.6M662.4 65.4 675.9 81l24.8 28.4 22 25.2 11.6 13.3 28 32 38.2 43.8 21.9 25.1 18 20.7 17 19.4 15.8 18 18 20.8a493533.7 493533.7 0 0 1 30.9 35.3l9.3 10.6a134333.7 134333.7 0 0 0 16.8 19.3l6.5 7.5a32139.2 32139.2 0 0 1 11 12.6l5 5.6 4.5 5.3a4316.6 4316.6 0 0 1 3.5 4l.7.7v.1l1.7 1.9 3.6 4.1 3.1 3.6a1871.3 1871.3 0 0 1 2.6 3l.2.2 1.8 2 3.1 3.6 3 3.3 1.2 1.5.9 1 2 2.2 1.5 1.8 1.5 1.8a62.4 62.4 0 0 0 .8.9l.7.7.4.5.8 1c-.1-.2-.1-.2 0 0l-2-2.3M664.6 34.8l16.8 19.3 32.2 37 26.6 30.4 18.9 21.6 9.4 10.8a30628 30628 0 0 1 21.4 24.4l16.3 18.8 17.4 19.8 16 18.5 9.8 11.2 6.3 7.1a53636 53636 0 0 1 57 65.4c6.3 7 11 12.4 14.1 16.1l7.7 8.8 5.5 6.3 8.6 9.8 9.2 10.5 4.4 5 3.7 4.3 5.2 6 5.8 6.7c2 2.1 4.1 4.6 6.6 7.5l7.5 8.6 7 7.9 4.8 5.6 2.9 3.3 1.4 1.6.7.8 1.4 1.6a124.6 124.6 0 0 1 1.1 1.3l.9 1 .7.8c.5.6 1 1 1.3 1.5l1.4 1.6 2 2.3 1.8 2.1 1.6 1.8.4.4a302.7 302.7 0 0 0 1.4 1.6c-.1 0-.1 0 0 0l.2.2.6.8.4.4.5.6-1.7-2" stroke="#171612" stroke-width="1.1" stroke-linecap="round" stroke-linejoin="round"/><path d="m658.5 40.8.3-.1-21.8 10-34.9 15.9-25.4 11.6A171480.6 171480.6 0 0 0 539 95.5l-30 13.7c-8.4 4-14.4 6.6-17.8 8.2M470 127l-10 4.7-7 3.2-9.7 4.4-22.7 10.4-27.4 12.5-21.4 9.8c-7.4 3.4-12.9 6-16.7 7.6l-16.8 7.7-20.2 9.3-21.2 9.7-22 10-23.7 10.9-22.6 10.4-22.5 10.2-21 9.6a26716.4 26716.4 0 0 1-21 9.7l-8.5 3.9-9.7 4.4a25702 25702 0 0 0-13.7 6.3" stroke="#171612" stroke-width="1.1" stroke-linecap="round" stroke-linejoin="round"/><path d="m469.4 41 .5 138.7v-7M491.2 39.9V41.8a679714 679714 0 0 0 .3 77.6v24.7l.1 13.2v17-1.4" stroke="#171612" stroke-width="1.1" stroke-linecap="round" stroke-linejoin="round"/><path d="m469.7 179-.2.1h0s0 0 0 0v.3l.4.2c.3.2 1 .3 2.4.5a18 18 0 0 0 6 0 140.6 140.6 0 0 0 7.3-1.8 16.5 16.5 0 0 0 .5-.2l1-.3a85.2 85.2 0 0 0 2.7-1.3 4.2 4.2 0 0 0 .6-.4s0 0 0 0 0 0 0 0 0 0 0 0 0 0 0 0l.2-.3a2.5 2.5 0 0 0 .2-.1l.2-.2.6-1-.2.7M469.6 40.8l1.6-.5a33 33 0 0 1 6.5-1.2 30.2 30.2 0 0 1 5.3 0 40.8 40.8 0 0 1 8.3.8M478.3 31s0 0 0 0 0 0 0 0v-.2a38.9 38.9 0 0 1 .3 4.3l.2 1.3v.6a1.1 1.1 0 0 1 0 .3 20 20 0 0 1 0 .8M478.8 38.4s0 0 0 0M478.8 38.4V38.7c-.1.2-.1.1 0-.2M483.9 29.8s0 0 0 0h-.1s0 0 0 0l-.1.3V32a65.5 65.5 0 0 1-.3 4.4v.7s0 0 0 0 0 0 0 0l-.2 1.5h0l.2-.7" stroke="#171612" stroke-width="1.1" stroke-linecap="round" stroke-linejoin="round"/><path d="M475.4 19.9s0 0 0 0c.1 0 0 0 0 0l.4-.1 1.8-.2a39.8 39.8 0 0 1 7.4 0h2.6a81.8 81.8 0 0 1 6 .9l2.7.4a45 45 0 0 1 4.7 1.3l.8.4.7.4.5.2a9.2 9.2 0 0 1 .7.3l.7.4.5.7.2.3v.3a1.1 1.1 0 0 1 0 .2s0 0 0 0v.2s0 0 0 0a3.6 3.6 0 0 1-.3.8l-.1.1s0 0 0 0h-.1c0 .2-.2.2-.4.4a45.2 45.2 0 0 1-1.9 1l-1.7.5a31.7 31.7 0 0 1-6.8 1 15.7 15.7 0 0 0-2.2.1 19.3 19.3 0 0 1-1.5 0 13.6 13.6 0 0 0-1.3.2 5.4 5.4 0 0 0-.7 0 21.2 21.2 0 0 0-2.6 0s0 0 0 0a7.1 7.1 0 0 0-.9.1 13.4 13.4 0 0 1-1 0c.1 0 .3 0 .5-.2" stroke="#171612" stroke-width="1.1" stroke-linecap="round" stroke-linejoin="round"/><path d="M477 19.7s0 0 0 0h-.4a114.7 114.7 0 0 0-10.5 2 6.6 6.6 0 0 0-1.2.4h-.3a8.3 8.3 0 0 0-2 1 3.6 3.6 0 0 0-.8.7 6.4 6.4 0 0 1-.2.3l-.2.4a5.6 5.6 0 0 0-.5 1v.6a4.2 4.2 0 0 0 .2.2 8 8 0 0 0 .5.5l.6.5c.3.2.5.4.9.5l.7.4.8.3a94.4 94.4 0 0 1 5.3 1.3 153.8 153.8 0 0 0 4.8.7s0 0 0 0 0 0 0 0a14.7 14.7 0 0 0 2 .1h.7a8.4 8.4 0 0 0 .8 0s0 0 0 0 0 0 0 0 0 0 0 0h-.1M570.5 160.6l.4.1h9.8a174 174 0 0 1 13 1.3 197 197 0 0 0 14.3 1 483.2 483.2 0 0 1 24.3 1.9 864.4 864.4 0 0 0 40.3 4.8 131.7 131.7 0 0 1 6.4.7l5.7.6a234.4 234.4 0 0 1 20.8 2.6 38.9 38.9 0 0 0 5.3.6A150.8 150.8 0 0 1 724 176a42.7 42.7 0 0 0 10.4.5 21.6 21.6 0 0 1 3.7.1 130.5 130.5 0 0 0 8.5.7l1.6.1a21.8 21.8 0 0 0 2.7.2h2.6a14.3 14.3 0 0 1 2.8.1h.1l.2.1h.1s0 0 0 0h.1s0 0 0 0l.6.2 1.4.1s0 0 0 0l-.7-.1M583.6 149.3l4 .5a701.5 701.5 0 0 0 16.7 1.2l4.8.4a983.8 983.8 0 0 1 16.5 1.2 26252.6 26252.6 0 0 1 38.6 3 1368 1368 0 0 1 24.6 3.3l3 .3a416.8 416.8 0 0 0 12 1.3 2227 2227 0 0 0 13.7 1.3 93.5 93.5 0 0 0 3.3-.2 93.7 93.7 0 0 1 8.1.5 46.7 46.7 0 0 1 5.7.8 165.7 165.7 0 0 0 3.1.4l1 .1a13.8 13.8 0 0 0 3.1 0 8.6 8.6 0 0 1 1.6 0h.5s0 0 0 0a3.7 3.7 0 0 1 .6 0h.3l1 .1c.1 0 .2-.1.2 0v-.2M598 136.1a363.3 363.3 0 0 0 .4 0 263.5 263.5 0 0 0 27.5 3 554.8 554.8 0 0 0 17.1 1.7 310.4 310.4 0 0 1 13.3 1.4 2012.5 2012.5 0 0 1 33 3.7 93 93 0 0 1 7.2.7 232 232 0 0 0 8.4.7 93.6 93.6 0 0 1 8.2 1 23.3 23.3 0 0 0 4 .1l3.2.2a53.3 53.3 0 0 1 5.9.9 105.7 105.7 0 0 0 8.3.8c0-.2-.2-.3-.6-.3M613.1 123.8s0 0 0 0a61.7 61.7 0 0 0 8.2 1.3 255.7 255.7 0 0 0 15.7 1.2 308.7 308.7 0 0 1 19.8 2.5l6.6 1 5.4.8a177 177 0 0 0 20.3 2 406.5 406.5 0 0 0 9.6 1.2 324.5 324.5 0 0 1 10.8 1.6 51.4 51.4 0 0 0 7.8.4 27 27 0 0 1 3 .3h.6l.5.2 1.4.2s0 0 0 0M618.2 113s0 0 0 0a56.9 56.9 0 0 1 3 0 96.8 96.8 0 0 1 14.3 1 266.6 266.6 0 0 0 7.1.7c.6 0 1.7 0 3.3.2 1.6.1 3.7.4 6.2 1a122.9 122.9 0 0 0 20.8 2.3 61.1 61.1 0 0 1 9 1.4 91 91 0 0 0 9 1.4 256.6 256.6 0 0 0 11.6 1.4h2a13.5 13.5 0 0 0 3.4 0 19.3 19.3 0 0 1 1 .1s0 0 0 0a12.8 12.8 0 0 0 1.5 0h.9l-.5.2M634.8 101.4h-.2l2.6.4a279.3 279.3 0 0 0 10.1.8 1264.8 1264.8 0 0 0 9.7.9 93 93 0 0 0 13.3 1.3 54 54 0 0 1 5.8.7 85.3 85.3 0 0 0 5.8.6 543 543 0 0 1 13.8 1.9l1.5.1h.5c.2.1.8.2 1.7.2h0a4 4 0 0 1-.3-.1l-.5-.3M646.2 89l.1-.1 1.4.1 2.6.2a72.7 72.7 0 0 1 7.3.9l4.4 1 2.7.3a176.8 176.8 0 0 1 13 2 89 89 0 0 0 6.4.7h.1a13.5 13.5 0 0 1 1.6 0 3.9 3.9 0 0 1 .4 0h1s0 0 0 0l-1.5-.1M656.3 81.7s0 0 0 0h0a223.6 223.6 0 0 1 12.3 1.2l3.2.5 5.5.8" stroke="#171612" stroke-width="1.1" stroke-linecap="round" stroke-linejoin="round"/><path d="M668.1 92s0 0 0 0h.1v.4a13.7 13.7 0 0 0-.2 1 238.7 238.7 0 0 1-.9 5.8M664 91.6v-.3l.1-.3s0 0 0 0h.1a81.6 81.6 0 0 1-.2 11.1M668.3 105.3s0 0 0 0 0 0 0 0l-.3 3-.6 6-.2-1M664 104.2a.7.7 0 0 0-.1.4s0 0 0 0v1.3a39.8 39.8 0 0 1 0 4.8l-.4 4.2s0 0 0 0l.2-.3M663.1 117.5v-.1h0c.2.1 0 3-.3 8.5l.4-.8M668.2 118.1l.2-1-.4 3.8c-.3 2.2-.6 4.4-.7 6.7M663.1 130.2s0 0 0 0v-.4 2.6l.2 6 .3.1M667.8 130.4v-.7l-.2 2.3a132 132 0 0 0-.4 4.8M662.5 143.7l-.2.4v8.9c.2-.2.4-.7.6-1.7M666.7 143.8s0 0 0 0l-.2 1.6-.1 3.6a54 54 0 0 0-.1 4M662 156.2s0 0 0 0c.2.1.2.1.1.2v8.6s0-.6.3-1.5M666.8 157.8s0 0 0 0a56.8 56.8 0 0 1-.5 5.8M662.4 169.4v-.4s0 0 0 0v1.8a73.4 73.4 0 0 1-.2 7l.4-1.7M666.7 169s0 0 0 0 0 0 0 0 0 0 0 0v2.7a277.1 277.1 0 0 0-.4 5.5M550.6 170.9c.2 0 .2 0 0 0l1.3.2a110 110 0 0 0 10.5.9 215 215 0 0 1 9.6.8 793 793 0 0 0 25.7 2.6 105 105 0 0 0 12.6.8 642.4 642.4 0 0 1 15.1 1.2 70.5 70.5 0 0 0 10.8 1 248.4 248.4 0 0 1 17.5 1.4c.7.2 2.4.3 5.1.6a210.7 210.7 0 0 0 10.5.7l2.8-.1a58.3 58.3 0 0 1 9.3.5 140 140 0 0 1 10.7 1.3 152.7 152.7 0 0 0 10.2.8 133.2 133.2 0 0 1 12.2 1.8 146.2 146.2 0 0 0 22 2.8 247 247 0 0 1 12.6 1.1 37.5 37.5 0 0 1 5.3.1 124.6 124.6 0 0 1 10.9 1.3 22.9 22.9 0 0 0 3.6.2h.4a43.5 43.5 0 0 0 .6.1M536 185.4s0 0 0 0 0 0 0 0c.3.1.4.2.5.1a64 64 0 0 0 7.1.9l6.7.6a616 616 0 0 0 45.2 2.9 531 531 0 0 1 25.9 2.5 224 224 0 0 0 12.8.9 351.8 351.8 0 0 1 18.4 1.4 1783 1783 0 0 1 42.8 4.3 292.8 292.8 0 0 0 21.3 1.5 256.1 256.1 0 0 1 25.2 2.9 91.6 91.6 0 0 0 9.8.5 90.3 90.3 0 0 1 17.6 1.9 17 17 0 0 0 3.3.2h1.5a21.5 21.5 0 0 1 2.6.2 25.6 25.6 0 0 0 5.4 0 15.9 15.9 0 0 0 1 0s0 0 0 0a1.8 1.8 0 0 1 0 0s0 0 0 0 0 0 0 0l1.2.3h-.1M666.7 101.8s0 0 0 0 0 0 0 0 0 0 0 0l-.8-.1a261 261 0 0 0-1.6-.1M667 114.3s0 0 0 0h.1s0 0 0 0 0 0 0 0h0a19.4 19.4 0 0 0-3.2-.2M666.8 127.5h.3-.5a60.8 60.8 0 0 1-3.4-.3" stroke="#171612" stroke-width="1.1" stroke-linecap="round" stroke-linejoin="round"/><path d="M662.8 125.6h0s0 0 0 0l.1-.1s0 0 0 0 0 0 0 0 0 0 0 0v.2s0 0 0 0 0 0 0 0V126a1.3 1.3 0 0 1 0 .2s0 0 0 0 0 0 0 0 0 0 0 0 0 0 0 0 0 0 0 0a2 2 0 0 1 0 .2s0 0 0 0a1.1 1.1 0 0 0 0 .3 24.6 24.6 0 0 1 0 .2M663.2 138.8s0 0 0 0 0 0 0 0h.5a21.6 21.6 0 0 1 1.4 0 5 5 0 0 0 1 .2 5.6 5.6 0 0 1 .9.1h.2s0 0 0 0m0 0s0 0 0 0Zm0 0v-.1a.8.8 0 0 1 0-.3s0 0 0 0v-.4a2.3 2.3 0 0 1 0-.5s0 0 0 0 0 0 0 0 0 0 0 0v-.1s0 0 0 0 0 0 0 0V137.4a1 1 0 0 1 0-.1s0 0 0 0v-.2s0 0 0 0a.5.5 0 0 0 0-.2s0 0 0 0 0 0 0 0a.5.5 0 0 1 0 0s0 0 0 0 0 0 0 0v-.2s0 0 0 0 0 0 0 0l.1.1M662 152.8s0 0 0 0h.2l.5.2a122 122 0 0 1 3 .4h.2s0 0 0 0 0 0 0 0h.2s0 0 0 0M661.9 164.7s0 0 0 0a12.7 12.7 0 0 0 .7 0 93.6 93.6 0 0 0 1.6.2h.4a1.6 1.6 0 0 1 .3 0l.3.1a2.8 2.8 0 0 0 .4 0s0 0 0 0 0 0 0 0 0 0 0 0h.1a1.3 1.3 0 0 0 .1 0v-.1h.1s0 0 0 0h.1s0 0 0 0v-.1s0 0 0 0v-.5l.1-.3v-.2s0 0 0 0M662.1 177.9s0 0 0 0h.6a26.4 26.4 0 0 1 2 .2h.2a10 10 0 0 1 .7 0h.4s0 0 0 0 0 0 0 0m0 0s0 0 0 0Zm0 0s0 0 0 0h.1s0 0 0 0h.1s0 0 0 0 0 0 0 0 0 0 0 0 0 0 0 0 0 0 0 0V177.7l.1-.4v.1M647.8 266.9l-1.3 3.5-2.6 7.3-2.4 6.7-1.3 3.7-1 3-1.2 3.2-2 5.3-3.2 9.2M632.7 309l-2.4 6.9c-1 2.8-2 5.2-2.6 7.2l-1.7 4.8a2858.8 2858.8 0 0 0-1.4 3.9l-.3.8-.2.6-.2.5-.2.4v.4l-.2.2v.3l-.3.6-.9 2.5-1.3 3.5-1 2.8-1 3.2v-.4M613 364.3l-.6 1.5a4104.4 4104.4 0 0 0-2.9 8l-.9 2.6a4042.4 4042.4 0 0 1-3.5 10l-.7 1.7-.7 2-.5 1.4-.4 1.2-.5 1.2-.3 1-.4 1 .3-.8M655.7 289.7l-.7 2-1.5 4.3-1.6 4.4-1 2.6a2238.6 2238.6 0 0 0-2.3 6.6l-1.2 3.3-1.1 3.2-1.2 3.2-.8 2.4-.6 1.7-.5 1.2v.3l-.3.6-.5 1.4-.4 1.2-.2.6-.3.7c0 .3-.2.5-.3.7l-.2.7-.1.5-.1.2v-.2l-.3.9.8-2.2M631.8 356.6s0 0 0 0c0-.2.1-.3 0-.2h0l-1.8 5-3.4 9.7-3 8.1-2 5.9-1.1 3-.7 2-.6 1.7-.5 1.4-.4 1-.2.7-.2.5a575 575 0 0 0-1.1 3.2l.7-2M670 249.6a5 5 0 0 1 0-.4l2.1 6.3a72807.4 72807.4 0 0 1 6.5 18.6l1.2 3.2 1.2 3.5 1 3 1 2.8 1.7 4.9 2.6 7.4 2.2 6.1 1.6 4.7 1.2 3.3.7 2 .5 1.7a223.2 223.2 0 0 1 .5 1.4l.1.2v.1l.1.2.3.8.3.9.1.4.1.2s0 0 0 0l.1.2.2.7.2.4a.6.6 0 0 1 0 0 19.4 19.4 0 0 1 .2.6v.3l.2.4v.1a1.2 1.2 0 0 0 0 .1l-.1-.6M699.7 334.3v.2l1.7 4.6 2.8 8.2a9131 9131 0 0 0 3.3 9.3l1.7 4.7 1.2 3.6 1.3 3.6 1.5 4.5 1.2 3.3 1.9 5.3a10588.8 10588.8 0 0 0 3.3 9.7l1 2.6.7 2.2.6 1.7.7 2-.2-.6M655 249h.1l1 2.9 2.8 8 3.3 9.5 3.1 8.8 3.5 10 2.3 6.6 1.3 3.7 1.2 3.3 1.9 5.4 2 5.7 1 3.3 1.5 4M680.2 320.7l.9 2.6M681.4 324.1v.1l-.5-1.4M690.8 351l2.3 6.5 3.4 9.8 1.8 5 .7 2 .2.8.5 1.4a1042.8 1042.8 0 0 0 1.5 4.2l1 3a2501.7 2501.7 0 0 1 3 8.3l.4 1.2.2.8.2.4a171.8 171.8 0 0 0 .8 2.4l.1.3.1.3.1.3a33.8 33.8 0 0 0 .2.4v.1l.1.4.2.4v.1a7.9 7.9 0 0 0 .2.4v.1l.1.3v.2l-.4-1.4M640.6 331.7h.5l3 .1 5.9.3 9.5.3 9.3.4 5.2.2 3.2.1 4.3.2 4.5.2 2.8.1h1.6l1.2.1h1.3a1714.5 1714.5 0 0 0 1.6.1H695.4a5 5 0 0 1 0 0l2.6.2M616.1 349.2s0 0 0 0h.4l4.8.2 8.8.4 7.1.2 7.6.3 7.3.3 9.5.4 11.6.5a1413882.5 1413882.5 0 0 1 9.3.3l1.2.1h1.7a318.2 318.2 0 0 0 2.1.2h2.3a13.5 13.5 0 0 1 .7 0h.3-.5" stroke="#171612" stroke-width="1.1" stroke-linecap="round" stroke-linejoin="round"/><path d="M601.3 396.4s0 0 0 0h2l14.7.7h-.5M705.7 400.6h-.2l4.3.1 7.2.3 4.1.2 3 .1h-.9M654.1 248.4a14.8 14.8 0 0 1-.3 0h2l4.6.2 3.6.2 6.8.2h-.4M647.6 267v-.1c-.1 0-.1 0 0 0 0 0 0 0 0 0l.2.3.2.2v.2a107.2 107.2 0 0 0 2.8 7.5 89.3 89.3 0 0 1 3.3 9.5s0 0 0 0l.1.3.2.4c0 .1 0 .1 0 0v.2a16.3 16.3 0 0 0 .4 1c0 .3.2.6.4 1l.3.9c0-.3 0 0 .4 1 0 0 0 0 0 0l.1.2.1.2v-.2M612.6 364.3v.2l-.2.2c.2.2 1 0 2.4-.7a156.9 156.9 0 0 0 11.3-5.3 9 9 0 0 1 2.6-1c1-.1 2.3-.6 4-1.3M679.7 324.7s0 0 0 0h-.1s0 0 0 0v-.2s.1-.1.1 0l.2-.2 3.4-.5a74 74 0 0 1 9.8-.4 14.3 14.3 0 0 0 3.5-.2l-.1.3M496.6 444.2l-.1-.2v2.8a152.5 152.5 0 0 0 .3 7.6v1.7h0l.3-1.2M503 445.4v-.1 5.6a41.3 41.3 0 0 0 .3 4.3" stroke="#171612" stroke-width="1.1" stroke-linecap="round" stroke-linejoin="round"/><path d="M496.7 445c0-.3 0-.6.5-1.1l1.2-1.2 1-.5c.3 0 .6-.1.8 0h.6c.2 0 .4 0 .6.2a2.4 2.4 0 0 1 .8.4l.1.1.2.1s0 0 0 0 0 0 0 0c.2 0 .3 1.4.6 4l.2-.5M566.5 445.2a64.5 64.5 0 0 1 .2 9.2 46.6 46.6 0 0 1 0 2.3M566.6 446v-.4c.1-.3.3-.5.7-.8a17.7 17.7 0 0 1 1.8-1.1l.6-.2.4.1.2.3.3.4.2.6a7.5 7.5 0 0 0 .2.6l.2.5h.2s0 0 0 0 0 0 0 0a4.8 4.8 0 0 1 .1 1v2.6a1427.4 1427.4 0 0 0-.1 6.8v.1s0 0 0 0V456.8a4.7 4.7 0 0 0 0 .7M636.3 447s0 0 0 0l.2 2.3a87.6 87.6 0 0 1 .2 7.2v2.4-2" stroke="#171612" stroke-width="1.1" stroke-linecap="round" stroke-linejoin="round"/><path d="M635.9 447.3v-.2l.2-.3.4-.3.2-.2a5.8 5.8 0 0 1 .5-.1l.2-.1a6.2 6.2 0 0 1 1.1-.2h.3s0 0 0 0 0 0 0 0h.6l.2.2v.1h.2l.3.3a1.7 1.7 0 0 1 .3.6s0 0 0 0v.1l.1.3v.3s0 0 0 0v.2a8.7 8.7 0 0 1 .1.5 16 16 0 0 0 .1 1.3 28.7 28.7 0 0 1 .2 4.3V458.5s0 0 0 0 0 0 0 0l-.3-.8M635.7 447.7v-.3h0s.2.5.3 1.7a77.7 77.7 0 0 1 .4 9V458.8s0 0 0 0 0 0 0 0c0 .1 0 0 0 0v1-.7M567.3 444.7s0 0 0 0 0 0 0 0v.1a9.5 9.5 0 0 0 .2 1.3v1.3a102.2 102.2 0 0 1 0 10.2M693.5 448.5s0 0 0 0v.4a8.5 8.5 0 0 0 0 1.4v1.3a28.3 28.3 0 0 1-.3 4.1v2.4M701 449l-.1-.3v1.5a48.6 48.6 0 0 1 0 6.6v2.6l.2-2.7M693.8 448.6h-.1v0s0 0 0 0l.4.2h1.3a513.7 513.7 0 0 1 3.5-.2 2.6 2.6 0 0 0 1 .1h.6s0 0 0 0h.1s0 0 0 0m0 0s0 0 0 0m0 0s0 0 0 0 0 0 0 0m0 0s0 0 0 0h.3s0 0 0 0m-.3 0s0 0 0 0ZM694.6 449.3v-.2s0 0 0 0 0 0 0 0v1.6a31.6 31.6 0 0 0 0 3.7l-.2 2a46.1 46.1 0 0 0 .1 1.6M822.2 451.3s0 0 0 0v1.4a28.6 28.6 0 0 1 0 4.4v1.8l.4-2.2M823 450.8v-.2a76 76 0 0 1 .3 5.6 222.2 222.2 0 0 0 .3 3l.2-1.1M827.3 451.5s0 0 0 0c.2 0 .3.2.3.9v7.9l.3-1.2" stroke="#171612" stroke-width="1.1" stroke-linecap="round" stroke-linejoin="round"/><path d="M821.7 451.2s0 0 0 0 0 0 0 0 .1 0 0 0a49.6 49.6 0 0 0 3.9 0l1 .2 1.3.1h-.1l-.2-.1h-.1" stroke="#171612" stroke-width="1.1" stroke-linecap="round" stroke-linejoin="round"/><path d="M824.7 451v-.2l-.1-1v-1.6h-.8a11.7 11.7 0 0 0-2.7.3l-.8.1h-1v.3a121.2 121.2 0 0 1 0 2.4h1.2l2.4.3M822.2 458.5h-.1V460h5.9-.1c-.1-.1-.2 0-.2 0M889.4 452.3s0 0 0 0 0 0 0 0 0 0 0 0a117.4 117.4 0 0 1 0 4l.1 3.5h0l.1-1.3M890.4 452.6v-.4a88.3 88.3 0 0 1 0 8l.3.3.2-.5M895.6 452l-.1-.4V454.7a128 128 0 0 1 0 5.1l.1.6.2-.9M885.8 451.7h-.4s0 0 0 0h1.2a28 28 0 0 0 2.8-.2h1.2a164.2 164.2 0 0 1 4.5 0s0 0 0 0 0 0 0 0" stroke="#171612" stroke-width="1.1" stroke-linecap="round" stroke-linejoin="round"/><path d="M888.7 460.6s0 0 0 0a12.7 12.7 0 0 0 2.3 0 26 26 0 0 1 3.6-.3 61 61 0 0 1 1-.1M885.9 448.9h-.1s0 0 0 0 0 0 0 0v2.9-.1s0 0 0 0 0 0 0 0l.1-.4" stroke="#171612" stroke-width="1.1" stroke-linecap="round" stroke-linejoin="round"/><path d="M885.5 449s0 0 0 0a13.9 13.9 0 0 0 2.4-.2 11.7 11.7 0 0 1 2-.2 22.9 22.9 0 0 1 2.2 0M891.7 448.8s0 0 0 0 0 0 0 0l-.1.8a130.4 130.4 0 0 0-.3 2.5l.2-.1M953.9 453.8s0 0 0 0l-.1-.2v-.2 1a344.6 344.6 0 0 1 .4 4.6M955 452.6v1a58.5 58.5 0 0 1 0 5.5c0 .5.1 1.1.3 1.6v-.2M960 453.2v-1 .8a39.9 39.9 0 0 1 0 5.4 21.8 21.8 0 0 0 0 3l.1-.8" stroke="#171612" stroke-width="1.1" stroke-linecap="round" stroke-linejoin="round"/><path d="M953.6 461s0 0 0 0h.4a47 47 0 0 1 5.4.2h1.6v0h-.1s0 0 0 0h-.1s0 0 0 0M950.6 453.3h-.3 1.2a43.5 43.5 0 0 1 4.5-.2h1.3a2549.4 2549.4 0 0 1 2.5-.2M950.7 450s0 0 0 0v-.1s0 0 0 0v.5a17.4 17.4 0 0 1 0 2.1l.1.7s0 0 0 0l.2-.5" stroke="#171612" stroke-width="1.1" stroke-linecap="round" stroke-linejoin="round"/><path d="M950.3 450.5s0 0 0 0h1.1a35.3 35.3 0 0 1 4.9-.2v.2" stroke="#171612" stroke-width="1.1" stroke-linecap="round" stroke-linejoin="round"/><path d="m956.4 450.6-.2-.2v.6l-.1 1-.2 1.4.2-.2M129.6 283v.1s0 0 0 0l-.6.2-1 .6c-.1.3-.3.5-.6.7a12.9 12.9 0 0 0-1 1.2 51 51 0 0 1-9.3 9.9l-1.3 1.2a148.3 148.3 0 0 0-3.7 4.1c-.5.5-1.5 1.5-3.1 2.8M109 304c-.2 0-2 1.5-5.5 4.4M102.4 309.4l-.4.3a12.4 12.4 0 0 0-1.3 1.1l-.4.3s0 .1-.1 0l-.7.7a154.1 154.1 0 0 1-10.4 8.8 44.9 44.9 0 0 0-6.9 6A139.1 139.1 0 0 0 69.7 338M68.6 339a106.7 106.7 0 0 0-4.1 3.6 42.4 42.4 0 0 1-5 3.8 14.4 14.4 0 0 0-2.2 2 18.7 18.7 0 0 1-.9.8 47.4 47.4 0 0 1-4 3.7A513.8 513.8 0 0 0 45 359l-2.6 2.5a397.1 397.1 0 0 1-10.2 9.4 75.6 75.6 0 0 0-2.3 3c-.4.4-1.2 1.3-2.6 2.5l-4.9 4 .9.3M18 461.1c.1 0 .1 0 0 0l.2-.3c.1-.3.4-.5.8-.7a28.1 28.1 0 0 0 2.4-.7l1-.2 1.5-.3a99 99 0 0 1 7.5-1l5.9-.8a602.5 602.5 0 0 1 39.2-6.7 358.8 358.8 0 0 0 13.7-2.4 1130 1130 0 0 1 13.4-2.2 545 545 0 0 0 18.9-3.5 482.2 482.2 0 0 0 16.7-3 783.2 783.2 0 0 0 22-3.8 257.3 257.3 0 0 1 16.3-2.4l7.2-1.2a93 93 0 0 1 8.9-1 61.4 61.4 0 0 1 6-.7c.5 0 1-.2 1.4-.4a95.4 95.4 0 0 1 5.9-1.7 8.1 8.1 0 0 0 1.2-.2 28.2 28.2 0 0 0 1.6-.3 7.4 7.4 0 0 1 1.7-.1 42.2 42.2 0 0 0 3.1-.6l.6-.2.2.3M214.4 428.5H213.8l4 .2H233c0-.4.6-.7 1.7-1" stroke="#171612" stroke-width="1.1" stroke-linecap="round" stroke-linejoin="round"/><path d="M214.6 428.6h-.5l-.1.4v.6l-.1.6.2.5c0 .1 0 .1 0 0l.3.8c.2.7.8 1.3 1.6 2l2.1 1.5 1.8 1.4c.6.4 1.2.7 1.7.8l1 .2 1.3.2a4 4 0 0 0 1.8-.1 14.8 14.8 0 0 0 3.6-1.7 6.7 6.7 0 0 1 .5-.5l.1-.1a9 9 0 0 0 1.9-2.7l.1-.2.8-1.4c.3-.9.5-1.7.5-2.6a8.8 8.8 0 0 1-.3.6M22.5 472.2c.4.1 1.8-.1 4.2-.7a67 67 0 0 1 6.4-1.3 436.8 436.8 0 0 0 23.7-4.2l6-.9 9.7-1.7a135.3 135.3 0 0 1 18.4-2.5 253.7 253.7 0 0 0 17-2 376.6 376.6 0 0 1 11.2-1.5l9.6-1.7a1279.8 1279.8 0 0 1 21.5-4 845.4 845.4 0 0 1 17.2-3 404 404 0 0 0 14.5-3.1 111.2 111.2 0 0 1 10.4-2l3.6-.7c1.1-.3 2-.4 2.7-.4l1.7-.1 3.6-.7 4.5-1c1-.4 2.1-.5 3.2-.6a103.3 103.3 0 0 0 5.7-.4 5.4 5.4 0 0 0 1.6-.2 3.3 3.3 0 0 1 .4-.1h.5a101 101 0 0 1 2.2-.2h.3l4-1M250.3 729l7-.1 38.6-.5 79.8-1 83.5-1 58.6-.7 36.3-.4 29-.3 26.1-.4 135-1.6M744.3 723l54.1-.6 51.2-.6 20.6-.3 10.1-.1a11966.8 11966.8 0 0 0 41.1-.5l16-.2 13-.1 7-.1a8239.5 8239.5 0 0 1 5.8-.1h5.5l8.2-.2h9.8a187.7 187.7 0 0 1 8.5-.2h-1.3" stroke="#171612" stroke-width="1.1" stroke-linecap="round" stroke-linejoin="round"/><path d="M257.6 433.1a1.3 1.3 0 1 0 0 2.6 1.3 1.3 0 0 0 0-2.6Z" fill="#171612" stroke="#171612" stroke-width="1.1"/><path d="M257.5 437.3a7.8 7.8 0 0 0-.2 1.5 162.3 162.3 0 0 1 1 22.7c-.2 5.2-.2 9.2-.1 12 0 2.7.3 5.3.7 7.6a93.2 93.2 0 0 1 1.5 14.1l.2 2.6c0 1.8 0 3.6-.2 5.5s-.2 7.8-.2 17.8M260 524.5l-.2 27M259.7 551.7c-.3-1-.5 2.5-.5 10.6l.1 20.6a223.8 223.8 0 0 1-.7 23.4l-.3 7.4a268 268 0 0 0 .4 22.1 465.7 465.7 0 0 0 1.4 25 122.7 122.7 0 0 1 .3 10.5l.3 9.8M260.9 682.7c-.2-.2-.3 1.8-.2 6.2a544 544 0 0 0 .8 21.1v.8a40.6 40.6 0 0 0 .3 3M261.7 714.4c0-.3-.1-.2-.2.5a26.2 26.2 0 0 0 0 3.9 20.1 20.1 0 0 1-.2.9v.7l-.1.6s0 0 0 0V721.3l-.1.4-.8 5.3c.2-.3.2-1.7 0-4.1M420.5 441.5h-.3l16.5.3 29.8.6 15.4.3 6.3.1H491.9l1 .1h2.7a8055.8 8055.8 0 0 0 14 .3l6.3.2 7.5.1 12.3.3a50317.7 50317.7 0 0 1 31.2.6l10.5.2 9.5.2 7.8.1 8.1.2 7.8.1 9.7.2 13.7.3 10.3.2 7.3.1 9.6.2 13.5.3 13.4.2 12.3.3 9.7.2 8.2.1 7.5.2h3.7l2.2.1h4.3l1 .1a211.9 211.9 0 0 1 6.2.1l8.5.2 7.8.1 8.8.2 8.6.2 9.8.2 11 .2 7.2.1 4.5.1 4 .1h-1M826.6 449.5h-.7c.1 0 6.2 0 18.4.3l37.6.8H880.1M889 450.7h-.2l57.7 1.1M416.2 456.7H413.3l43.9.8h-.7M710.7 462.5h-.6l11.2.2a964009.4 964009.4 0 0 1 52.7 1l41.8.9 27 .5 11.2.2 5.7.2a71093.6 71093.6 0 0 1 44 .8l17 .4a95367.8 95367.8 0 0 0 23.9.4l4.3.1 4.5.1h3.4a22.6 22.6 0 0 1 1 0M419.5 443s0 0 0 0 0 0 0 0l-.1-.3s0 0 0 0a381.2 381.2 0 0 1 .8 9.6" stroke="#171612" stroke-width="1.1" stroke-linecap="round" stroke-linejoin="round"/><path d="M415.7 441.2a1.3 1.3 0 1 0 0 2.6 1.3 1.3 0 0 0 0-2.6Z" fill="#171612" stroke="#171612" stroke-width="1.1"/><path d="M415.7 443.6v4.6c-.1 3 0 6 .1 9l.3-2.5M416.5 442.9l-.2-.5 2.2-1.1M458.6 456.2a8 8 0 0 0-.3 1l.2 1c0 .5.2 6.6.9 18.3l-.7-1" stroke="#171612" stroke-width="1.1" stroke-linecap="round" stroke-linejoin="round"/><path d="M447 461.8a1.3 1.3 0 1 0 0 2.5 1.3 1.3 0 0 0 0-2.5Z" fill="#171612" stroke="#171612" stroke-width="1.1"/><path d="M447 463c.2.1.2 3.1.2 9a10960.5 10960.5 0 0 1 0 40.2 257.1 257.1 0 0 1 0 12.3 1092.7 1092.7 0 0 0 .4 16 808.8 808.8 0 0 1 .1 17.8 296.1 296.1 0 0 1 .6 16l.4 8.8a1034.1 1034.1 0 0 1 1.1 27.8 183.8 183.8 0 0 1 0 11.5 533.8 533.8 0 0 1 .1 9.5v14.6M449.9 649.4v11a13571.4 13571.4 0 0 0 .2 33.7 609.5 609.5 0 0 1 .7 16.8 45.3 45.3 0 0 0 .5 5.3 25.6 25.6 0 0 0 .1 2.6V720.3c0 .1 0 .1 0 0v1.8l-.1-.3M957 463.4v-.2 5.5l.6-7.3M751.4 448.9v-.7s0 0 0 0l-.2 11.7M751.3 460c0-.4.2-1.3.7-2.5M753.5 448.6l-.4.6h.1v.3a44.7 44.7 0 0 1 0 1.5l-.2 9.4" stroke="#171612" stroke-width="1.1" stroke-linecap="round" stroke-linejoin="round"/><path d="M753.8 458a1.3 1.3 0 1 0 0 2.5 1.3 1.3 0 0 0 0-2.5Z" fill="#171612" stroke="#171612" stroke-width="1.1"/><path d="M750.7 460.2v-.1m0 0 .5.3m-.5-.3s0 0 0 0a11.7 11.7 0 0 0 .5.3m0 0h.2l.5.3M754 460.7l.7-.1a24.9 24.9 0 0 0 1.6-.4l6.1-2" stroke="#171612" stroke-width="1.1" stroke-linecap="round" stroke-linejoin="round"/><path d="M762.4 458.2v-.2h-.4v.1l-.3.5h-.2V456a74 74 0 0 1 .4-6.7V446h.1l-.3.3-.6.1h-.5l-2 .2a47.3 47.3 0 0 1-5 .4 40 40 0 0 1-1.7-.3h-.6l-1.6.1c0 .1.4 0 1.2-.5M745.7 442s0 0 0 0a498 498 0 0 1 0 6.9s0 0 0 0l.2-2.1" stroke="#171612" stroke-width="1.1" stroke-linecap="round" stroke-linejoin="round"/><path d="M745.5 443.6h.2a30.4 30.4 0 0 0 9.6-.4c1.1-.2 2.2-.2 3.2.2" stroke="#171612" stroke-width="1.1" stroke-linecap="round" stroke-linejoin="round"/><path d="M758.3 441.7a1.3 1.3 0 1 0 0 2.5 1.3 1.3 0 0 0 0-2.5Z" fill="#171612" stroke="#171612" stroke-width="1.1"/><path d="M758.4 442.7c.1 0 0 0 0 0l-.4.8-.2 1a7.3 7.3 0 0 1 0 1.1l-.1 2.2.3-.4M860.7 489s0 0 0 0v37.6l.2 47.3a145726.9 145726.9 0 0 0 0 34.9v48.7l.1 15.7V690a20841.5 20841.5 0 0 1 0 10v8.6s0 0 0 0v.4s0 0 0 0V709.6v-.7M919.8 493.7l.1 49 .1 76.1v36.7l.1 14.6a62007 62007 0 0 1 0 10.3v2.7a3212.1 3212.1 0 0 0 0 9v13.3-1.5M922.8 491v88.2l.1 6V636l.1 17.6V700.9a295.2 295.2 0 0 0 0 4v-1.4" stroke="#171612" stroke-width="1.1" stroke-linecap="round" stroke-linejoin="round"/><path d="M860.8 489.3H859l16 .2 22.8.4a29821.7 29821.7 0 0 1 15 .3h1.8l7 .1h.7-.4M860.3 493.6a8.2 8.2 0 0 0-.6 0l8.5.1M869.6 493.8l17.4.3 36 .6h-.6M861 709.2l11.4-.5 18.8-.6 10-.4 8.1-.3a31339 31339 0 0 0 14.2-.5M940.9 601l.3-.4.2-.2.2-.2.4-.3c.4-.2.7-.4 1-.4l.7-.1.4.1c.2 0 .3.2.5.3l.8.2h1.3l2-.3a16.8 16.8 0 0 0 4-1.5l1-.3h.5l.3.3a1.5 1.5 0 0 0 .3.3 4.7 4.7 0 0 0 .8.6l.8.2h1.3c.4 0 1-.2 1.8-.6.8-.3 1.7-.5 2.6-.6a22.3 22.3 0 0 1 3.3 0l.5.2.2.2a14.6 14.6 0 0 1 1 .5c.3.2.9.3 1.9.4a25 25 0 0 0 6.7-.3 41.2 41.2 0 0 1 5.1-.4l.3.2s0 0 0 0 0 0 0 0l.1.2c.1.2.5.3 1.1.4.7.1 1.2.2 1.5.1h1a16.9 16.9 0 0 0 1.2 0l.3-.1h.3c0-.1 0 0 0 0l1-.2 1.8-.3 1.2-.2a11.7 11.7 0 0 1 1.1 0l.4.3c.1.2.3.3.5.3a11 11 0 0 0 .8.2l.8-.5s0 0 0 0h1.1c.2 0 .4-.2.7-.6M259 612.5v-.3c0 .2.6 0 2.1-.4a52.4 52.4 0 0 1 15-1.4 1741.5 1741.5 0 0 0 15.9-.7 1676.2 1676.2 0 0 0 11-1 33.5 33.5 0 0 1 6.1.3c.6.1 1.4.4 2.4.9a20 20 0 0 0 5.9 1.5 816 816 0 0 1 15 0l7.7-.2c1.7 0 3.5 0 5.3.2a208.1 208.1 0 0 0 21 .5l3.1.1a35.4 35.4 0 0 0 10.8-1 63 63 0 0 1 8.8-1.7 92.4 92.4 0 0 1 13.4-.7l4 .6a73.7 73.7 0 0 0 12 1c1.2 0 2.5-.2 4.2-.5a36.6 36.6 0 0 1 8.4-.4 65.6 65.6 0 0 1 6.7.2h1.3a27.3 27.3 0 0 1 1.1 0 3.6 3.6 0 0 0 .1-.1v0s0 0 0 0c.2 0 .1 0 0 0h.3l.5-.1h.2s0 0 0 0c.1 0 0 0 0 0h1.3-.2M342.3 483.4v-.1c-.1-.1 0-.5.1-1.2a15.5 15.5 0 0 1 1.5-4.3c.2-.3.4-.7.8-1a77.6 77.6 0 0 0 1.8-2.1 9.1 9.1 0 0 1 1.3-1 8 8 0 0 0 .4-.3l.2-.1.2-.2h.1l.1-.1.2-.1.5-.3 1-.3a40.5 40.5 0 0 0 2.1-.5h1.4a10.5 10.5 0 0 1 1.5 0 7.5 7.5 0 0 1 1 .2 4.9 4.9 0 0 1 1 .3l.1.2h.2a4.7 4.7 0 0 1 .3.2s0 0 0 0a3.7 3.7 0 0 1 .3.2 5.5 5.5 0 0 1 .5.4 4.6 4.6 0 0 0 .9.6l.4.3a3 3 0 0 1 .4.2v.1l.5.6M361.2 475.2s0 0 0 0a1.9 1.9 0 0 1 .3.4s0 0 0 0l.2.2.1.1a1.8 1.8 0 0 1 .2.3 1.5 1.5 0 0 1 .1.1l.1.1.2.2.1.1s0 0 0 0l.3.3.3.4.2.2.3.3c.1 0 .1.1.1 0l.3.3a2.8 2.8 0 0 1 .5 1.2l.2.8M364.7 480.3v.1a32.8 32.8 0 0 1 .1.6s0 0 0 0v.3l.1.2v.1s0 0 0 0V482s0 0 0 0 0 0 0 0v.1s0 0 0 0 0 0 0 0l.1.1v.3h-.3l-.3.1M342.6 483.4a11 11 0 0 0-.1 0h0l.4.2M343.4 483.6h1.2a82.5 82.5 0 0 1 4.8-.2l2.4-.3a17.4 17.4 0 0 1 3.7-.3 23 23 0 0 1 2.5 0h1a8.1 8.1 0 0 1 1.9 0 9.5 9.5 0 0 0 1.4 0h.8a2.5 2.5 0 0 0 .5 0H363.9s0 0 0 0 0 0 0 0a3.6 3.6 0 0 1 .3 0s0 0 0 0h0s0 0 0 0 0 0 0 0h.2v-.2" stroke="#171612" stroke-width="1.1" stroke-linecap="round" stroke-linejoin="round"/><path d="M350.7 468.3s0 0 0 0v-.7a35.8 35.8 0 0 1 .6-1.8 25.1 25.1 0 0 0 .8-1.4l.6-.7.5-.3a4.2 4.2 0 0 1 1.4-.4h.5l.4.2a6.3 6.3 0 0 0 .4.5 1.4 1.4 0 0 1 .1.2s0 0 0 0l.3.7a114.3 114.3 0 0 1-.8 9v.4-1.6" stroke="#171612" stroke-width="1.1" stroke-linecap="round" stroke-linejoin="round"/><path d="M351.5 468.2v.1h0-.1 0v-.4M351.7 467.3l.4-.7a6 6 0 0 1 1.5-1.5c.1-.2.3-.3.5-.3l.6-.1h.5l.2.2s0 0 0 0l.1.1.2.3a8.2 8.2 0 0 1 0 .6 22 22 0 0 1 0 .5v.2a26.7 26.7 0 0 1-.5 3l-.7 2.8M354.3 472.9V473.2l-.1.2v.4s0 0 0 0v.2M354.3 474s0 0 0 0l.4-.2a6.9 6.9 0 0 0 .8-.4l.1-.4M351.3 465.6a7.2 7.2 0 0 0 0 0h.2-.5l-.2-.4-.2-.2-.4-.3a4.8 4.8 0 0 0-.5-.2h-.2l-.4-.2-.3-.1h-.3l-.2-.1a1.8 1.8 0 0 0-.5 0h-.1v.1h-.3a6 6 0 0 1-.8.4 44.7 44.7 0 0 0-1 .4l-.1.1-.1.1h-.2v.1h-.2l-.3.2a2.5 2.5 0 0 0-.5.3l-.3.2-.4.3-.4.4c-.2 0-.3.2-.4.4l-.3.4-.1.3a5.6 5.6 0 0 0-.3.5l-.2.6c0 .4-.1.7-.3 1v1.2a20.3 20.3 0 0 0 .2 2.4 6.9 6.9 0 0 0 .4 1.1v.1c.1 0 .1.1.1 0v.2a2.7 2.7 0 0 0 1 1.1v.1l.2.1h.1s0 0 0 0v.1l.4.2h.2c0 .1 0 0 .1 0l.1-.5" stroke="#171612" stroke-width="1.1" stroke-linecap="round" stroke-linejoin="round"/><path d="M351 466.9s0 0 0 0 0 0 0 0a7.5 7.5 0 0 0 0 .6l-.2.5a13.3 13.3 0 0 1-.3 1.2l-.2.1s0 0 0 0 0 0 0 0 0 0 0 0l-.2.2s0 0 0 0 0 0 0 0a5.6 5.6 0 0 1-.5.4 2.3 2.3 0 0 1-.3.2s0 0 0 0 0 0 0 0 0 0 0 0h-.1a3.2 3.2 0 0 1-.2.1h0a32.4 32.4 0 0 0 0 .2v.2s0 0 0 0 0 0 0 0l.2.1.1.1h.7l.4-.3a4.1 4.1 0 0 0 .4-.6l.1-.2a3 3 0 0 0 .4-.9 7.1 7.1 0 0 0 .1-.5s0 0 0 0 0 0 0 0v-.1l.1-.2.1-.2M352 467.7s0 0 0 0c0 .1 0 0 0 0v.1a2.6 2.6 0 0 1 0 .4s0 0 0 0 0 0 0 0v.5l.1.2a7 7 0 0 0 .2.4 9.8 9.8 0 0 0 .1.6 2.5 2.5 0 0 0 .1.1v.2l.1.1s0 0 0 0l-.1 1.1M352.5 471.4s0 0 0 0a15.4 15.4 0 0 1-.3.6M1118.6 462.5h0l5.2-1 12.4-2.2 15-2.7 30.2-5.5 62.2-11.3a9563509.3 9563509.3 0 0 0 259.7-47.3l67.7-12.3 34.8-6.3 14.2-2.6 5-.9 1.5-.3 2.6-.4 3.4-.7 1.8-.3 1.3-.2c.4-.1.5-.1.2 0l4.7-1-.7.2M1110.4 501s13-2 38.8-6.3l85.4-13.9 69-11.2 47.7-7.8 75-12.2 86.5-14c24.3-4 42.2-7 54-8.8l26-4.3 13.2-2.1 7-1.2 4.6-.7 4.4-.7 12.2-2-2.2.3M1113.7 602.4l34.2 1 50.6 1.5 32.3 1 94 2.9a2826861.4 2826861.4 0 0 0 193 5.8l35 1.1a237823.2 237823.2 0 0 1 68 2l10.2.4 7.5.2h-.5M1147 735c18.6 2.2 33.5 4 44.7 5.2l77.5 9a14979625.5 14979625.5 0 0 1 137.2 16l39 4.4 55.7 6.5 45 5.2 21.7 2.5 21.4 2.5 21.9 2.5 11.4 1.3 5.3.7 2.3.2 1.2.2h.9l2.8.4-1.5-.2" stroke="#171612" stroke-width="1.1" stroke-linecap="round" stroke-linejoin="round"/><path d="m1120.3 514.8-.2 14.7-.3 24.2-.2 21.6-.2 19-.2 20.3-.2 18.3-.2 19-.3 20.3v10.1l-.1 6.4-.1 7v5.8l-.1 4.3a1246.6 1246.6 0 0 1 0 6l-.1 1.6v1.6c0 .2 0 .2 0 0v3.3-.3 2.2-4.7M998.2 517.1s0 0 0 0c0 .1 0 0 0 0 .2-.2.6-.3 1-.4l1.3-.1h.9a3.5 3.5 0 0 1 .4.2h.4l.4.1s0 0 0 0h.4c.2 0 .5 0 .6.2h.2l.2.3.5.8.3.6c.1.2.4.4.8.6.4.3 1 .4 1.7.5a32.7 32.7 0 0 0 2.7.1 151.7 151.7 0 0 0 10-1.2c2-.3 3.7-.5 5-.5l4-.1a64.7 64.7 0 0 1 12.2.1 72.5 72.5 0 0 0 11.3.6 438.4 438.4 0 0 1 15 .5 289.9 289.9 0 0 0 19.1-.2 96.1 96.1 0 0 1 8.9 0 53.6 53.6 0 0 1 7.4-.3 43.4 43.4 0 0 1 2.6-.1 9.3 9.3 0 0 1 2.3.5c.2.2.5.3 1 .4a7.2 7.2 0 0 0 2.6.2 2.7 2.7 0 0 1 .5 0l.2-.2a52.7 52.7 0 0 0 1-.4l.2-.5.2-.7v-.7s0 0 0 0v-.3l.7-1.6c0-.3 2 0 6 1M995.9 717.8s0 0 0 0a40 40 0 0 1 12.3-1.1c2.6.1 5 .3 7 .6 2.2.3 3.9.4 5 .4l8.3-.1a382.4 382.4 0 0 1 32.5 1l7.8 1.3a154.9 154.9 0 0 0 35.7 1.8c1.7 0 3.4 0 5.2.3 1.8.3 3 .4 3.8.3.7 0 1.4-.1 2-.4a12 12 0 0 1 2.2-.5l.3-.2.3-.1 1.2-.6M1123 472.3l.5-.1 10.5-2 65.4-12.1 127-23.6 105.1-19.6 60.6-11.2 39.7-7.4 19.1-3.6 9.3-1.7 13.8-2.5 18.6-3.5 11.7-2.2 6.3-1.2 4-.7 8.2-1.5 11.2-2.1 7.6-1.4-.7.1M1121.2 462.5s0 0 0 0l.2 1.1a14.5 14.5 0 0 1 .1 2.9l.2 1a19.7 19.7 0 0 1 .3 2.4V471s0 0 0 0v1s0 0 0 0 0 0 0 0v.3l.3-.3M1113 474.5l.3.7c.2.3.3 1.7.3 4.2v6.2a123.1 123.1 0 0 1-.4 12.3V499.6s0 0 0 0V499.9s0 0 0 0 0 0 0 0v.2-.3" stroke="#171612" stroke-width="1.1" stroke-linecap="round" stroke-linejoin="round"/><path d="M1113.2 473.6h.7a118.3 118.3 0 0 0 2.5-.4h.3s0 0 0 0h.2a2.7 2.7 0 0 1 .3 0h.2s0 0 0 0l.1-.1h.4l.3-.2h.2a1.5 1.5 0 0 1 .4 0 .7.7 0 0 0 0 0h.3l.3-.1h.1s0 0 0 0l.6-.2h.5l.3-.1h.1s0 0 0 0h.3a10.1 10.1 0 0 0 1-.2c.2 0 .3 0 .5-.2M1115 500.7s0 0 0 0l.1 1.8a172 172 0 0 0 .3 8.8V513.8s0 0 0 0v1.1s0 0 0 0 0 0 0 0v.2-.3M1228 534.2l-.1.2v.2l-.1.1a1211.1 1211.1 0 0 0-2 6.2l-.7 2.5a43 43 0 0 0-.5 1.8l-.3 1.3-.2.6v.3l-.1.2v.1l-.2.4v.5l-.2.4v.2s0 0 0 0 0 0 0 0v.1l-.1.3-.2.5-.1.6-.3 1-.4 1.2-.2.7-.1.4v.2l-.2.4-.1.4s0 .1 0 0l-.2.4a15.5 15.5 0 0 0-.4 1.4v.2l-.2.2v.2l-.1.3.1-.3M1218.8 565.7v-.4h.1a156.7 156.7 0 0 0-2 7.5l.8-2.2" stroke="#171612" stroke-width="1.1" stroke-linecap="round" stroke-linejoin="round"/><path d="M1218.7 565.6s0 0 0 0 0 0 0 0h.2l.5-.2 1-.6a191.5 191.5 0 0 1 3-1.6m0 0s0 0 0 0 0 0 0 0 0 0 0 0Zm0 0v-.2l.2-.2V562.5l-.9 2.2c-.5 1.4-1 2.6-1.3 3.8l-.9 2.7a63.3 63.3 0 0 1-1.2 3.7M1217.8 570.5v.1s-.1.6-.6 1.7-.9 2.3-1.2 3.4h.2c0 .2.8 0 2.5-.6M1229.4 538.8s0 0 0 0l.1-.2s0 0 0 0a273.3 273.3 0 0 0-2.2 11.8l-.5 1.4a8.3 8.3 0 0 0 0 .4" stroke="#171612" stroke-width="1.1" stroke-linecap="round" stroke-linejoin="round"/><path d="M1227.7 534v-.1c.2 0 .4.6.8 1.8l.8 3.6.2-.4M1229.8 526s0 0 0 0l.6 1.3a43.6 43.6 0 0 1 2.6 7.2l.8 2.5.4 1.7a61.3 61.3 0 0 0 1 3.3l.1 1a28.2 28.2 0 0 0 .7 3.3v.3l.2.4v.2l.5 1.3-.2-1.5M1232.6 526.5h0v-.2l.6 1.2a83.2 83.2 0 0 1 1.1 3.1l.7 2.3.9 2.6.6 1.9.7 2.4a211 211 0 0 1 1.8 7 8.5 8.5 0 0 0 .3 1.3l.2.3.1.2s0 0 0 0l.2.2v.2s0 0 0 0 0 0 0 0 0 0 0 0l-.5-.9" stroke="#171612" stroke-width="1.1" stroke-linecap="round" stroke-linejoin="round"/><path d="m1230.1 525.7-.1.2s0 0 0 0v.2h.2s0 0 0 0l.1.1.9.1 1 .2.3.2h.3l.2-.4M1236.3 548.2v.1h0v-.1c.1-.1.3-.2.7-.2l2.2.2v-.2M1227.2 554h-.2.4s0 0 0 0h.3l3.3.4a144.1 144.1 0 0 1 6.9.6h1.6l1.7-.3s0 0 0 0h-.5M1221 559h2.3a465.9 465.9 0 0 0 6 .1c.4 0 1.1 0 2-.2.8-.1 3.3 0 7.4.3h0-.2" stroke="#171612" stroke-width="1.1" stroke-linecap="round" stroke-linejoin="round"/><path d="M1238 560.6v-.9s0 0 0 0 0 0 0 0c0-.2 0-.4.3-.6l.7 1.6a76.5 76.5 0 0 0 1.7 4.5 103.3 103.3 0 0 1 1.2 4l.8 2M1242.8 571.7v.2l.3.7.1.5v.2h.1v.1l.2.6M1243.7 574.5s0 0 0 0l-.2-1.1M1241 554.8v.1l.7 1.4 1 2.8.9 2.5.8 3.1 1 3.7.6 2.5a535.3 535.3 0 0 0 1 3.6M1247 574.5s0 0 0 0l-.3-.7M1243.7 574.3s0 0 0 0 0 0 0 0l.8.1h1.6c.4 0 .8 0 1.2.3M1251.8 560.2v.2c-.1 0-.1.1-.1 0v1.8a289.7 289.7 0 0 0 0 7.7v.2s0 0 0 0v.1l.1.2v.2s0 0 0 0 0 0 0 0v.7s-.1.1 0 .1h-.1v1M1251.6 573.5v1.1h0v.1s0 0 0 0l.2-1.4M1254.8 558.8v2a48.6 48.6 0 0 1-.2 9.7 107.5 107.5 0 0 0-.2 4.2l.1-1.5" stroke="#171612" stroke-width="1.1" stroke-linecap="round" stroke-linejoin="round"/><path d="M1251.5 560.7s0 0 0 0 0-.3.4-.5l.8-.7c.2-.1.4-.3.7-.3a64.2 64.2 0 0 0 .9-.4s0 0 0 0 0 0 0 0 0 0 0 0l.3-.3M1251.4 574.5s0 0 0 0h0s0 0 0 0c.1.2 1.2.4 3.2.5v-.9M1252.2 525.7v.3s0 0 0 0v.2s0 0 0 0l-.1.1v2.7a68 68 0 0 1-.3 7.8 61.8 61.8 0 0 0-.1 5 48.7 48.7 0 0 0-.2 3.3v1a167.3 167.3 0 0 0-.2 2.2V550s0 0 0 0v1.9s0 0 0 0c0 .1 0 0 0 0v1s0 0 0 0 0 0 0 0v.5h0s0 0 0 0l.2-.7M1255.4 531s0 0 0 0 0 0 0 0a176 176 0 0 1 .1 10.7v3l-.1 1V547.4l-.1 1.4.1-.8M1267.7 526.4l.1.1v.4l.4 1 .3.7.1.4a7.3 7.3 0 0 0 .1.6 9.8 9.8 0 0 0 .1.7l.3 1M1269 531.3v.2l.2.3v.3l.1.2v.4l.1.2s0 0 0 0v.1a20.1 20.1 0 0 1 .4 1.9v1.5l.1.9v1.2s0 0 0 0l-.1.3v.7l-.2.7v.4l-.1.3-.1.3-.3.7a52 52 0 0 1-.5 1.3v.2l-.2.2a4.3 4.3 0 0 0-.3.6v.1l-.1.2v.1c-.1 0-.1 0 0 0l-.2.2-.1.3h-.1l-.2.2-.2.3-.4.4-.3.2s0 0 0 0 0 0 0 0l-.3.1-.4.1-.5.2-.7.4M1264.3 547h-.1l-.3.2a4.2 4.2 0 0 0-.4.2h-.1l-.1.1h-.1l-.2.2s0 0 0 0 0 0 0 0 0 0 0 0 0 0 0 0h-.1l-.5.3a3 3 0 0 1-.8.2 21.6 21.6 0 0 1-1 0s0 0 0 0h-.5a38.3 38.3 0 0 0-1.3 0M1258.5 548.3h-.2a33 33 0 0 0-1.1-.2 2.8 2.8 0 0 0-.8-.1h-.4M1255.7 548H1255.4s0 0 0 0l.4-.5M1268.4 526.2s0 0 0 0 0 0 0 0 0 0 0 0l-.2.1s0 0 0 0 0 0 0 0v.2l.2-.3Zm0 0s0 0 0 0 0 0 0 0h-.1v.2s0 0 0 0l-.1.2M1268.7 527l.4.5a8.3 8.3 0 0 1 1.8 3.3l.4.7.5.8.4 1M1272.3 534v1.1l.1.2.1.5v2.9c0 .4 0 .8-.2 1.1a58.9 58.9 0 0 1-2.3 7.2M1269.8 547.4l-.7 1.4M1268.8 549.4v.2l-.3.3-.1.2v.1l-.2.2-.4.4-.3.3-.3.3-.3.3c0 .2-.2.3-.2.3M1266.4 552.4s0 0 0 0l.3-1M1266.5 552.2s0 0 0 0h-.1c.2 0 .6.5 1 1.6.5 1 .8 2 1 2.6l.6 1.8a102.5 102.5 0 0 1 2 5.4c0 .3 0 .5.2.7l.3 1c0 .5.3 1 .5 1.4a17.8 17.8 0 0 1 .8 2.1 14.2 14.2 0 0 1 1 2.4l.1.5.1.3a6.5 6.5 0 0 1 .2.5l.8 2.2-.8-1.4M1263.3 554s0 0 0 0l.7 1.2a87 87 0 0 1 2.5 5M1268 564.1l.1.4.2.6.2.4v.1l.5 1.2.6 1.6a28.3 28.3 0 0 0 .5 1.3v.3a179.6 179.6 0 0 0 1.4 4v.2s.1 0 0 0l.1.1.1.3v.1s0 0 0 0 0 0 0 0h0v0s0 0 0 0l.1.3v.1h.1s0 0 0 0 0 0 0 0v.1l-.6-1.4" stroke="#171612" stroke-width="1.1" stroke-linecap="round" stroke-linejoin="round"/><path d="M1251.3 553.4h.1c.1-.1.1-.1 0 0l.5-.2h1.8a48.3 48.3 0 0 0 5.4.7 39.8 39.8 0 0 0 2.8.2s0 0 0 0 0 0 0 0h.1l.6-.2v.1M1251.5 525.3h.2s.1 0 0 0l2.6.2a78.5 78.5 0 0 1 6.9.9 9.4 9.4 0 0 1 1.3 1V527.7h.1s0 0 0 0l.1.3.3.4.1.4v.7l.2.3v-.3M1254.5 530.7h-.1l1.7.1h2.3a10.3 10.3 0 0 1 2.3 0h1l.7-.1h1l-.1-.2M1271.4 574.9s0 0 0 0v-.1l3 .3v-.4M1285.6 535.2s0 0 0 0l.2 2.4a101.8 101.8 0 0 1 .1 7.8v1.9l.1 1a81.3 81.3 0 0 1-.3 10.8V569.5a137 137 0 0 0 0 3.2l.1 1.3.1 1.8v-1.9M1289.8 533.1h-.3v1.8l.2 2.4.1 1.7a86.9 86.9 0 0 1 .1 7.7v3.5a293.5 293.5 0 0 1-.2 9.7l-.1 3.8a302.3 302.3 0 0 1-.2 6.3 59.8 59.8 0 0 0 .2 3.9v1.4l-.1-.8M1286.6 534.8c-.1 0-.2 0-.3.2h-.1s0 0 0 0 0 0 0 0 0 0 0 0l-.1.3.4-.2 1-.6 1.7-1.1" stroke="#171612" stroke-width="1.1" stroke-linecap="round" stroke-linejoin="round"/><path d="M1285.8 575.5h-.3 1a22 22 0 0 1 2.4.1h.3l.3-.2.2-.3M1277 524l-.1.5-.1.8v.4l-.1.7a13.3 13.3 0 0 0 0 1.7v.4l.1-.3M1297.7 524.4s0 0 0 0l-.5 5.4" stroke="#171612" stroke-width="1.1" stroke-linecap="round" stroke-linejoin="round"/><path d="M1276.4 524.2s0 0 0 0 0 0 0 0h0l3.2.2a205 205 0 0 1 7.4.6 119.1 119.1 0 0 0 5.2 0h3.2l2.6.2s0 0 0 0l-.8-.2M1275.6 529.2h.1s0 0 0 0h3.2a46.3 46.3 0 0 1 7.3.3l3.5.1a51 51 0 0 1 7.6.6M1303.6 524.3v-.4h0l-.1 1.3a62.7 62.7 0 0 0 0 4.8 124.6 124.6 0 0 1-.2 8.7l-.1 2.9a31.2 31.2 0 0 0 0 4.1 65.6 65.6 0 0 0 .1 5.6v.4l.1.3s0 0 0 0 0 0 0 0v1.8l.1-1M1307.3 529.5s0 0 0 0 0 0 0 0v1.6l.1 2.2.1 2.1.1 2.7a156.8 156.8 0 0 1 .2 9.3v1.5l.1-1.4" stroke="#171612" stroke-width="1.1" stroke-linecap="round" stroke-linejoin="round"/><path d="M1303.3 524.2s0 0 0 0 0 0 0 0h-.1.5c.4.1.9.2 1.4.1a31.9 31.9 0 0 0 3.2-.2 26.7 26.7 0 0 1 5.8 0l2 .2a42 42 0 0 1 2.6.2M1306.7 530h-.6a70.5 70.5 0 0 1 13-.2l-.2-.3v-1.9s0 0 0 0l.2-.7c.2-.4 0-1.1-.6-2.2 0 0 0 .2.3.5M1306.7 548.3l.9-.2a197.3 197.3 0 0 0 3.6-.2l1.4-.1h2l2.2.2h1.4a57.2 57.2 0 0 1 .8 0M1303.2 553.8h-.2 3.4a349.1 349.1 0 0 0 8-.5 18 18 0 0 1 2-.4c.7 0 1.7 0 3 .4 0 0-.1 0 0 0l-.2-.2c-.4-.1-.4-1.8.1-5h0v.8M1307.2 558s0 0 0 0l.2-.1h-.3l-.2.2s0 0 0 0l-.3.1-.1.1s0 0 0 0h-.4l-.7.4c-.2 0-.3.2-.5.3l-.6.1h-.7l.4-.1M1303.9 559.3s0 0 0 0 0 0 0 0a107 107 0 0 0 .1 10.6 124 124 0 0 0 0 4.2v.9s0 0 0 0l.2-1.3M1307 558.8v-.3 1.3a144 144 0 0 0 0 7.1v3l.1-1.2M1306.2 570.3s-.1-.1 0 0h-.1l1.4.1a433.7 433.7 0 0 0 7.6.5l1.1.2a27.1 27.1 0 0 0 1.3 0M1304 575.7h-.3 3.7a23.8 23.8 0 0 1 4 .2 132.8 132.8 0 0 0 5.2.2l1-.2a6.8 6.8 0 0 1 2 0H1319.2M1319.5 571l-.1-.2.1-.4.2 1.8a54.7 54.7 0 0 1 .4 3M1325.9 524.3c-.2 0-.2.5-.1 1.6l.1 3v3.5a37.5 37.5 0 0 1-.5 5.9 137.4 137.4 0 0 1-.2 4.6v1.8l-.1 1.6v1.6a25.4 25.4 0 0 0 .2 2.5v.9l.1.9a63.8 63.8 0 0 1 .2 5.5V567.4a90 90 0 0 0 .3 6.1v1.1s0 0 0 0v.1l.1.4h0V574M1330.7 524.3h-.2l.2.5a141.7 141.7 0 0 1-.2 16.5 36.4 36.4 0 0 1-.2 3.8 59.5 59.5 0 0 0-.2 7.8v3.3l.1 1.7a862 862 0 0 0 .6 9.3v1.3l.2 1.9v-.8M1342.1 570.6s0 0 0 0 0 0 0 0v.2a71.6 71.6 0 0 0 .4 5.3l.2-1M1348.2 523.6s0 0 0 0 0 0 0 0a42.1 42.1 0 0 1 .4 3.8v1.9a128.8 128.8 0 0 1 0 2.7v1l-.2 1.7-.2 3.3v5.3l-.1 1a65 65 0 0 0 0 3V550.2a24.9 24.9 0 0 0 .1 3.4l.1 2 .2 1.3v.7l-.2 1.2-.1 1.4V567.1a20 20 0 0 1-.1 2v1.6l-.1.7v1.6s0 0 0 0 0 0 0 0v2.2a9.6 9.6 0 0 0 0-.2M1353 522.5c-.1 0-.2.3-.3 1v4l.2 1.2v2.2a102.2 102.2 0 0 1-.3 5.3l-.1 4.1-.2 3.9a47 47 0 0 0 0 6.6 76.2 76.2 0 0 1-.1 6.9 90 90 0 0 0 .3 8 34 34 0 0 0 0 2.1v1.7s0 0 0 0v1.5a82.5 82.5 0 0 0 0 2.1V575.1s0 0 0 0v.2l.2 1-.3-.3M1325.1 524.3s0 0 0 0 0 0 0 0 0 0 0 0 0 0 0 0h.2a45.9 45.9 0 0 0 3.7-.5 97.8 97.8 0 0 0 1.6 0M1347.9 523s0 0 0 0 0 0 0 0 0 0 0 0 0 0 0 0h0s0 0 0 0c0 .2.3.2.7.2a81.3 81.3 0 0 1 2.4-.2h.5a2 2 0 0 1 .4 0s0 0 0 0" stroke="#171612" stroke-width="1.1" stroke-linecap="round" stroke-linejoin="round"/><path d="M1330.5 570.2h.1s0 0 0 0l.2.1h2.8a125.2 125.2 0 0 1 8.2.1s0 0 0 0l-.6-.2M1325.4 576s0 0 0 0 0 0 0 0l2.3-.1a156.8 156.8 0 0 1 8.3-.5 212.4 212.4 0 0 0 4.3-.2l1.1.2h1l-.5-.1M1348 575.8h-.4s0 0 0 0c0 .1 1.2.2 3.7.3M1361 522.9v4.4M1361 527.7l.1.5v8.4l.1 1.2a98 98 0 0 1 .2 7.5v1.4l-.1 3M1361.3 549.7v8.2c0 .6 0 1.3.2 2" stroke="#171612" stroke-width="1.1" stroke-linecap="round" stroke-linejoin="round"/><path d="M1361.6 559.2c-.7 0-1.3.5-1.3 1.2s.6 1.3 1.3 1.3a1.3 1.3 0 1 0 0-2.5Z" fill="#171612" stroke="#171612" stroke-width="1.1"/><path d="M1361.6 560.9a9.5 9.5 0 0 0 1.2 3.4M1363.2 565.2l.1.2a4 4 0 0 1 .2.4l.2.3v.1s0 0 0 0l.1.1.4.6.3.8h.2l-.1-.7M1365.5 523.2v.2s0 0 0 0 0 0 0 0l.1 2.4a272.8 272.8 0 0 0 0 5.1l.1 1.3.1 5.2M1365.8 538.6V552.7l.1 1.6v10.3s0 0 0 0 0 0 0 0v.2s0 0 0 0V565.1s0 0 0 0c0 .1 0 0 0 0v1.9M1365.9 567V567.3s0 0 0 0 0 0 0 0v.3s0 0 0 0v.1h-.2l-.1.1-.7.5-.1-1M1360.8 523.4s0 0 0 0h.7a11.4 11.4 0 0 1 3.1-.2H1365.2M1384.2 523.3s.3-.2.9-.2M1386.4 523h.4l.6-.1H1388.3a33 33 0 0 0 1.7-.2M1384.8 523.3s0 0 0 0 0 0 0 0 0 .1 0 0v6.5l-.1.5V531.4l-.1.2v.1c0 .1 0 .1 0 0V536.4l.1 1.4v6.2l.1 2M1384.8 546V554.4M1384.8 554.3V555.2a12 12 0 0 1-.3 2.8v.8l-.2 1.4M1384.3 560.4l-.1.6-.3.8a13.5 13.5 0 0 1-.7 2M1383 564c.1.1 0 .4-.1.8l-.4 1a4.8 4.8 0 0 1-.5.8v.1l-.2.3-.3.2c0 .2-.1.3-.2.3v.2l-.2.1v.1s0 0 0 0l-.2.3M1380.5 568.8l-.1.1s0 0 0 0a5 5 0 0 1-.3.2s0 0 0 0l-.1.2a3 3 0 0 1-.4.3 8 8 0 0 0-.2.2h-.1v.1l-.2.1M1378.8 570.3l-.5.5-1 .8M1376.3 572.1l-.4.2a8 8 0 0 0-.8.4l-.2.1-.4.1h-.3l-.2.1a1.4 1.4 0 0 0-.2 0s0 0 0 0 0 0 0 0h-.1l-.2.1h-.2M1373 573.2h-.3c-.3 0-.7.1-1 .3M1371.5 573.5h-.8M1370.5 573.5h-.1a3 3 0 0 1-.8-.2l-.3-.1M1369 573.1h-1.1s0 0 0 0 0 0 0 0 0 0 0 0h-.4a14.7 14.7 0 0 1-1.5-.3s0 0 0 0 0 0 0 0 0 0 0 0h-.5s0 0 0 0 0 0 0 0c.1 0 .2 0 .2-.2" stroke="#171612" stroke-width="1.1" stroke-linecap="round" stroke-linejoin="round"/><path d="M1365.6 572.5s0 0 0 0 0 0 0 0l.2.2.4.3a6.5 6.5 0 0 1 .7.7l.8.6a10.5 10.5 0 0 1 1.5 1.2 17.2 17.2 0 0 0 .7.4H1370.2l.4.1a2.5 2.5 0 0 0 .8.1H1371.7l.1.1a3.5 3.5 0 0 0 .4.1h.7a116.2 116.2 0 0 0 2.6-.2 14 14 0 0 1 1.7-.4h.3a2.8 2.8 0 0 0 .8-.5l.3-.1.6-.4 1-.7 1.1-.7.9-.6.6-.5.6-.5.6-.6.5-.6.7-1a28.2 28.2 0 0 0 2.3-4.1l.3-.9.3-1a16 16 0 0 0 .5-1.7l.1-.5v-.3c.1 0 .2-.3.2-.7l.2-1 .2-1.2a142.9 142.9 0 0 1 .2-2.7 84.6 84.6 0 0 1 .2-4v-.8l.2-1.1v-.9l.1-.6.2-2.1M1390.3 545.6V544.7s0-.1 0 0a77.4 77.4 0 0 0 0-2.2v-2.9a41.5 41.5 0 0 0 .3-3.1v-2a14 14 0 0 0 0-2.2v-.4l-.1-.8V525.3l.1-.3v-1.3s0 0 0 0l-.1-.2M1390.4 523.4v-.4h.2M1398.5 531.2v-.1s0 0 0 0v6.3l.2 2.2a39.4 39.4 0 0 1 0 2.4v1c0 .5 0 1-.2 1.5a35 35 0 0 0-.3 8.6V560.3l.1 1.4v.8l.2 1.3a61.3 61.3 0 0 1 0 5.9v2a14 14 0 0 0 .1 1.8v.8l.2 2-.5-2.8M1403 539.6s0 0 0 0V542.3l-.2 3.5a363.8 363.8 0 0 0-.3 6.5l-.2 3.6v3.3a35.5 35.5 0 0 0-.1 4v2.1a27.7 27.7 0 0 0 .3 4.6v1.5l.1 1.5-.2 3.3s0 0 0 0c0 .1 0 .1 0 0l-.1.7-.1-.3" stroke="#171612" stroke-width="1.1" stroke-linecap="round" stroke-linejoin="round"/><path d="M1398.6 530.9h-.1v.3l.5.7.7 1.4.8 1.4a575.8 575.8 0 0 0 2.5 4.4M1398.8 576.4s0 0 0 0h-.1l.8.2a9 9 0 0 0 1-.2 4.4 4.4 0 0 1 1.7 0s0 0 0 0 0 0 0 0M1399.3 523.6s0 0 0 0v.3l1 2a269.8 269.8 0 0 0 3.8 7.3l1 1.7a88.8 88.8 0 0 1 3.4 7.3 10.6 10.6 0 0 0 1 2 14.5 14.5 0 0 0 .7 1.4l.3.5.2.3.2.5.4.8 1 1.8v-.3s0 0 0 0l-.5-.8M1403 522.7l.1.1.7.8c.4.3.8 1 1.4 2.2l1.9 3.6M1407.2 529.8a83.8 83.8 0 0 1 4.4 8.5l.7 1.5.7 1.4 1 2-.4-.8M1414.3 553.5s0 0 0 0l.4-.4.5-1 .5-.9.4-.7c0-.3.3-.8.7-1.7a35.8 35.8 0 0 1 2.4-5 168.7 168.7 0 0 0 2-4.4l1.5-2.6 2-4.2M1425.5 531.2l.5-.9 1-1.6.6-1 .4-.6a14.7 14.7 0 0 1 .5-.8l.2-.7a51.7 51.7 0 0 1 1.6-2.7M1417.3 558.3a5.7 5.7 0 0 1 0 .2v-.2h.1l.9-1.8 1.4-2.7 1-2 1.2-2c.4-1 1-2 1.7-3.1l1.6-3.4a27.7 27.7 0 0 1 2.6-5l1.3-2a35 35 0 0 0 2-3l.2-.6.2-.3v-.2s0 0 0 0 0 0 0 0l-.3.6" stroke="#171612" stroke-width="1.1" stroke-linecap="round" stroke-linejoin="round"/><path d="M1430.3 533v.2l.1.1.4 1.3.4 2 .1 2.8.3 3.9a214 214 0 0 1-.3 12.6v2.6l-.3 3.4-.2 2.8v2.3l.2 3.5a48.8 48.8 0 0 1 0 5.6v.5s0 0 0 0v.8M1436 521.9v-.1l.1 1.9a58.4 58.4 0 0 0 .7 6.3 100.4 100.4 0 0 0 .1 4.7v8.8a90.3 90.3 0 0 1 .1 8.7 39.7 39.7 0 0 1-.2 7 258.5 258.5 0 0 0-.5 10.3V572.6l-.2 2.5-.3 2.8M1435.8 578v.3s0 0 0 0l-.4-1.4M1430.3 522.1h-.1s0 0 0 0 0 0 0 0l.6.1h1.2l.7-.1a43.8 43.8 0 0 1 3 0M1398.8 523.5s0 0 0 0l1-.1M1402.5 523.1a16.3 16.3 0 0 1 .7 0h.4a4.6 4.6 0 0 0 .2 0l-.2.1" stroke="#171612" stroke-width="1.1" stroke-linecap="round" stroke-linejoin="round"/><path d="m1430.3 577.4-.1-.1s0 0 0 0 0 0 0 0h.5a24.5 24.5 0 0 0 3.7.2l1.9.1h0l-.4-.3M1398.5 523.3s0 0 0 0 0 0 0 0v.1h1.1a86.6 86.6 0 0 1 4 0M1414.1 542.7s0 0 0 0l-.3 1.8c-.4 1.2-.7 2.6-1 4.1h0l.1-.5M1413.8 553s0 0 0 0l.3.2.7 1.2a34.6 34.6 0 0 0 1.4 2.8l.3.6.1.4s0 0 0 0" stroke="#171612" stroke-width="1.1" stroke-linecap="round" stroke-linejoin="round"/><path d="M1416.8 557c-.7 0-1.3.5-1.3 1.2s.6 1.2 1.3 1.2a1.3 1.3 0 1 0 0-2.5Z" fill="#171612" stroke="#171612" stroke-width="1.1"/><path d="M995.7 719s0 0 0 0h2.8a163.3 163.3 0 0 1 11.9.3 275.8 275.8 0 0 1 11 .3 494.2 494.2 0 0 0 15.2.6l7 .4a76.1 76.1 0 0 0 11.8.2 41 41 0 0 1 6.2.2 138.1 138.1 0 0 1 17.4 2 606.7 606.7 0 0 0 31.2 2.3 792.8 792.8 0 0 0 28 2.5h4.1c1.3 0 3.9 0 7.7.2-.3 0-.8 0-1.3.2M1118.2 719a5 5 0 0 0 .4.4s0 0 0 0 0 0 0 0l1.9.6a82 82 0 0 1 7 2.4c.7.2 1.8.4 3 .4a43 43 0 0 1 12.4 2.8l2.6.6 1.9.5 2 .4h.1l-.3-.1" stroke="#171612" stroke-width="1.1" stroke-linecap="round" stroke-linejoin="round"/><path d="M1147.3 727.6h.3a145.5 145.5 0 0 1-.6 13.4 96.6 96.6 0 0 0-.2 7.7M1146.8 748.8s0 0 0 0 0 0 0 0v-1.5M994.2 719.5h.3l.8.1a27.1 27.1 0 0 1 1.9.4c.4 0 1.8.5 4.4 1.4 2.5.8 4.4 1.6 5.7 2.1a185 185 0 0 0 23.2 7.6 21.4 21.4 0 0 1 4.5 2.3 69.5 69.5 0 0 0 10.7 3.1 112 112 0 0 1 13.5 3.3 2960.4 2960.4 0 0 1 37 10.1c1.5.4 3 .7 4.4.7" stroke="#171612" stroke-width="1.1" stroke-linecap="round" stroke-linejoin="round"/><path d="m1098.6 751-.1-.1.2-.3c.1-.2.6-.3 1.4-.3a15.6 15.6 0 0 0 3-.1l.9-.2.9-.1a50.4 50.4 0 0 1 12.6-.7 27 27 0 0 0 4.8-.7l3.3-.1c1.8 0 3.5-.2 5.2-.4l4.2-.6h3.6a144.8 144.8 0 0 1 6 .7s0 0 0 0 0 0 0 0a6 6 0 0 0 .9-.2h-.1l1.2-.3v-.2" stroke="#171612" stroke-width="1.1" stroke-linecap="round" stroke-linejoin="round"/><path d="M1005.8 521c-.7 0-1.3.5-1.3 1.2s.6 1.3 1.3 1.3c.7 0 1.3-.6 1.3-1.3 0-.7-.6-1.3-1.3-1.3Z" fill="#171612" stroke="#171612" stroke-width="1.1"/><path d="M1006.2 523.8a101.9 101.9 0 0 1 .2 5l.2 1.7v.9l.1.6v2.8l-.1.4-.2 1a101.2 101.2 0 0 1-.4 4.1 75.5 75.5 0 0 1-.4 6.5v1l-.1.7a161.3 161.3 0 0 0 .2 19.1 82.4 82.4 0 0 0 0 8.7v5.9a57.8 57.8 0 0 0 .4 8.6l.2 3v7.1l-.1 3.8-.1 3-.1 4.1a134.6 134.6 0 0 1-.3 13v5.7l-.2 6.6a124.7 124.7 0 0 0-.2 12 79.6 79.6 0 0 0 0 6.2v3.8l.1 2.9V672a103.6 103.6 0 0 1 0 6.8v6.1a206 206 0 0 0 .1 10.6l.1 2.3a67.7 67.7 0 0 1-.1 7.8l-.1 3.1v2.1l.1.8.1 1.3v.5a30 30 0 0 0 .1 2.3l-.3-.5" stroke="#171612" stroke-width="1.1" stroke-linecap="round" stroke-linejoin="round"/><path d="M1016.2 519.1a1.3 1.3 0 1 0 0 2.5 1.3 1.3 0 0 0 0-2.5Z" fill="#171612" stroke="#171612" stroke-width="1.1"/><path d="m1016.4 523.1.1 2a87.3 87.3 0 0 1 .1 8.9 154.3 154.3 0 0 0 .7 14.1 183.7 183.7 0 0 1 0 14 172.8 172.8 0 0 1-.1 12.9 505.7 505.7 0 0 0 0 16.3l.2 7a380.1 380.1 0 0 0 .4 12 262.4 262.4 0 0 1 0 7.6l.1 3.6.2 4.8v7.8a834.7 834.7 0 0 1-.5 26.7 412.7 412.7 0 0 0 0 16.5 1947.3 1947.3 0 0 1-.3 15.4v3.3a206.2 206.2 0 0 0 .2 12.5 158.7 158.7 0 0 1 0 5.3v3.3h-.1l-.2-1.3M1023.6 519.4s0 0 0 0V522.8l.1 1.5.1 5.2.2 6.6a151.7 151.7 0 0 1 0 5.3v1l.1 1a101.4 101.4 0 0 1 .2 9.2l-.2 7v3.4a116.1 116.1 0 0 1-.2 6.3v3l-.1 2.3-.1 3.8v5a622.8 622.8 0 0 0 .3 16.4l.1 6 .1 4a280 280 0 0 1 0 20.1 245.5 245.5 0 0 0 0 13.9 1517.8 1517.8 0 0 1 0 11.7l-.2 4.4v4c.2 1.3.2 4.2.2 8.5v9.8l-.2 6.3v6.9l.1 6 .1 3.2V707l.1.9v3.3a170 170 0 0 1-.1 3.4v.6a4.5 4.5 0 0 1 0 .8V717.2s0 0 0 0l-.3-1M1037.4 518.8v1.8l.4 2.6a41.5 41.5 0 0 1 .9 7l.3 3.2a58 58 0 0 1 0 10.6l-.2 2.6a192.4 192.4 0 0 0-.5 10.7 432.3 432.3 0 0 0-.4 25.1 619.5 619.5 0 0 1 0 19.5v30.2a117.8 117.8 0 0 0 .1 9.6 429.8 429.8 0 0 1 0 10.4l.1 12.8a1530 1530 0 0 1 0 23.7l-.2 3.4v3.1l-.2 4.2c-.1 2.1-.2 3.7-.1 4.8V715.6c0 .2 0 .2 0 0v1.7l-.3-1.3M1044.9 519.6v.2c0 .2.1.2 0 .2.3.3.3 1 .2 2.3a151.3 151.3 0 0 1-.8 7.9v3.1l.2 3.7.3 5.1.3 10.2a474.6 474.6 0 0 1 0 31.3 7336.3 7336.3 0 0 0 .1 36.7 300 300 0 0 1-.7 19.6 210.2 210.2 0 0 0 0 8.7v2.2a249 249 0 0 1-.3 9.1l-.2 6v4.3c0 1.4 0 3.2-.2 5.6a158 158 0 0 0-.3 18 33.5 33.5 0 0 1-.1 5.8l-.1 4.6v3.9a240.7 240.7 0 0 1-.1 6v4s0 0 0 0v.2l-.2-.4M1052.7 520.1v1.5a82 82 0 0 0 1.4 10.8l.2 2.6V538.6a70.4 70.4 0 0 1-.2 5.1l-.1 1.8a134 134 0 0 0-.3 12.9l-.3 8-.2 12.8v8.7a134.2 134.2 0 0 1-.6 14.6 889.6 889.6 0 0 0-.5 15c0 1.5 0 4 .2 7.5l.3 8.3a91.6 91.6 0 0 1 0 8.2 302.7 302.7 0 0 1-.4 20l-.3 5.3-.4 6.3a371.3 371.3 0 0 1-.5 6.7 177.9 177.9 0 0 0-.1 14.5v5.6l.1 2.9a149 149 0 0 0 .2 5.6V711s0 0 0 0v1.3a126.2 126.2 0 0 0 0 4M1060 520.9s0 0 0 0l.3.5.3 1a21.2 21.2 0 0 1 .2 2.5l.2 3.8a268.8 268.8 0 0 0 .5 12.5l.1 3.8.1 4.1v4l.1 4.8.1 8.6a356 356 0 0 0 .3 16.3l.2 3.8a216.8 216.8 0 0 1-.1 21.5l-.2 2.8a120.2 120.2 0 0 0-.4 11.4c0 1 0 2.5-.2 4.7M1061.5 632.7l-.2 4a724 724 0 0 0-.9 36l-.3 3.8-.4 7.5a414.5 414.5 0 0 1-.3 14.8v4.5a149.9 149.9 0 0 1-.1 7.4v3.5s0 0 0 0V716.5s0 0 0 0l.1.9s0 0 0 0M1069.8 521s0 0 0 0 0 0 0 0 0 0 0 0 0 0 0 0 0 0 0 0v1s0 0 0 0v.4l.1 1.3.2 1.9.2 1.3v1l.1.8a135.4 135.4 0 0 1 .6 10.7 72 72 0 0 1 .4 6.3v3.4M1071.5 553.8a28.6 28.6 0 0 1 0 3.9l-.2 1.8a59.5 59.5 0 0 0 0 8V574.8a299.3 299.3 0 0 1-.8 18.6l-.3 6.6-.2 5V611.7l-.3 5.4a510.2 510.2 0 0 0-.3 13.6 177329.7 177329.7 0 0 0-2.3 44.3v9a708.8 708.8 0 0 0 0 13.5v5.2l-.1 3.4a135.6 135.6 0 0 0-.2 8.5 295.7 295.7 0 0 0 0 2.5l-.1.3v.4s0 0 0 0h-.1l-.1.9M1077.2 520.8s0 0 0 0 0 0 0 0v.9c.1.3.2 1.1.2 2.4M1077.4 530.4l.2 3.3v5.7l-.2 4.3c0 1 0 2.2-.2 3.5V565.8a369 369 0 0 0-.3 13l-.4 11-.4 6.8-.1 3.8-.1 3a253.8 253.8 0 0 0 0 8.3 74 74 0 0 1-.5 6.9M1075.2 623l-.2 3.2a1800.7 1800.7 0 0 0-1.4 21.9c-.3 2.5-.4 4.6-.4 6.1v4.4a160 160 0 0 1-.2 8v5.1a1647 1647 0 0 1-.2 13.8l-.2 4.6a221.8 221.8 0 0 0-.1 19.8V714.7a50.3 50.3 0 0 0 0 4.8v1l.2.8-.4-1.7M1084.8 521.3v.5a550.8 550.8 0 0 1 1.5 22.4v6.9a79.5 79.5 0 0 1-.3 9.9l-.1 2.5-.2 1.9a65 65 0 0 0 0 12 296.6 296.6 0 0 1 .2 11.9 404.4 404.4 0 0 0-.3 12c0 2-.2 4.4-.4 7.3a228.5 228.5 0 0 0-.7 17v3.6a109 109 0 0 1-.5 12.5l-.2 3.4-.2 2.5a207.4 207.4 0 0 0-.5 9.4M1083 664.1v13.7l-.2 4.7-.2 6.3a160 160 0 0 0 .2 16.8 146.6 146.6 0 0 1 0 7.9v.4s0 0 0 0 0 0 0 0V717.1s0 0 0 0v4.5l-.3-1.4M1092.8 520.5a216.4 216.4 0 0 1 1.2 13.5l.4 4.1v5.4a120.8 120.8 0 0 1-1.2 14l-.2 3.2-.4 4a120 120 0 0 0-.7 15.3v6.8a120.9 120.9 0 0 1 0 15.2 493.2 493.2 0 0 0-.2 23.6 169.5 169.5 0 0 0-.2 19v5a112.6 112.6 0 0 0-.3 9.2v3.4a810.2 810.2 0 0 1 .3 24l-.1 3.8v6.2a453.6 453.6 0 0 1 .2 19.8V718.3v-.2 2.2h0v.9s0 0 0 0l-.3-1M1100.7 521.8l-.3.4c-.1.5 0 1.3.2 2.2a36.2 36.2 0 0 1 1.3 7.5 50.1 50.1 0 0 1 .1 4.3v4.5a271 271 0 0 0 .1 11.2v6.3a603.8 603.8 0 0 1 0 12.7 1121 1121 0 0 1-.8 18.3V608a1155.9 1155.9 0 0 1-.8 41.8 1253.3 1253.3 0 0 1-.6 20.2 121 121 0 0 1 .2 11.4 414 414 0 0 1-.9 23.6 75.6 75.6 0 0 0 .2 10.2v.8s0 0 0 0v.2a10.8 10.8 0 0 0 0 1.4v.7s0 0 0 0 0 0 0 0c0 .1 0 .1 0 0v.5a33.4 33.4 0 0 0 0 1.5v.5s0 0 0 0l-.2-.7M1108.7 521.3l-.2.1v.5s0 0 0 0v.5M1108.7 523.5l.2 1.8a46 46 0 0 1 .2 8.5l-.2 6-.2 3.4v1.5a148.5 148.5 0 0 1-.5 12.9l-.2 4c-.2 1.7-.2 4.5-.3 8.5v9.9c0 2.6 0 5.4-.3 8.4a266.2 266.2 0 0 0-.6 21v7.4l-.2 4.3a380 380 0 0 0-.8 18.8l-.2 6v3.9l-.1 4.1-.2 5.7-.3 8.3-.3 7.7-.1 5.5a112.9 112.9 0 0 1-.5 9.2 383.1 383.1 0 0 0-.4 10.9v3.8a58.3 58.3 0 0 0 0 6.8l.1 1.8V716.2c0 .2 0 .2 0 0v3s0 0 0 0l-.3-1.4M1113.6 517v-.2l.1 1.4a31.8 31.8 0 0 1 0 4.5v1.8a104.4 104.4 0 0 1 .6 11.7 201.8 201.8 0 0 0 .3 6.9v10.4a1682.5 1682.5 0 0 1-.5 18.2l-.2 4.1a264 264 0 0 1-.8 14.2l-.2 2.7v1.8l-.2 4.2-.4 5.3c-.2 1.3-.2 3.4-.2 6.2v6.4l-.1 3a231.3 231.3 0 0 1-.4 6.5l-.4 7.6-.3 7.5-.3 5.4-.2 7-.3 7.7-.2 5.4-.2 3.9a126 126 0 0 0-.3 5l-.2 4.2v5.6a115.5 115.5 0 0 1-.2 4.7v2.6a176.8 176.8 0 0 1-.3 7.6 143.8 143.8 0 0 0-.2 10.7v1a14.3 14.3 0 0 1-.1 2v.6s0 0 0 0 0 0 0 0 0 0 0 0l-.1.3v.8l-.1.5a2.3 2.3 0 0 0 0 .3l-.1.2v1.1l-.1.6-.1.3v.4s0 0 0 0 0 0 0 0a97.4 97.4 0 0 1-.4 3l-.3-.7M715 479.7v-.1l.2-.1.2-.1H715.7s0 0 0 0h.5a18.7 18.7 0 0 0 3.2 0l3.2.2a178 178 0 0 0 24.2.7h1.4a3.1 3.1 0 0 0 1.2-.3h.1-.5" stroke="#171612" stroke-width="1.1" stroke-linecap="round" stroke-linejoin="round"/><path d="m749.4 477 .1 1.2v2c0 .6.2 1 .3 1.5M746 478h.2v-.3l.1-.1h.1s0 0 0 0l.1.4a63.7 63.7 0 0 1 .6 10.3v5c0 1.4 0 3.5-.3 6.2a102.5 102.5 0 0 0-.3 16.2v1.8l.1 6.7M746.4 526.2a525.4 525.4 0 0 1 .3 10.5 174 174 0 0 0 .3 8.6 176.8 176.8 0 0 0 .5 10.6 95.6 95.6 0 0 0 .1 6.5 189.9 189.9 0 0 1-.2 18.1 47.5 47.5 0 0 1-.2 6.4 86.7 86.7 0 0 0 0 11.8 157.1 157.1 0 0 0 0 3.6v.2l.2 3.6M747.3 608.4v4.4a182.2 182.2 0 0 1-.8 12.6 375 375 0 0 0-.3 12.2 47.9 47.9 0 0 0 0 6.8 92.3 92.3 0 0 1 0 4.6v1.1l-.2 2-.1 3a42.5 42.5 0 0 0 .3 5.7 54.7 54.7 0 0 0 .6 6.7M746.8 668.4l.5 7.6M747.2 678.8c0 .2 0 .2 0 0l.5 8.3M747.7 691v1.3a52.9 52.9 0 0 1-.2 5.5M747.4 698.1l-.2.8a19.4 19.4 0 0 0-.2 1.7c0 .2 0 .8.3 1.8M747.2 703.5l.1 2c.1 1.3 0 4.2-.1 8.4M747.1 714.2c0-.2 0-.2 0 0M720.3 713.6h-.3 1a26.6 26.6 0 0 0 5.8-.5 30.6 30.6 0 0 1 5-.4h2.7a71.8 71.8 0 0 0 6.7-.2 50.9 50.9 0 0 1 3.2 0h.3a41.2 41.2 0 0 1 1.3.1s0 0 0 0a8.1 8.1 0 0 0 .5 0h.2s0 0 0 0 0 0 0 0H747" stroke="#171612" stroke-width="1.1" stroke-linecap="round" stroke-linejoin="round"/><path d="M746.9 711.3a1.3 1.3 0 1 0 0 2.6 1.3 1.3 0 0 0 0-2.6Z" fill="#171612" stroke="#171612" stroke-width="1.1"/><path d="M720 715.3s0 0 0 0l1.6-.2a212.9 212.9 0 0 1 8.6-.4l2.2-.2a38.6 38.6 0 0 1 5.3 0 46.4 46.4 0 0 0 5.1-.3 24.1 24.1 0 0 0 2 0H745.4a62 62 0 0 1 1.3-.1M746.7 714v.2M746.5 714.2l.2-.1-.1.1M746.6 714.2s0 0 0 0M465.3 455.8a4.6 4.6 0 0 0 0-.3v3.3a264.4 264.4 0 0 1 0 13 70.3 70.3 0 0 1-.4 9.3c.1 0 0-2.1-.4-6.1M458.7 455.7s0 0 0 0 0 0 0 0c-.2.2-.3 1.2-.3 3.2a126.9 126.9 0 0 0 .7 14.1l-.1 1.9a26.6 26.6 0 0 0-.1 5.8l-.2-5M455 456.6H454.7c0 .1.8 0 2.4-.7M701.3 459.5s0 0 0 0a249 249 0 0 0-1.1 24.3 18.7 18.7 0 0 1 0 .8M709.5 459.6l-.3 2.2a52.2 52.2 0 0 0-.6 11.1 500.6 500.6 0 0 0 .3 10.2s0 0 0 0l-.1.8h-.3l.1-1.7M432.8 571s0 0 0 0v.7a327.8 327.8 0 0 1 .4 6M433.2 580.4a52 52 0 0 1 0 3.8 664.3 664.3 0 0 0-.1 12.7l.6-.1M433.8 596.8h.3l1-.3a103.5 103.5 0 0 1 4.3-.6h.2a7 7 0 0 1 .8 0h.5a6.7 6.7 0 0 1 .7 0h.2a1.6 1.6 0 0 0 .2 0h.7s0-.5-.4-1.3M432.8 571a26.3 26.3 0 0 0 .4.3c0 .2.5.2 1.5.2a116.3 116.3 0 0 1 7.9-.2v-.3M441 571.6l-.1.1s0 0 0 0v2.2M441 575s0 2.3.3 6.7" stroke="#171612" stroke-width="1.1" stroke-linecap="round" stroke-linejoin="round"/><path d="M441.3 583.7a232.3 232.3 0 0 1 0 9v3.2l.1-1.3M370.6 483.3h-.2s0 0 0 0c0-.2-.3-.2-.8-.2l-1.4-.1a70.1 70.1 0 0 0-7.3-.4 310.8 310.8 0 0 0-10.7.2l-1.7.1a57.2 57.2 0 0 0-4.2.6 24.7 24.7 0 0 1-3 .6l-1.5.4-1.6.4c-.3 0-.7.3-1 .5l.5.3 1.9.4 1.9.3 1 .1.9.1a146.1 146.1 0 0 0 3.6.4h1.6l1 .2a116.4 116.4 0 0 0 6.7.2 24 24 0 0 1 3.7 0 33.3 33.3 0 0 0 10.4-1.7s0 0 0 0l.2-.2-.1-.9c-.1-.4-.4-.8-.7-1.2l-.2.2M237 418.8s0 0 0 0a190.6 190.6 0 0 1 .4 12.3c0 2 .1 4.6.5 7.7 0 0 0 0 0 0l.2-2.5M238.2 437.9a2.3 2.3 0 0 1-.2 0s0 .1 0 0l.3.2c.3.2.9.2 1.7.2l1.9-.1a53.6 53.6 0 0 1 5.5-.7l4.1-.5c1.2-.1 2.6-.5 4.1-1.2l-.4-.4M214.5 440.2s0 0 0 0l.1 2.5a140.2 140.2 0 0 0 .6 8.8h0l.4-1.4M223 438.6s0 0 0 0a64 64 0 0 1 .1 8.2l-.3 6.6c.1 0 .3-.6.5-1.7" stroke="#171612" stroke-width="1.1" stroke-linecap="round" stroke-linejoin="round"/><path d="M215 448.3v2.1c0 1.1 0 2.2.2 3.3a69.3 69.3 0 0 0 1.5 6 11.5 11.5 0 0 1 .4.6c0 .2.2.3.3.4a4.9 4.9 0 0 0 .5.4s0 0 0 0l.2.1c.1 0 .1 0 0 0h.2l.6.3a5 5 0 0 0 .9.3 5.2 5.2 0 0 0 .7.2l.8.3 1.5.3c.5 0 1-.3 2-1M221.4 462.7s0 0 0 0h-.1l11.2.2M235.4 463l.4-.1h1.4a14.6 14.6 0 0 1 2.1 0M221.9 453.5a64 64 0 0 1 12.6.7M235.3 454.2h1a110.8 110.8 0 0 1 2.2 0l3 .6v0h-1M238 465.2v.1c0 .1 0 .2.1.1h.3l.2.1s0 0 0 0l.3.1.8.6M240.5 467.2c.2-.4.5 1.3 1 5.3M241.6 475l.1 1.6-.1 3.4" stroke="#171612" stroke-width="1.1" stroke-linecap="round" stroke-linejoin="round"/><path d="M241.6 480.2a1.3 1.3 0 1 0 0 2.6 1.3 1.3 0 0 0 0-2.6Z" fill="#171612" stroke="#171612" stroke-width="1.1"/><path d="M241.7 482.1v1a81.7 81.7 0 0 0 .5 9 57.8 57.8 0 0 1 0 4 606.8 606.8 0 0 0 1.2 20.4 66.9 66.9 0 0 1 .2 5 175.3 175.3 0 0 1 .3 12.3c0 1.8 0 4-.2 6.3l-.2 6.6a1310.4 1310.4 0 0 1-.5 12.9 1758.4 1758.4 0 0 1-.2 21.5 118.4 118.4 0 0 0 .4 11.3 81.6 81.6 0 0 0 0 5 48.4 48.4 0 0 1-.4 7.4l-.9-4M240.2 455.8h-.2l.2-.4 1 .6 1.1.6 1.5.6 1.2.5a88.2 88.2 0 0 1 3.4 1.7 103.8 103.8 0 0 1 2.4 12.2c.3 2.4.4 8 .3 16.5M251.3 492a37.3 37.3 0 0 1 .2 3.7 184.5 184.5 0 0 1 .3 13.8 634.9 634.9 0 0 0-.2 16.3 139 139 0 0 1-.5 10.9 128.6 128.6 0 0 0-.4 6.8 93 93 0 0 0-.4 10.2 828.3 828.3 0 0 0-.4 32.8l-.1 1c0 .1 0 5.9.3 17.2M250.3 609.4l-.1 6.4a10835.6 10835.6 0 0 0-.6 20.7v7.2l.6 7.6.6 7.1c.2 1.7.2 3 .1 4.2a47 47 0 0 0-.2 7.3v3.7a61.5 61.5 0 0 0 .5 13.3M251.4 688.5l-1.6 8.3M249.8 698.9c-.5.3-.6 3.7-.4 10.2M249.4 709.2l.2.9a69 69 0 0 1-.1 5.2v2.4M250 719c-.2 0 0 .4.6 1.4 0 0 0 0 0 0v-.6M28.6 603.9s0 0 0 0v-.1c.5-.2 1.6 0 3.5.6 1.8.5 4.2.9 7.1 1.2a186 186 0 0 0 11.3.6 2172.4 2172.4 0 0 0 20-.6 683.1 683.1 0 0 0 37.4-.2 663 663 0 0 1 24 .8 163.6 163.6 0 0 0 12 0l7 .4a201.5 201.5 0 0 0 22 .8h9.2a223.1 223.1 0 0 1 19.7.2 83.3 83.3 0 0 0 14.7-.5 13222.3 13222.3 0 0 1 14-1.3 102.6 102.6 0 0 0 7.8-.5h.2s0 0 0 0c.1 0 .1 0 0 0h1.6l-.4.3M31 623.5l-.2-.4c.2-.2 1.8-.4 4.6-.6a160.5 160.5 0 0 1 15.1-.2 948.7 948.7 0 0 0 25.7-.6 2304.2 2304.2 0 0 1 19.7-.1 1253.6 1253.6 0 0 0 18.7-.5 541 541 0 0 1 22.5 0 658 658 0 0 1 33.5 1.1 510.7 510.7 0 0 0 21.1.7 202.1 202.1 0 0 0 13.7.3 309.6 309.6 0 0 1 22.6 1.3 61.1 61.1 0 0 0 8.6-.1l-1.4.5" stroke="#171612" stroke-width="1.1" stroke-linecap="round" stroke-linejoin="round"/><path d="M27.5 629h1.1a939.6 939.6 0 0 1 27.4-1.7h7.6a542.9 542.9 0 0 0 27.2-.6 1218.2 1218.2 0 0 1 22.5-.3 236.6 236.6 0 0 0 18.3-1 1811 1811 0 0 0 20-.9 383.1 383.1 0 0 1 24.3 0 2069.7 2069.7 0 0 0 40 0 139.1 139.1 0 0 1 24.9.5 246.8 246.8 0 0 0 2.8 0c-.6 0-1.6 0-3 .5M25.5 646.7l.6-.4s0 0 0 0l4 .1a2053.2 2053.2 0 0 0 53-.9 1831.9 1831.9 0 0 1 49.9.2 7726.9 7726.9 0 0 0 23.2-.5h6.7a609.7 609.7 0 0 0 28.1-.4 456.2 456.2 0 0 1 27.6.1 299.7 299.7 0 0 0 17.3-.2 530.2 530.2 0 0 1 4.5 0l-.4-.1a3 3 0 0 0-1-.3c-.5 0-.8.1-1.2.4M28 649.8l.5.1c.3.2 1.1.2 2.5.2a56.8 56.8 0 0 0 6.9-.5l6.7-.2a816 816 0 0 0 26-1 777.4 777.4 0 0 1 23-.3 633 633 0 0 0 26.6-1 395 395 0 0 1 28-.5 433.7 433.7 0 0 1 30.2.2 9147.1 9147.1 0 0 1 23 .2 741.3 741.3 0 0 0 26.5-.5l3 .2a68.3 68.3 0 0 0 7.5-.4l-.4.3M29.8 669.6a15 15 0 0 0 1.1.3 45.8 45.8 0 0 0 .6.1 85.1 85.1 0 0 1 7.1-.2H43a2337.7 2337.7 0 0 0 35.5-1.3 482.5 482.5 0 0 0 29.7-1.4 583.2 583.2 0 0 1 26.6-1.1 676.6 676.6 0 0 0 13.7-1 155.6 155.6 0 0 1 11.6-.2 1189.8 1189.8 0 0 1 36.5.4l7.2.2h9.2a1075.9 1075.9 0 0 1 18.6 0 71 71 0 0 1 14 .2l-.6-.3c-.3-.2-1.9 0-4.8.5M30.4 673.5h-.6l-.2-.1h3.1a226 226 0 0 0 16.6-.5 1511.9 1511.9 0 0 0 42.3-2 2577.2 2577.2 0 0 0 43.9-1 454.3 454.3 0 0 0 18.6-1.4 184 184 0 0 1 23-.6 3320.8 3320.8 0 0 1 34 0 1423.2 1423.2 0 0 0 31.8-.4l-.2.5h0M31.1 692.1h.5c.2 0 1.7-.3 4.5-.5a100.2 100.2 0 0 1 11.1-.5 160.5 160.5 0 0 0 6.7-.3 417.3 417.3 0 0 1 24.4-.1H92.7a2882.5 2882.5 0 0 0 25.9-.8M186 689.3a568.3 568.3 0 0 0 51.1-1.4s0 0 0 0a38.6 38.6 0 0 0 .3.3M30.8 695c.4-.2 1.4-.2 3 0a55.3 55.3 0 0 0 6.8.3 450.7 450.7 0 0 0 17.5 0 863.8 863.8 0 0 0 12.7-.4 2800.8 2800.8 0 0 0 24.8-1.3 519.4 519.4 0 0 0 23.5-1.2" stroke="#171612" stroke-width="1.1" stroke-linecap="round" stroke-linejoin="round"/><path d="M186 689.6h2a167.9 167.9 0 0 1 15.3-.1l4.5.1c1.8.1 4.7 0 8.7-.4a623.7 623.7 0 0 0 14.3-1.3 190.7 190.7 0 0 1 7 0 47.2 47.2 0 0 1 4.6.7M30 717.6l-.3-.2a199.3 199.3 0 0 1 12.5-.9 230.9 230.9 0 0 1 13.9-.5 417.3 417.3 0 0 1 16.4-.4 734.5 734.5 0 0 0 11.9-.3h4a173.6 173.6 0 0 0 16.8-1 379.7 379.7 0 0 1 44.5-2.4 1923.6 1923.6 0 0 1 22.3-.5 1694.8 1694.8 0 0 0 15.7.4 251 251 0 0 1 13.6.6 354.1 354.1 0 0 0 17.4-.2 45.4 45.4 0 0 0 6-.8 43.9 43.9 0 0 1 8.1 0h1a6.1 6.1 0 0 0 1.7 0 6 6 0 0 0 1.2-.2 16.6 16.6 0 0 0 1.3-.4s0 0 0 0 0 0 0 0 0 0 0 0 0 0 0 0h.7l.6-.2.4.1" stroke="#171612" stroke-width="1.1" stroke-linecap="round" stroke-linejoin="round"/><path d="M238.8 605.4a1.3 1.3 0 1 0 0 2.5 1.3 1.3 0 0 0 0-2.5Z" fill="#171612" stroke="#171612" stroke-width="1.1"/><path d="M239 606.2v-.4h.7c.4 0 .8 0 1.3.2l1.1.6c.3.2.4.4.4.5a2.2 2.2 0 0 1 .1.4l.1.7.2 2.3M243 611v.3a97.1 97.1 0 0 0 .2 4.2 26.4 26.4 0 0 0 .3 3.2v1l.1.1a49 49 0 0 0 .2 2v.2s0 0 0 0 0 0 0 0v.8a2.4 2.4 0 0 1 0 .2v.2a2.2 2.2 0 0 1 0 .7l-.1.1-.4.5M243 624.8h-.1m0 0v-.6l.2.6h-.2Zm0 0v-.8M243.8 626.2s0 0 0 0 0 0 0 0v.2l.5.3c.1.3.3.5.3.8l.1.4s0 0 0 0v1.8a502.3 502.3 0 0 1-.3 11.2v.2s0 0 0 0v.2a1.5 1.5 0 0 1-.1.3s0 0 0 0v.1l-.5.7-.2.4s0 0 0 0v.1l-.2.3s0 .1-.1 0l-.1.3c0-.2-.1 0-.4.6h-.8c0 .2-.7.4-2 .7v0h.2M239 647.2s0 0 0 0 0 0 0 0h.3l.8-.1a61.2 61.2 0 0 0 2.5.2 2.6 2.6 0 0 1 .7.7s0 0 0 0 0 0 0 0l.5.6M243.8 649a59.8 59.8 0 0 1 0 10.1M243.8 659.5a6.8 6.8 0 0 1 0 .9 3.4 3.4 0 0 0 .1.7v.3a5.7 5.7 0 0 1 0 1.4v.1c.1 0 0 .3 0 .8" stroke="#171612" stroke-width="1.1" stroke-linecap="round" stroke-linejoin="round"/><path d="M243.5 663.3a1.3 1.3 0 1 0 0 2.5 1.3 1.3 0 0 0 0-2.5Z" fill="#171612" stroke="#171612" stroke-width="1.1"/><path d="M242.4 667.7s0 0 0 0 0 0 0 0 0 0 0 0h.2l.5.2c0 .2.2.2.2.2s0 0 0 0 0 0 0 0v.1c.2 0 .4.2.8.5l.7.6a5.1 5.1 0 0 1 .5 1v2a1773.7 1773.7 0 0 0 .1 8 32.4 32.4 0 0 1-.8 6.2v.7s0 0 0 0l-.1.1a11.8 11.8 0 0 1-.6.9M243.7 688.5l-.5.2v-.7M243 692.1h-.1a192.2 192.2 0 0 0 .5 7.8 153.3 153.3 0 0 0-.1 4.5 84.7 84.7 0 0 0-.8 3.1l-.1.2a83.3 83.3 0 0 1-.3.5l-.1.3a21 21 0 0 1-.6 1l-.1.2s0 0 0 0c0-.1 0 0 0 0l-.2.2a6.7 6.7 0 0 1-.2.2 5.5 5.5 0 0 1-.5.5h-.3l-.1-.5M241.6 691.9v-.1a657.6 657.6 0 0 0-5-.7H233a1024 1024 0 0 0-21.5 1 22.1 22.1 0 0 1-1.1.2 62.7 62.7 0 0 0-1.8.2 60 60 0 0 0-13 .5 88.8 88.8 0 0 1-4.1-.4 70.3 70.3 0 0 0-6.3-.1M116 689.5s0 0 0 0 0 0 0 0c0 .3.4.5 1.4.6h2.4a24.3 24.3 0 0 1 2.6 0 27.1 27.1 0 0 0 1.7.3 14.5 14.5 0 0 0 3.5.5l1.4-.2a22.1 22.1 0 0 1 4.5-.2 88 88 0 0 0 13.8-.4 74.7 74.7 0 0 0 5.5 0 80.6 80.6 0 0 1 4.3.2 29.2 29.2 0 0 0 4.1-.3l3.1-.3a74.4 74.4 0 0 0 7.6-.1 108.2 108.2 0 0 1 7.4 0 10.8 10.8 0 0 1 2-.2h1.4a7.6 7.6 0 0 0 .8.1 171.6 171.6 0 0 1 2.5.2h-.2" stroke="#171612" stroke-width="1.1" stroke-linecap="round" stroke-linejoin="round"/><path d="M116.5 693.1s0 0 0 0h.8a37 37 0 0 0 3.2-.1 68.4 68.4 0 0 1 8.7.3 55.8 55.8 0 0 0 10 0h3.6a181.2 181.2 0 0 1 11.2.1 48.7 48.7 0 0 0 6.5-.4 115.5 115.5 0 0 0 11-.6 41.6 41.6 0 0 0 7.5.3 12 12 0 0 1 1.8 0 8.4 8.4 0 0 0 1.2 0s0 0 0 0 0 0 0 0 0 0 0 0 0 0 0 0h.1a167 167 0 0 1 .4 0s0 0 0 0 0 0 0 0h.1a28.6 28.6 0 0 0 1 0l2.6-.2M105 495.9c-.1-.2-.2-.1-.3.2l-.2.9c0 .2 0 .4.2.6l.2.6.2.9v4a113.2 113.2 0 0 0 .3 15.7 150 150 0 0 0 0 9 230.1 230.1 0 0 1-.5 12.5 514 514 0 0 1 0 13.9 1302 1302 0 0 0 .4 7.3M105.4 562.2v4.7a157.7 157.7 0 0 1-.4 13.4 77 77 0 0 0-.5 11.5 78 78 0 0 0 .5 9.2s0 0 0 0v.2h0c0 .2-.2-.2-.7-1M152.8 489.9l-.2-.4c.3.4.5 2.2.5 5.4a616.8 616.8 0 0 1 .3 38.3M153.4 535.9v1.4a1809.7 1809.7 0 0 0 0 11c0 1.9.2 3.8.4 6M154 556.5a26 26 0 0 0 0 3.6v1.2l.3 4.6M154.4 569.8v4.6a37.3 37.3 0 0 1 0 1.2 106.6 106.6 0 0 1 0 8.5 488.7 488.7 0 0 0 0 8.8 313 313 0 0 0-.2 13l-.6-2.7" stroke="#171612" stroke-width="1.1" stroke-linecap="round" stroke-linejoin="round"/><path d="M104 496.7h-.2l.8-.7a61 61 0 0 1 5.9-4 649.8 649.8 0 0 0 9.6-4.7c1-.5 2.6-.8 5-1a764.2 764.2 0 0 0 12.3-.4c.6 0 1 0 1.5.2l.7.4 1 .4 1.3.3.9.2a10.3 10.3 0 0 0 2.4.5 5 5 0 0 1 2.4.7l.3.2h.2v.1a6.4 6.4 0 0 1 1.6.7 5.3 5.3 0 0 1 1.1 1 2.7 2.7 0 0 1 .4.5v.2s0 .1 0 0l.2.4.2.3s0 0 0 0 0 0 0 0M111.4 500.9s0 0 0 0 0 0 0 0l2-.5c1.2-.3 2.4-.4 3.4-.5a432.8 432.8 0 0 1 13.7-.3l5.7-.3M111 501.7c0-.1 0-.3.3-.4a545.3 545.3 0 0 0 .9 25.1l-.1 5a150.3 150.3 0 0 0-.3 14.3 194.9 194.9 0 0 0 0 6.2l-.3 5.4M111.5 558.2v10.6a50 50 0 0 0 0 3.2 946.7 946.7 0 0 0 .3 15.4M111.8 588.2V594.8c0 .2 0 .2 0 0l-.1 1.6a111.7 111.7 0 0 0 0 5.3M134.8 500.2v-.4 1.4M135.1 505.2a127.4 127.4 0 0 1 .4 17.4 93.8 93.8 0 0 1-.5 12 72.9 72.9 0 0 0 0 10.2 324 324 0 0 1 0 11.6 271 271 0 0 1 0 6v1.9a336.1 336.1 0 0 0 0 7.2" stroke="#171612" stroke-width="1.1" stroke-linecap="round" stroke-linejoin="round"/><path d="M134.8 572.8a1.3 1.3 0 1 0 0 2.5 1.3 1.3 0 0 0 0-2.5Z" fill="#171612" stroke="#171612" stroke-width="1.1"/><path d="M134.8 574.6a172.1 172.1 0 0 1 0 10 4114 4114 0 0 1 0 16.3c0 .6 0 1.7.2 3.2v-1M139.6 507.8l-.4 11.2M139.1 524.7a186 186 0 0 1 0 4.2 205.8 205.8 0 0 1-.2 14 149.4 149.4 0 0 0-.2 11 1168.7 1168.7 0 0 1 0 17.4 136.8 136.8 0 0 0 .1 10.4 119.7 119.7 0 0 0 0 8.7 310.7 310.7 0 0 0 .4 14.8l-.2-1.8M150.2 505.2l.2 5.5a2286 2286 0 0 0 .2 17.6v2.7a64 64 0 0 0 .3 8.4v2.9a387.5 387.5 0 0 1 .2 13.7 222.6 222.6 0 0 0 .1 8.5l.2 2.5c0 .8 0 2 .2 3.6" stroke="#171612" stroke-width="1.1" stroke-linecap="round" stroke-linejoin="round"/><path d="M151.6 571a1.3 1.3 0 1 0 0 2.5 1.3 1.3 0 0 0 0-2.5Z" fill="#171612" stroke="#171612" stroke-width="1.1"/><path d="M151.6 572a1.3 1.3 0 1 0 0 2.4 1.3 1.3 0 0 0 0-2.5Z" fill="#171612" stroke="#171612" stroke-width="1.1"/><path d="M151.6 573.3v3.7a2321.7 2321.7 0 0 0 .2 12.2M151.8 589.2v1a419.7 419.7 0 0 1 0 13.5M151.7 604.2v1.6c.1 0 0-.5-.5-1.9M133.4 499.9s0 0 0 0l.4-.1.9.1h3.4a44.2 44.2 0 0 0 4-.6h1.8a19.7 19.7 0 0 0 2.7 0h.6a17.7 17.7 0 0 0 1.2 0h.9M149.8 500v-.3a114 114 0 0 0 .5 7l.1.1.1-1M139.6 504.3s0 0 0 0l.6.2a528 528 0 0 1 9.2-.4M139.6 504.8s0 0 0 0V504.5s0 0 0 0 0 0 0 0v1.1c0 .9 0 1.8.2 2.8 0 0 0 0 0 0v-.2M50.4 502.8s0 0 0 0m0 0v.3-.3s0 0 0 0 0 0 0 0Zm0 0c.1 0 0 0 0 .1l-.2.2M49.6 503.8l-1.6 1.7a62.6 62.6 0 0 1-5.7 5.1M41.8 511l-.3.4-.4.7.4-.2" stroke="#171612" stroke-width="1.1" stroke-linecap="round" stroke-linejoin="round"/><path d="M41.1 511.6c-.1 0-.2-.1-.1 0v-.3h.1c.1 0 .4 0 .7.2a3.6 3.6 0 0 1 1.3 1 16.8 16.8 0 0 1 1.6 1.9c.3.3.5.6.8.7a17.3 17.3 0 0 0 1.2.7 18.3 18.3 0 0 0 .9.7 16 16 0 0 1 1.1 1 5.4 5.4 0 0 1 1.2 1.1l.1.2.4.5.5.5.4.3h.1s0 0 0 0l.2.2a1.8 1.8 0 0 1 .2.1s0 0 0 0l.3.2h.1s0 0 0 0h.1l.2.1s0 0 0 0l.6-1.7a45.5 45.5 0 0 0-.3-15.1c-.2-.3-.3-.6-.5-.7a1 1 0 0 0-.3-.3h-.2v-.1a1.9 1.9 0 0 0-.2-.1s0 0 0 0H51l-.2.2s0 0 0 0l-.5.2.1-.5M70.8 500.4h-.2v.1l-1.8 2.2M68.2 503.3l-.5.6-1 1a12.5 12.5 0 0 1-1.2 1.1l-.6.6a29.2 29.2 0 0 0-1 1.1l-.4.3-.4.3a17.8 17.8 0 0 1-1.4 1.1h-.1v.1l-.2.1a6.8 6.8 0 0 0-.2.3l-.7.7c0 .2.9.9 2.4 2.1M63.5 513.2c-.2 0 0 0 .4.4.3.5.8.8 1.3 1.1.5.3 1 .8 1.5 1.4M67 516.3v.1l.6.5.8 1" stroke="#171612" stroke-width="1.1" stroke-linecap="round" stroke-linejoin="round"/><path d="M68.7 516.9a1.3 1.3 0 1 0 0 2.5 1.3 1.3 0 0 0 0-2.5Z" fill="#171612" stroke="#171612" stroke-width="1.1"/><path d="m68.7 518.1.3.3.4.3.2.1s0 0 0 0l.1.1.3.2.1.2h.1a4.2 4.2 0 0 1 .3.2s0 0 0 0h.4v-.1l.1-.3.2-.5a62.6 62.6 0 0 0 .4-1.3l.3-4.5M72 512.7l-.2-5.6M71.8 506.2v-.3l-.2-1-.3-2c0-.6-.3-1.3-.6-2 0-.1 0-.2.3-.3" stroke="#171612" stroke-width="1.1" stroke-linecap="round" stroke-linejoin="round"/><path d="M91.4 497a1.3 1.3 0 1 0 0 2.5 1.3 1.3 0 0 0 0-2.5Z" fill="#171612" stroke="#171612" stroke-width="1.1"/><path d="M91.4 498.3h-.1c0 .2-.1.2 0 .2l-1.4 1.6a78.4 78.4 0 0 0-3.2 3.7l-1.2 1a502 502 0 0 0-1.5 1.1l-.3.3-.2.3a5.8 5.8 0 0 1-.7.6l-.2.2-.4.4-1.8 1.8" stroke="#171612" stroke-width="1.1" stroke-linecap="round" stroke-linejoin="round"/><path d="M80.2 508.5a1.3 1.3 0 1 0 0 2.5 1.3 1.3 0 0 0 0-2.5Z" fill="#171612" stroke="#171612" stroke-width="1.1"/><path d="M80.2 509.7c0 .2.1.3 0 .2l.3.2.8.5a38.3 38.3 0 0 1 2 1.4 6 6 0 0 0 1.6 1.5l1 .7.8.7a16.8 16.8 0 0 1 .8.4l.5.2a3.7 3.7 0 0 1 1.5 1l.2.3.2.1.3.3M90.3 517.2a2.1 2.1 0 0 0 .2.2s0 0 0 0l.6.3a8.2 8.2 0 0 0 .6.4h.2l.4-.7c.2-.5.3-1.3.4-2.4a32.8 32.8 0 0 1 .7-4.7 8.6 8.6 0 0 0 0-1.5 32.3 32.3 0 0 1-.1-3.1c0-.4 0-.7-.2-.8a4.2 4.2 0 0 1-.3-1.1 24.2 24.2 0 0 0-.7-2.8 6.3 6.3 0 0 1-.4-1.1 32.2 32.2 0 0 1-.2-1l-.1-.1v-.1s0 0 0 0l-.1-.1s0 0 0 0M169 489.2l-.1-.2-1 1.5a48.3 48.3 0 0 1-4.6 6 19.5 19.5 0 0 0-2.3 2.6 29.5 29.5 0 0 1-.7.8l-.3.3a14.5 14.5 0 0 0-.5.5 35.1 35.1 0 0 0-1.6 2h-.1s0 0 0 0l-.1.2v.4s0 0 0 0l.2.2a270.6 270.6 0 0 1 11.9 9.3 4.4 4.4 0 0 1 .6.4s0 0 0 0h.2l.4-1.4.7-3.6a177.4 177.4 0 0 0 .4-6.2l-.1-2.4a39.8 39.8 0 0 1-.5-5.3 8.8 8.8 0 0 0-.1-1l-.2-.4a3.2 3.2 0 0 0 0-.1l-.2-.2c-.1 0-.3-.2-.4-.5l-.3-.8v-.5l-.1-.2a1.8 1.8 0 0 0-.4-.4l-.2-.3a1 1 0 0 1-.3-.5s0 0 0 0l.3.2M196.7 486.8l-.2.2c-.2 0-.2.1-.3.2 0 0 0 0 0 0l-.2.2-.1.1-.1.1-.2.2-.3.4-1 1.2a318.5 318.5 0 0 0-2.8 3.4 42.1 42.1 0 0 1-3.9 3.8 33.9 33.9 0 0 0-1.4 1.8 27.5 27.5 0 0 1-1.1 1.2 2 2 0 0 0-.2.8s0 0 0 0 0 0 0 0v.7l.3.5a8.8 8.8 0 0 1 .3.3l.8 1 1 1.4 1 1a385 385 0 0 0 3.6 3.2M192.3 508.8h.1l.3.2.5.2.4.2M194 509.8s0 0 0 0a3.7 3.7 0 0 0 .5.4 2.8 2.8 0 0 0 .3.2 2.6 2.6 0 0 0 .2.2h.2a3 3 0 0 1 .4.4.8.8 0 0 0 0 0l.3.2a15.3 15.3 0 0 0 .6.3s0 0 0 0h.2s0 0 0 0h.2s.1 0 0 0c0 0 0 0 0 0h.2v-.1a7.3 7.3 0 0 0 .2-.4v-.6l.2-1.9a291 291 0 0 1 .5-10v-1.8l-.1-1.3-.2-1.3a28 28 0 0 0-.4-5.7l-.1-1-.2-.9.4.3M230.3 482.6l-1 1a34.2 34.2 0 0 0-1.8 2.5 28 28 0 0 1-2 2 91 91 0 0 1-4.4 4.7l-1.2 1.7a11427.8 11427.8 0 0 1-2 3.4s0 0 0 0V498.7l.2.2.2.1s0 0 0 0 0 0 0 0l.5.4 1 .8 1 .8 1 .9a12.7 12.7 0 0 0 2.3 2l.9.7a9.5 9.5 0 0 0 1.5 1.5l.4.4.1.3.4.4.6.4a8.7 8.7 0 0 1 .5.2h.2a12.8 12.8 0 0 1 .3.3s0 0 0 0h.2l.4.2h.6l.5.1.3.2.2.1s0 0 0 0h.1s0 0 0 0 0 0 0 0h.1c.1.1.2 0 .4-.1l.2-.6.3-1 .3-1.1a15.6 15.6 0 0 0 .7-4 36.8 36.8 0 0 1 .5-3.5l.1-2.2a50.3 50.3 0 0 0-.2-6.7l-.4-1.2-.4-1-.2-.7c0-.2 0-.4-.2-.7l-.4-.7a8 8 0 0 1-.2-.3l-.2-.2v-.4l-.2-.3c0-.1 0-.2-.2-.2l-.8-.6c-.1 0 0 .3.4.7M242.9 531.9s0 0 0 0 0 0 0 0h.2l.7.2 2.2.2a115.1 115.1 0 0 0 10-.3" stroke="#171612" stroke-width="1.1" stroke-linecap="round" stroke-linejoin="round"/><path d="M243 532.1h0s0 0 0 0l.2.1.1.4a50.6 50.6 0 0 0 .9 1.5l.6.4c.4.2 1 .3 2 .2h2.6a53 53 0 0 0 6.4-.6s0 0 0 0l.1-.1.2-.3a1 1 0 0 0 0-.7l-.2-.4-.2-.8h.3M45.1 455.7v-.1s0 0 0 0c-.3 0-.3.6 0 1.8l.8 2.9c.2.8.5 1.5 1 2.3a13.7 13.7 0 0 0 2 3l.5.6 1 1-.5-.8M47.6 456.3h-.1l-.2.3v.7l.2.9a22.8 22.8 0 0 0 1 2.7 14 14 0 0 0 2.6 4.2l1.5 1.6 1.2.9-.1-.8M68.2 452s0 0 0 0 0 0 0 0l-.2.3v.2s0 .1 0 0c0 0 0 0 0 0s0 .6.3 1.5a42.5 42.5 0 0 0 1.4 4.4l1 1.7 2 2.7M72.8 462.8s0 0 0 0l-.4-1.4M70.2 451.8l-.2.2.2 1.2a14.1 14.1 0 0 0 1.2 3.6 38.7 38.7 0 0 0 2 3.6l1.4 2c.4.6 1 1 1.4 1.2.2 0 .2-.2 0-.4M92.2 448c0 .2-.1.3 0 .2v2c0 .4.3 1.2.6 2.3M93.2 453.6l.2.6M93.5 454.6l1 2 3 4.5-.8-2M94.3 447.7h-.1v1.5c0 .4.2 1 .5 1.9a23.4 23.4 0 0 0 3.2 6.6 35.3 35.3 0 0 0 1.9 2.2l.3.1.2-.2-.1-.7M121 443.1s0 0 0 0l-.1.1-.1.2v1.4l.3 2.2a35.5 35.5 0 0 0 5 9.1l-.6-1.7M123 441.9l-.2.1v.2a16.4 16.4 0 0 0 .1 3 13 13 0 0 0 1.2 4.3 52.7 52.7 0 0 0 3.8 6.2l1 .9c.1.2.4.3.6.3v-.1M150.1 437.4v.8l.3 1.5a75 75 0 0 0 1.6 6.5 24.7 24.7 0 0 0 3.4 5l.5.5.4.2-.5-1.2M152.5 436.3c-.2 0-.3.4-.3 1a16.5 16.5 0 0 0 .5 3.7 8094.5 8094.5 0 0 1 2.2 6 11 11 0 0 0 1.6 2.7l.8 1 1.1 1M177.5 434s0 0 0 0 0 0 0 0v.1a59.5 59.5 0 0 1 .8 3.5 29.7 29.7 0 0 0 2.5 6l.3.6a6.5 6.5 0 0 0 .3.4 46.6 46.6 0 0 0 1 1c-.2-.1-.4-.5-.7-1.1M179.5 433l-.2.5v1.5a17 17 0 0 0 .4 2l.1.4a9.2 9.2 0 0 0 .5 1.3c0 .3.3.7.5 1.3l1.3 2a23.5 23.5 0 0 0 3.1 3.3s0 0 0 0l.1-.2M204.3 428.4h0s0 0 0 0 0 0 0 0l.1.2s0 0 0 0v.2a16 16 0 0 0 .2 1.4 132.6 132.6 0 0 1 .8 5l.8 1.9a38.1 38.1 0 0 0 3 3.9M206.3 428.6l-.1.2v.7a39.5 39.5 0 0 1 .7 4 35 35 0 0 0 1 3.3 30.4 30.4 0 0 0 2.2 4.2l1.2 1.2M665.3 57a196.1 196.1 0 0 0-3.3 2.8l-12.4 11-38.2 34.1-40.3 35.9-20.8 18.5a304348.2 304348.2 0 0 1-73.5 65.5l-15.2 13.6a224876.5 224876.5 0 0 1-41.3 36.7l-15.7 14-31.6 28.2-36 32.1-17 15.2-6.8 6-2.6 2.3-2 1.8-4.8 4.2-7.3 6.5c-2.5 2.3-4.6 4-6.1 5.5l-3.9 3.4-3 2.8-4.3 3.7-5.9 5.2-5.2 4.7-2.8 2.5-1.7 1.5-4 3.6-4.6 4-2 1.9-.7.6-.4.4c-.2.1-.2.1 0 0l-.3.2-1.3 1.1c-.5.5-1.2 1.2-2.3 2l-2.6 2.4-2 1.8-8.8 7.8 2.4-2M659 47.9l-6.6 6-12.2 10.9-32.9 29.4-63 56.6a11154361.7 11154361.7 0 0 1-100.4 90l-17.3 15.5a255549.4 255549.4 0 0 1-20.8 18.6L376 301.5l-36 32.4a420149.7 420149.7 0 0 1-38.2 34.2 126381.7 126381.7 0 0 0-22.3 20l-8.4 7.5-4.2 3.7-3.7 3.3-4.7 4.3-5.6 5-6.3 5.6-4.6 4.2a55602.6 55602.6 0 0 1-2.4 2M663.7 46.4l-.5-.5-.2-.3L674.7 59l17.8 20.5 13.7 15.8 12.4 14.3 11 12.7a88959 88959 0 0 1 21 24.3l29.1 33.4 39 44.8 23.3 27 16 18.4 13 14.9c3.3 4 6.3 7.3 8.8 10.2l5.5 6.3 2.9 3.4 10.2 11.7a555217.6 555217.6 0 0 0 30 34.6l11 12.7 5.7 6.5a14166.8 14166.8 0 0 0 16.2 18.7l5.8 6.7 7.4 8.5a46627.6 46627.6 0 0 1 10.7 12.3l5.8 6.8 6 6.8 7.8 9M1006.2 441l1.7 2 3.8 4.4 1.8 2 .4.6s0 0 0 0l.3.3.8.9.3.4-.2-.2.9.9-2.4-2.7" stroke="#171612" stroke-width="1.1" stroke-linecap="round" stroke-linejoin="round"/><path d="M662.1 56.6a222030.6 222030.6 0 0 0 32.3 37.2l16.3 18.8 9.7 11.2 13.9 16 48.4 55.8 58 66.9 27.7 31.8 11.7 13.4 6 7a7138.9 7138.9 0 0 1 22.1 25.5l32.8 37.7 24 27.7 10.7 12.3 4.2 5 1.7 1.8 1 1.1.5.6-.2-.1 1 1 2 2.4 2 2.4 1.7 1.9 1.2 1.3.2.3 1 1 1.7 2.1 1.5 1.7.9 1 1 1.2.8 1s0 0 0 0l.7.8 7.8 8.9h0" stroke="#171612" stroke-width="1.1" stroke-linecap="round" stroke-linejoin="round"/><path d="M1025.5 446.3a1.3 1.3 0 1 0 0 2.5 1.3 1.3 0 0 0 0-2.5Z" fill="#171612" stroke="#171612" stroke-width="1.1"/><path d="M1024 447.7h-.1.2v.1s0 0 0 0 0 0 0 0c.2.2-.2.4-1.3.5a87.3 87.3 0 0 0-11.7 2l-.8.2a42.3 42.3 0 0 1-2.6.1 54.8 54.8 0 0 0-2.3.2M1013.1 453.5s0 0 0 0c.1.1 0 .1 0 0l.3.4.3.5s0 0 0 0a7.8 7.8 0 0 1 1 2c0 .3.2.6.3.8l.1.3.1.2.3.4.1.1.1.1a15.8 15.8 0 0 0 1.4 1.7l1.2.7a56 56 0 0 0 8.1 2.8h.8a8 8 0 0 0 .8-.1s0 0 0 0h.3a7.3 7.3 0 0 0 .8-.3 5.1 5.1 0 0 0 1.3-.7l.3-.3.2-.2.2-.2.6-.7.3-.6.2-.3.1-.3a5.9 5.9 0 0 1 .3-.7s0 0 0 0l.5-1.2a50.4 50.4 0 0 1 1.2-2.7v-.3.2l.7-2.4a3 3 0 0 0-.7-.2h-.8a438.7 438.7 0 0 1-6.5-.2 550.1 550.1 0 0 0-7.6-.3c-.7 0-1.4 0-2.1.2a50.1 50.1 0 0 0-2.5.5l-.5.2h-.2c-.1 0-.1 0 0 0l-1.4.2h.3l.2.2-.1-.1.5.2M1015.3 460.6s0 0 0 0h-.1l-1.1-.4c-.6-.2-1.3-.3-1.9-.3a122.5 122.5 0 0 0-2 0 106 106 0 0 0-10 .9 7.7 7.7 0 0 1-1.4-.1h.2-2.4c.5 0 1 0 1.6-.3" stroke="#171612" stroke-width="1.1" stroke-linecap="round" stroke-linejoin="round"/><path d="M1010.9 460.3s0 0 0 0h-.1v-.2 8.5l.2.5v.8s0 0 0 0h0v.2s0 0 0 0v.3s0 0 0 0l-.1.6h0l-1.8 1-2 1a10.2 10.2 0 0 0-2.3 1l-.7.4a42.7 42.7 0 0 1-2.7 1h-.3l-1 .5-2.2 1.9h0s0 0 0 0l2.2-1.8" stroke="#171612" stroke-width="1.1" stroke-linecap="round" stroke-linejoin="round"/><path d="M1018.4 460.4s0 0 0 0l-.2.1a60.3 60.3 0 0 0-.5 7.9v.7l-.1.3a28.7 28.7 0 0 1-.2 1.4 11.6 11.6 0 0 1-.4 2.2 13.8 13.8 0 0 0-.3 1.4l-.2 1-.5 1.4a8 8 0 0 1-.7 1.4l-.6.3a17.6 17.6 0 0 1-1.6.9l-.3.2-1.1.6a15.6 15.6 0 0 1-2.2.8 11 11 0 0 0-2.5 1.5 21.7 21.7 0 0 1-2 1.5 5.8 5.8 0 0 1-1.5.5 16 16 0 0 0-1.3.3h-.4s0 0 0 0l-.2.2a5.3 5.3 0 0 0-.7.3l-.3.2-.7.5a145.1 145.1 0 0 0-3 1.6l1.2-1.5M456.4 482.4h0s0 0 0 0a4874.4 4874.4 0 0 0 .5 48.2l.5 37.7.2 19 .2 12.6a190944.5 190944.5 0 0 0 .4 41.4l.3 19.5.2 17.4.1 9.8v7.6a46443.7 46443.7 0 0 0 .4 28.2M474.9 489.3l-.1-6.7a448307 448307 0 0 0 1.4 117l.5 40.5.2 19.3.1 11.8.2 15.8.2 14.5v6.8l.1 4.8v5l.1 4.2v-1M486 507.3l.7 56.4 1.1 90 .5 42.7.2 16.9v5.8l.1 2.4a3450.2 3450.2 0 0 0 0 2M499.4 484.2a646.5 646.5 0 0 0 0 9.5l.4 26.2.3 25.3.2 18.2.2 11.6.1 15.4.3 18.2V619l.2 7.8.1 13.6.2 15.4.2 12.4v9.6l.1 5.5.1 8.9.2 11.5.1 10.7v-.6M514.9 484.3v-1 7.2l.6 45.2.7 61.7.5 39.5.3 25.8a217174.2 217174.2 0 0 0 .3 23.4v5.4l.1 8 .1 6.3v7.6l.1 3.8v3.1s0 0 0 0v1.4a58.6 58.6 0 0 1 .1 2.4v-.1a305 305 0 0 1 0-.9M522.5 484.1v-.7a69915.6 69915.6 0 0 1 1 89.2l.9 75.5.4 34.6.2 13.4v5.4l.3 19.2v-2.8M538.7 487.4v0-.7l.6 51.2 1 79.8.5 40.8.2 20.6.2 15.5.1 11.1v4.6l.1 2V717.4s0 0 0 0a98.6 98.6 0 0 0 0 .8l.1 7v-3.6M550.7 493.6h0a31675.4 31675.4 0 0 1 .5 43.4l.4 35.1.6 44.9.6 48.8.2 23.4.2 10.4v10.1l.1 1.1a77.3 77.3 0 0 1 0 2.5v4l.1 3a6328.9 6328.9 0 0 0 0 3.2M566.7 484.4v-1 2.3l.3 23.3.6 52 .6 46.4.3 23.4.2 16.5.2 20.2.3 22.3.2 16.6v8.7l.1 3.5v5.5a1023.5 1023.5 0 0 0 .1 1M576.6 486.6v-.8l.6 51.8a1594566.6 1594566.6 0 0 1 1.8 149.8l.1 9 .3 27.2v-1.3M589.4 485.6a144.3 144.3 0 0 1 .1 7l.2 14.8.4 33.5.5 41.8.3 24.1.2 17a530115.4 530115.4 0 0 1 .5 45.7l.2 11.4a37107.9 37107.9 0 0 0 .3 28l.2 16v-1.4M607.2 485.1v5.2l.2 8.4a30146.3 30146.3 0 0 0 .8 70.1l.6 47.6.6 54.4.3 25.6.2 11v11.1l.1 4.7v-.8M613.7 484v-1.8l.2 19.4.4 30.6.2 19.7.3 26.6.5 37.9.3 27.3.2 12.4a8720.4 8720.4 0 0 0 .1 14.6l.2 12.2.1 11.3.1 9a5355 5355 0 0 1 .2 19.6s0 0 0 0c0-.1 0 0 0 0v.5-1M627.6 489.9v-2 .9a285411.7 285411.7 0 0 1 1.1 97.8l.6 47.3.4 32.8.2 17.6v8.2l.1 4v5l.2 6.3v11l.1 1.9v3.8-1.7M642.4 481.1v0-.2 5.7l.5 39.7a1024725.7 1024725.7 0 0 0 1 84.4l.2 19 .3 22.4.3 24.4.1 12 .1 9 .1 8.5.1 5v3a22510.8 22510.8 0 0 1 .1 7.5v2.9-.7M653.1 486.5V485v5.7l.2 11.4.6 49.8.8 66 .4 32.2.1 13.3.1 6v6.1l.2 7.7v7.4l.1 5.8.1 7.7a149388.1 149388.1 0 0 1 .2 16.4M664.7 495v-.7 5.6l.5 35.2.5 44.5.3 22.6.1 10 .1 8 .2 18 .3 21.8.2 17.1a50878.3 50878.3 0 0 0 .2 20.8l.1 7.5.1 6.1v4.4a4548.7 4548.7 0 0 0 0 1.1v1.1l.1 2.1v3.3-1M676 489.3a90591.5 90591.5 0 0 1 1.1 86.2l.3 21.4.2 22.5.2 15.8a20512.7 20512.7 0 0 1 .3 19.8c0 4.3 0 10.8.2 19.5l.2 20.4.2 10.7v11.6l.1 4.4v-1M684 486.9v-1l.3 27.2.5 43.1.2 22.5.4 30 .4 37.4.3 21.4.2 15.7.1 13.8.1 7v3.7a4210.7 4210.7 0 0 0 .1 6.8v2.3a80.8 80.8 0 0 0 0 1.1v.6l.1.7v4.7-1.4M692 488.1v2.1l.3 19.1.3 25.9.2 13.7c0 3 0 7.8.2 14.5l.1 16.8.5 41.7.7 53.1.3 25.7.1 10.4v4.4l.1 5.8v-1M704.6 489.8v-1.3l.3 21.9.5 41.9.3 28.6.4 30.2.5 42.6.4 31.3.1 13.5.1 6.3V712.6l.1 4.4.1 8.1V724M843.2 480.2s0 0 0 0 0 0 0 0 0 0 0 0V481.2v-.1l-.2 2.4a177 177 0 0 0-.2 7.4l-.3 3.1M842.5 495.4v2.1a99.5 99.5 0 0 0-.3 9.2c-.2 1.5-.2 3.3-.2 5.5a309.8 309.8 0 0 1-.2 13.2l-.1 1.8a31.5 31.5 0 0 0 0 4.7v2.4a90.3 90.3 0 0 0-.1 5 450.3 450.3 0 0 0 0 27.3v1a57 57 0 0 1 .2 5 435.5 435.5 0 0 0 .4 5.2 148.4 148.4 0 0 0 .2 9.2 221.8 221.8 0 0 1 .1 14.4 296.5 296.5 0 0 1 0 11.2 944.4 944.4 0 0 0 0 7.8 42.4 42.4 0 0 0-.4 5.3 66.7 66.7 0 0 1-.6 7.8 166.3 166.3 0 0 0-.6 11.7v1.1a108.9 108.9 0 0 1-.2 4.7v3.9a1490.4 1490.4 0 0 0 .1 8.6 277.5 277.5 0 0 0 .4 6.1 217 217 0 0 1 0 8.9l.1 2.5.1 1.6a12 12 0 0 0 .2 2.6 4.2 4.2 0 0 1 0 1v.4a18 18 0 0 1 0 1.5 20.7 20.7 0 0 1 0 3 10 10 0 0 1 0 1.3v.8s0 0 0 0v4.3a14.2 14.2 0 0 0 0 1.2v2c0 .9 0 1.7-.2 2.4l-.5 5.2M841 709.2v1.6c0 .6 0 1.2-.3 1.8M840.7 712.6v.4a31 31 0 0 0 .2 1.9 36 36 0 0 1 .2 2.4v.2s0 0 0 0c0 .1 0 0 0 0l.2.8M841.3 718.6v3M841.2 721.6l-.2-1 .2 1Zm0 0v-.5l-.3-.8M631.4 97.9s0 0 0 0l.4.2 1.7.3a92 92 0 0 1 4.3.7 54.8 54.8 0 0 0 7 .7l1.2.1M647.3 100.2a61.6 61.6 0 0 0 9.7 1h1.8c.5.2 2.4.4 5.7.8M666.5 102.3h1.2l.7.2h.4a340 340 0 0 1 3.2.5l1 .1a154.3 154.3 0 0 0 11.5 1.1 60.5 60.5 0 0 0 5 .6M689.9 104.9l3.8.5M693.8 105.4l.4.1m0 0s0 0 0 0h-.4.4Zm0 0s0 0 0 0 0 0 0 0M619.3 110.5h2.7a215.3 215.3 0 0 1 9.4.7l4.4.8 6.2 1.3a40 40 0 0 0 10.5 1.2 773 773 0 0 1 25.8 2.2l3 .3 2.8.5a138 138 0 0 0 13 1.7 53 53 0 0 0 4.1 0l1.5.2a175 175 0 0 0 5.3.7M607.8 121l7.4.8a1658.5 1658.5 0 0 1 24.1 2.6 133.9 133.9 0 0 1 6.5.8 518.7 518.7 0 0 0 13.8 1 214.6 214.6 0 0 0 5.3.2 120.8 120.8 0 0 1 8.6 1.3 284.8 284.8 0 0 0 5.3.5h2l4.7.5a518.9 518.9 0 0 1 8.8 1.1 60.4 60.4 0 0 0 5.7 1.2 592 592 0 0 0 7 1.4 49.7 49.7 0 0 0 6.9.4h1.7a117 117 0 0 1 4.7 0M595 132.6a114 114 0 0 0 .2.1l2.6.4a603.4 603.4 0 0 1 9 1.4l2.9.2a75 75 0 0 1 7.4.7 457.7 457.7 0 0 1 10 1.3 88 88 0 0 0 9.7.8 118.4 118.4 0 0 0 7.4.6 203.3 203.3 0 0 1 14 1.5 154.6 154.6 0 0 0 14.9 1 109.8 109.8 0 0 1 12 1.2c.9 0 1.8.2 2.6.3a124.1 124.1 0 0 0 10.4.9 208.4 208.4 0 0 0 12.7.5A43.6 43.6 0 0 1 721 145a31.4 31.4 0 0 0 2.7.4 32.6 32.6 0 0 1 5.5.9 39 39 0 0 0 1.4.3M581.3 145.8s0 0 0 0l.3.1 1.7.4a362.9 362.9 0 0 0 8 .7 79.2 79.2 0 0 1 5.7.4 187 187 0 0 1 8.2.5 349.7 349.7 0 0 0 21.6 1l2.6.2a81.1 81.1 0 0 1 10.6 1.1 72.3 72.3 0 0 1 8.9 1.7l2.3.3a116 116 0 0 1 10.7 1.6 69.7 69.7 0 0 0 13.3 1.1 64.5 64.5 0 0 0 5 .3 101.9 101.9 0 0 1 8.1.7 67.3 67.3 0 0 0 8.5.5 150.2 150.2 0 0 1 6.6.4 352.3 352.3 0 0 0 12.9.5 68.3 68.3 0 0 1 11 1.3l2.4.5a314.3 314.3 0 0 1 6.9 1.1 770.5 770.5 0 0 1 5.4.5h1.6l-.2.1M567.7 157.7s0 0 0 0v.2l.6.3 1.1.3a17 17 0 0 0 2.9.2 267.3 267.3 0 0 1 14 .8l3.5.1a261.2 261.2 0 0 0 12.1.4 196.6 196.6 0 0 0 6 .3 137 137 0 0 1 9.1 1 109.6 109.6 0 0 0 10 .7l7 .7 4 .5c.9 0 1.6.2 2.2.3a89.5 89.5 0 0 0 7.6 1 749.6 749.6 0 0 0 8.3 1h4a101 101 0 0 1 13.8 1.2 216.9 216.9 0 0 0 19.6 2.1 138.6 138.6 0 0 1 8.6 1l2.5.2a41 41 0 0 0 4.2.4 548 548 0 0 0 13 1.2 125.3 125.3 0 0 1 9 1.3 306.1 306.1 0 0 1 8.8 1 65.8 65.8 0 0 1 5.8.7h.8a34.5 34.5 0 0 1 9.2.6h.4a7.8 7.8 0 0 0 .9 0l.2.1h.1l.2.1s0 0 0 0M553.2 169h.9a92.7 92.7 0 0 0 2.7 0h4.5a269 269 0 0 1 21.1 1.4 138.2 138.2 0 0 0 9 .5 569.7 569.7 0 0 1 17.3 1.4 839 839 0 0 0 17 1 159.6 159.6 0 0 1 11.4 1.1 1791.4 1791.4 0 0 0 10.6 1.1 511.9 511.9 0 0 1 9 1.5 308.6 308.6 0 0 1 6.7.8 172.8 172.8 0 0 0 13.6.7 121 121 0 0 1 6.7.2 99.5 99.5 0 0 1 13.6 1.1 106.9 106.9 0 0 0 9.7 1 66.2 66.2 0 0 1 9 1.3 82 82 0 0 0 9.5 1.3 198 198 0 0 0 5.1 0 119.8 119.8 0 0 1 7 1.2 62.3 62.3 0 0 0 5 .5 99.2 99.2 0 0 0 8.7.9 46.4 46.4 0 0 1 7 1 87 87 0 0 1 4.9.6 15.4 15.4 0 0 0 1.7 0h.3a5.3 5.3 0 0 1 .5 0h.3s.1 0 0 0c0 0 0 0 0 0h.7a22.4 22.4 0 0 0 1.6.1M646.8 86.4h-.4a1.2 1.2 0 0 0 .1 0h1.2a23 23 0 0 1 2.7.2 39.3 39.3 0 0 1 5.7.7 53 53 0 0 0 6 .7 29.4 29.4 0 0 1 3.5.7 69.4 69.4 0 0 1 5 1 1941.9 1941.9 0 0 1 6.1.8M677.1 90.6h.7a21.3 21.3 0 0 1 3.3.7 17.1 17.1 0 0 1 .4 0c0 .1.3.1.8 0M653.3 79s0 0 0 0l1 .4c.8.3 1.8.5 3 .6a208.3 208.3 0 0 1 19.7 3" stroke="#171612" stroke-width="1.1" stroke-linecap="round" stroke-linejoin="round"/><path d="M677.5 81.8a1.3 1.3 0 1 0 0 2.6 1.3 1.3 0 0 0 0-2.6Z" fill="#171612" stroke="#171612" stroke-width="1.1"/><path d="m468.4 149.6.2-.2 2.3-.6a38.8 38.8 0 0 1 9.6-1 86.3 86.3 0 0 1 10.2.7 8 8 0 0 1 1.4.5l-1.4-.3M469.1 152.1l.1-.1c0-.1 0-.1 0 0l.3-.1 1.5-.3a104.5 104.5 0 0 1 12.4-.2 104 104 0 0 0 8.5.4l-.1-.2M468.6 54.8h.1l1.4-.4 2.4-.3 1.8-.2h3.9a117.6 117.6 0 0 1 12 .6M467.9 53.4h-.2s0 0 0 0l.3.2h.3" stroke="#171612" stroke-width="1.1" stroke-linecap="round" stroke-linejoin="round"/><path d="M469 52.1a1.3 1.3 0 1 0 0 2.6 1.3 1.3 0 0 0 0-2.6Z" fill="#171612" stroke="#171612" stroke-width="1.1"/><path d="m469 53.4 2.6-.3a278.7 278.7 0 0 0 7.2-.3 131.9 131.9 0 0 1 12.8 1.2h-.4M499 27h-.2a126.4 126.4 0 0 0-7.6 12l.2-.4.2-.3M463.7 27.5h-.2l-.1-.1h.2L465 29a124.5 124.5 0 0 1 2.9 4.6l.6 1.4 1.6 5.7.4-1.3M475.4 19.7s0 0 0 0 0 0 0 0 0 0 0 0 0 0 0 0h.2l.2-.1s0 0 0 0h.2a3.6 3.6 0 0 1 .6-.3l.5-.3 1.1-.3a47.2 47.2 0 0 0 4.2-.6h1.6l.7.1 2.9.9v-.3l-.2-.2M478 31.7s0 0 0 0v-.4s0 0 0 0v-.9a10.3 10.3 0 0 1 .8-2.7 10.6 10.6 0 0 1 .2-.5 15.5 15.5 0 0 1 1-.8l.4-.2a2 2 0 0 1 .3 0 10.9 10.9 0 0 1 1.2-.1M482.2 26.1a60.5 60.5 0 0 0 1.6.9c.1 0 .2 0 .3.2l.2.4a4.9 4.9 0 0 0 0 .4v.6c0 .3 0 .6-.2 1a19.7 19.7 0 0 1-.6 1.9v.2" stroke="#171612" stroke-width="1.1" stroke-linecap="round" stroke-linejoin="round"/></g><defs><clipPath id="a"><path fill="#fff" d="M1659.5 809.6H0V0h1659.5z"/></clipPath></defs></svg>
