<svg xmlns="http://www.w3.org/2000/svg" width="260" height="40" fill="none"><path fill="#000" d="M256.338 15.396c.329-.329.856-.803 1.172-1.027.421-.303.737-.421 1.093-.421s.619.105.909.368c.276.237.421.527.474.883.039.29.013.645-.053.79-.079.145-.369.382-.645.514-.29.144-.922.645-1.409 1.119-.501.474-1.304 1.343-1.805 1.923-.487.58-1.527 1.883-2.304 2.897-1.317 1.725-1.409 1.87-1.33 2.305.039.25.342 1 .645 1.646.316.658.737 1.448.935 1.778.277.46.395.553.514.434.079-.092.368-.171.645-.171.356 0 .593.092.83.33.184.184.368.46.408.631.039.158-.013.474-.119.685-.105.224-.408.5-.671.632-.264.119-.619.224-.804.224-.184 0-.526-.079-.763-.171-.224-.092-.685-.408-1.001-.698-.33-.277-.856-.922-1.186-1.436-.342-.5-.698-1.119-.803-1.356-.105-.237-.237-.434-.303-.421-.052 0-.75 1.106-1.567 2.476-.803 1.356-1.857 3.2-2.318 4.108-.816 1.58-.856 1.673-.764 2.305.079.54.053.711-.144.961-.132.172-.435.33-.698.37-.33.052-.619-.014-1.041-.238-.342-.184-.671-.487-.816-.764a2.199 2.199 0 0 1-.251-.922c0-.25.198-.869.435-1.382.25-.514.856-1.633 1.356-2.503.501-.869 1.673-2.739 2.608-4.148.922-1.41 1.778-2.726 1.87-2.924.171-.342.145-.513-.329-1.975-.29-.895-.619-1.975-.724-2.41-.119-.435-.211-1.053-.211-1.383 0-.408.066-.658.224-.803.131-.119.368-.25.526-.303.172-.04.527-.026.791.053.276.066.632.25.79.421.237.237.355.645.566 1.95.145.908.29 1.659.329 1.685.04.013.698-.817 1.462-1.844.777-1.04 1.738-2.265 2.147-2.726a33.198 33.198 0 0 1 1.33-1.462ZM177.94.001c.027-.013.237.08.461.185.237.105.567.394.725.631.25.356.276.514.197 1.08-.053.37-.197.804-.329.989-.119.184-.316.447-.408.592-.106.144-.316.592-.764 1.711l1.897-.091c1.027-.053 3.357-.25 5.174-.448 2.595-.29 3.965-.369 6.453-.369 3.029-.013 3.188 0 3.714.29.316.158.686.448.83.659.158.197.277.513.264.724 0 .198-.119.473-.264.618-.144.145-.303.264-.369.264-.054 0-.514-.092-1.013-.197-.514-.106-1.699-.224-2.634-.277-.961-.052-2.673-.013-3.885.066-1.198.092-2.951.25-3.886.355-.948.106-2.844.343-4.214.528-2.145.29-2.541.368-2.778.618-.184.184-.777 1.817-1.673 4.636-.777 2.396-1.554 4.912-1.725 5.597-.185.685-.54 2.41-.79 3.819-.264 1.409-.738 3.872-1.054 5.465a321.29 321.29 0 0 1-1.264 5.926c-.382 1.66-.829 3.595-1.001 4.28-.21.79-.434 1.357-.619 1.541-.158.172-.382.33-.487.356-.105.026-.395-.053-.632-.171-.276-.132-.54-.408-.698-.737-.132-.29-.25-.725-.25-.949 0-.237.157-1.462.342-2.7.184-1.25.566-3.437.856-4.846.29-1.41.764-3.45 1.04-4.543.277-1.08.87-3.214 1.291-4.742.435-1.514.869-3.265.948-3.884.106-.672.145-1.766.106-2.7-.053-1.225-.145-1.752-.382-2.37-.171-.435-.461-.962-.646-1.173a2.926 2.926 0 0 0-.79-.605c-.25-.132-.816-.303-1.251-.396a6.2 6.2 0 0 0-1.646-.079c-.474.04-1.567.251-2.437.475-.869.21-1.817.395-2.107.395a1.373 1.373 0 0 1-.855-.25c-.185-.132-.435-.435-.567-.659-.211-.395-.211-.422.039-.738.145-.184.488-.434.751-.58.277-.13.909-.367 1.423-.525.501-.159 3.437-.725 6.519-1.278 3.305-.58 5.636-1.04 5.689-1.146.053-.082.382-.99.711-2.002.342-1.014.764-2.12.948-2.462.198-.343.488-.672.672-.737.184-.08.354-.146.368-.146Zm33.82 12.656c.302-.25.473-.303.855-.237.25.04.593.171.751.276.171.106.356.435.435.725.118.46.066.711-.33 1.95-.263.776-.869 3.041-1.37 5.03-.5 1.988-.947 3.885-1 4.214-.065.408-.052.553.039.461.079-.066.369-.659.659-1.317.289-.646.83-1.805 1.212-2.569.381-.763.895-1.71 1.145-2.106a9.95 9.95 0 0 1 1.015-1.291c.289-.316.698-.658.895-.764.211-.105.632-.184.961-.184.487 0 .685.079 1.067.434.25.224.567.686.685 1.015.184.513.197 1.001.118 3.66-.079 2.407-.052 3.041.066 3.017.092-.027.83-.936 1.646-2.016.817-1.08 1.857-2.331 2.305-2.792.461-.46 1.067-.947 1.356-1.079.29-.145.764-.264 1.054-.264.329 0 .698.106.987.29.251.172.606.567.817.896.197.33.566 1.33.83 2.238.25.909.579 1.791.711 1.976.197.276.369.33.948.369.566.026.883-.054 1.567-.383.475-.224 1.238-.684 1.712-1.014a24.367 24.367 0 0 0 1.909-1.593c.949-.87 1.094-.961 1.45-.882.21.04.553.25.751.474.25.263.368.54.368.83 0 .355-.145.566-.896 1.277-.487.474-1.422 1.225-2.067 1.66-.658.447-1.62 1.027-2.147 1.29-.513.263-1.29.566-1.711.671-.606.171-.896.185-1.541.066-.435-.079-.975-.25-1.186-.381-.224-.132-.567-.448-.777-.685a6.433 6.433 0 0 1-.685-1.067 14.164 14.164 0 0 1-.658-1.778c-.184-.645-.395-1.264-.461-1.383-.066-.131-.158-.237-.224-.237-.052 0-.25.158-.434.356-.185.21-1.08 1.343-1.976 2.542-.895 1.198-1.83 2.396-2.094 2.686a4.06 4.06 0 0 1-.988.764c-.382.197-.711.25-1.184.21-.382-.026-.831-.17-1.094-.342a2.792 2.792 0 0 1-.658-.711c-.198-.382-.224-.817-.185-6.756l-.315.395c-.185.224-.673 1.106-1.094 1.975-.435.87-1.264 2.792-1.857 4.28-.605 1.489-1.238 3.017-1.435 3.412-.185.395-.488.829-.672.96-.219.167-.548.25-.987.25-.461 0-.791-.091-1.12-.302a3.485 3.485 0 0 1-.764-.764c-.303-.434-.315-.527-.157-3.424l-.672.567c-.369.303-.975.777-1.344 1.053-.382.29-1.04.698-1.475.909a4.526 4.526 0 0 1-1.58.474 3.968 3.968 0 0 1-1.449-.145 3.407 3.407 0 0 1-1.159-.711 4.567 4.567 0 0 1-.75-.961 9.734 9.734 0 0 1-.396-.988c-.092-.29-.197-1.16-.329-3.359l-2.304 2.516c-1.265 1.383-2.569 2.713-2.898 2.95-.329.237-.776.513-.987.632-.224.105-.579.21-.79.223a7.471 7.471 0 0 1-.764.014c-.197-.013-.553-.197-.83-.434a2.244 2.244 0 0 1-.645-1.093c-.106-.408-.145-.975-.013-2.371l-.593.448c-.316.237-1.198.856-1.962 1.357-.764.513-1.976 1.21-2.7 1.553-.724.343-1.699.725-2.173.857a4.78 4.78 0 0 1-1.646.17c-.435-.039-.988-.171-1.225-.29a6.285 6.285 0 0 1-.895-.631c-.264-.237-.593-.659-.725-.922a4.869 4.869 0 0 1-.382-1.12c-.092-.434-.105-.935-.013-1.554.066-.5.29-1.422.474-2.041.198-.619.645-1.712 1.001-2.437a20.316 20.316 0 0 1 1.476-2.436c.46-.619 1.184-1.395 1.619-1.751.421-.342 1.093-.738 1.462-.883.382-.145.922-.263 1.185-.263.277 0 .711.105.961.237.29.145.579.461.764.83.263.474.303.71.237 1.369-.039.553-.21 1.106-.579 1.844-.408.803-.83 1.37-1.817 2.424-.725.75-1.976 1.883-4.293 3.634l.091.593c.053.33.159.672.238.764.092.105.448.171.843.158.421 0 1.066-.132 1.58-.343.5-.184 1.225-.513 1.62-.737a59.974 59.974 0 0 0 1.843-1.16 54.935 54.935 0 0 0 2.437-1.777 81.546 81.546 0 0 0 2.106-1.713c.488-.421 1.015-1.066 1.371-1.659.329-.54.895-1.383 1.263-1.896.369-.5 1.094-1.303 1.608-1.778.5-.474 1.303-1.054 1.764-1.29.672-.343 1.001-.421 1.633-.421.645 0 .896.065 1.409.394.448.277.724.593.961 1.054.185.368.422 1.053.54 1.553.119.488.33 1.028.461 1.212.211.264.263.54.25 1.318 0 .54-.091 1.58-.21 2.305-.145.855-.184 1.659-.132 2.304.04.54.131 1.21.21 1.487.119.435.172.488.554.488.237 0 .751-.158 1.146-.368.381-.198 1.158-.725 1.712-1.16a24.336 24.336 0 0 0 1.922-1.778c.514-.54 1.173-1.264 1.462-1.633.448-.553.58-.87.83-1.975.158-.725.579-2.476.935-3.885.355-1.41.751-2.832.883-3.148.131-.316.408-.723.632-.908Zm-13.368 5.28c-.105-.012-.5.172-.855.435-.369.25-.975.765-1.357 1.147a11.926 11.926 0 0 0-1.33 1.606c-.355.5-.843 1.343-1.093 1.844-.264.5-.685 1.514-.949 2.238-.276.724-.461 1.37-.434 1.45.027.078.712-.554 1.528-1.384a79.777 79.777 0 0 0 3.16-3.463c.909-1.067 1.712-2.08 1.779-2.239.065-.184.039-.527-.079-.948-.106-.369-.264-.672-.37-.686Zm-15.645 2.477c-.053 0-.224.171-.395.395-.158.21-.25.422-.211.474.04.066.225-.066.396-.29.171-.223.315-.434.315-.5 0-.052-.039-.092-.105-.079Zm-8.494-12.26c-.04-.04-.593-.001-1.225.091-.645.092-1.369.198-1.606.237l-.422.066c1.33 1.422 1.831 2.095 1.989 2.397.211.421.303.513.382.368.053-.106.29-.856.514-1.645.236-.79.394-1.474.368-1.515ZM149.692.778c.053 0 .303.08.526.171.237.106.554.356.686.567.132.21.249.592.236.842 0 .25-.197 1.238-.421 2.173-.223.948-.513 1.817-.631 1.95-.119.131-.33.236-.461.223-.158 0-.304.224-.501.764-.145.408-.54 1.607-.856 2.66a113.854 113.854 0 0 0-.645 2.107c-.053.172.316.198 5.728.198l.356.369c.289.29.369.487.369.96 0 .448-.066.647-.264.792-.211.158-.606.17-2.041.104-1.093-.053-2.331-.025-3.226.067-.804.092-1.502.197-1.555.25-.053.055-.395 1.28-.75 2.726-.369 1.449-.922 3.937-1.251 5.53-.329 1.594-.804 4.11-1.054 5.598-.25 1.488-.605 3.911-.79 5.4-.184 1.488-.329 2.857-.329 3.068 0 .197.118.514.263.725.158.197.277.553.263.79 0 .29-.119.526-.369.75-.197.184-.539.37-.75.409-.224.04-.54.04-.724 0-.185-.04-.514-.264-.725-.488-.382-.381-.395-.435-.435-1.87-.026-.816.027-2.067.106-2.792.079-.724.303-2.2.475-3.293.171-1.08.592-3.397.921-5.135.33-1.739.566-3.188.527-3.227-.053-.04-.607.132-1.238.382a21.69 21.69 0 0 0-2.173.988c-.566.29-1.264.75-1.554 1-.461.408-.567.607-.856 1.713-.185.685-.527 1.673-.777 2.173-.25.514-.724 1.343-1.08 1.87a26.151 26.151 0 0 1-1.356 1.83 14.687 14.687 0 0 1-1.647 1.62c-.513.408-1.224.895-1.58 1.067-.514.263-.856.329-1.62.329-.935 0-.987-.014-1.396-.461-.263-.277-.474-.672-.527-.987-.066-.356-.039-.764.106-1.252.105-.395.421-1.106.698-1.554.276-.461.974-1.383 1.554-2.041a86.32 86.32 0 0 1 2.858-3.081c1.264-1.304 1.804-1.95 1.765-2.108-.04-.131-.29-.395-.567-.593-.276-.197-1.304-.737-2.278-1.211-1.014-.488-2.028-1.08-2.37-1.37-.58-.513-.62-.526-1.318-.46-.395.039-1.106 0-1.58-.092-.474-.08-1.238-.33-1.712-.554-.474-.21-1.159-.592-1.514-.855-.527-.369-.712-.436-.922-.33-.145.065-.633.737-1.08 1.488a39.661 39.661 0 0 0-1.594 3.015c-.435.91-1.304 2.859-1.923 4.347-.685 1.62-1.251 2.792-1.435 2.937-.159.131-.487.236-.724.223-.263 0-.54-.118-.751-.329a2.077 2.077 0 0 1-.461-.856c-.092-.382-.078-.975.066-2.133.119-.895.237-1.817.263-2.041.04-.237.027-.434-.039-.435-.053 0-.514.329-1.015.724a44.876 44.876 0 0 1-2.502 1.805c-.869.579-2.173 1.343-2.897 1.685-.724.343-1.699.724-2.173.856a4.778 4.778 0 0 1-1.645.171c-.435-.039-.989-.171-1.226-.29a6.301 6.301 0 0 1-.895-.631c-.264-.237-.592-.659-.724-.922a4.866 4.866 0 0 1-.382-1.12c-.092-.434-.106-.935-.014-1.554.066-.5.291-1.422.475-2.041a21.76 21.76 0 0 1 1.001-2.437 20.302 20.302 0 0 1 1.475-2.436c.461-.62 1.185-1.396 1.62-1.751.421-.342 1.092-.738 1.461-.883.382-.145.922-.263 1.185-.263.277 0 .712.105.962.237.29.145.579.461.764.83.263.474.303.71.237 1.369-.039.553-.211 1.106-.58 1.844-.408.803-.83 1.37-1.817 2.424-.725.75-1.976 1.883-4.293 3.634l.091.593c.053.33.159.672.238.764.092.105.448.171.843.158.421 0 1.066-.132 1.58-.343.5-.184 1.225-.513 1.62-.737.395-.237 1.225-.751 1.843-1.16a55.002 55.002 0 0 0 2.437-1.778c.724-.566 1.725-1.382 2.212-1.83.606-.553.909-.921.962-1.198.039-.21.487-2.108 1.001-4.215.5-2.094.975-3.937 1.054-4.082.079-.145.249-.395.394-.553.184-.223.409-.303.777-.303.422 0 .58.08.909.46.289.343.395.594.395.989 0 .29-.184.988-.408 1.554-.224.553-.645 1.989-.922 3.187-.29 1.198-.514 2.265-.487 2.37.026.105.329-.303.672-.922.342-.619.894-1.462 1.211-1.87.329-.421.79-.882 1.014-1.027.25-.145.672-.264.961-.264.29 0 .738.106.988.237.251.12.817.514 1.251.87.435.355 1.08.79 1.449.962.421.197.909.302 1.343.302.382 0 .842-.053 1.027-.131.21-.093.488-.448.791-1.014.25-.5.763-1.252 1.158-1.687.382-.434.909-.92 1.159-1.079.25-.17.658-.303.935-.304.382 0 .592.093.895.396.29.29.396.514.396.856 0 .395-.159.62-1.119 1.646-.79.843-1.12 1.277-1.121 1.515 0 .184-.065.447-.13.592-.093.185-.079.303.026.382.093.066.791.383 1.554.698.764.33 1.725.803 2.133 1.067.422.263 1.027.725 1.949 1.54l1.146-.657c.645-.356 1.633-.857 2.212-1.094.58-.25 1.383-.54 1.778-.658a26.983 26.983 0 0 1 1.475-.343c.619-.119.777-.198.83-.435.04-.172.303-1.278.579-2.475a58.66 58.66 0 0 0 .5-2.212c-.013-.027-.618.092-1.343.25a38.05 38.05 0 0 0-3.068.855c-1.593.527-1.765.567-2.107.396a1.693 1.693 0 0 1-.567-.488 3.284 3.284 0 0 1-.315-.645 1.414 1.414 0 0 1-.014-.62c.053-.223.291-.38.83-.578a58.417 58.417 0 0 1 2.08-.646 59.27 59.27 0 0 1 3.096-.723c.974-.185 1.856-.383 1.948-.436.092-.053.436-1.066.765-2.264.329-1.199.921-3.148 1.316-4.346.395-1.199 1.015-2.78 1.37-3.517.369-.764.817-1.475 1.014-1.62.184-.145.395-.263.461-.263ZM83.16.541c1.343-.013 3.319.04 4.412.105 1.08.08 2.686.225 3.556.343.869.106 2.054.29 2.633.395.58.118 1.647.355 2.371.526a30.23 30.23 0 0 1 2.7.857c.764.29 1.765.75 2.239 1.027.474.277 1.172.803 1.554 1.145.421.382.856.95 1.053 1.37.277.553.356.922.356 1.58 0 .712-.08 1.014-.448 1.778-.343.685-.751 1.225-1.646 2.107a22.223 22.223 0 0 1-2.41 2.041c-.672.475-2.029 1.344-3.03 1.95-1 .592-3.094 1.738-4.648 2.528-1.554.777-3.924 1.924-5.267 2.53-1.344.618-4.004 1.79-5.927 2.62-1.922.829-3.66 1.619-3.885 1.764a1.459 1.459 0 0 0-.527.751c-.08.277-.105.514-.066.54.04.026 1.845-.027 4.017-.12 2.831-.118 4.86-.13 7.138-.038 1.764.066 4.017.21 5.005.329 1.04.118 2.132.33 2.54.487.396.158.923.461 1.173.672.25.224.553.645.685.935.132.29.25.659.25.83 0 .158-.119.526-.264.816-.145.29-.46.672-.697.843-.224.184-.803.5-1.277.71-.474.225-1.752.7-2.832 1.068-1.093.356-2.832.896-3.885 1.172-1.054.29-2.924.737-4.149.988a74.564 74.564 0 0 1-4.082.737 65.095 65.095 0 0 1-3.95.422c-1.542.105-2.517.105-3.623 0-.83-.08-1.896-.251-2.37-.396-.474-.145-1.067-.394-1.317-.565a3.508 3.508 0 0 1-.764-.765c-.237-.355-.289-.566-.236-.922.04-.263.197-.565.368-.697.171-.132.5-.238.724-.225.316 0 .593.145.988.514.316.29.724.58.922.66.21.078.75.183 1.224.25.474.052.856.065.857.025 0-.039.092-1.014.197-2.172.105-1.16.198-2.266.198-2.832h-1.225c-.659 0-1.594-.065-2.068-.158-.605-.105-.948-.25-1.198-.487-.197-.184-.408-.593-.5-.895-.079-.343-.105-.686-.026-.857.052-.171.421-.514.816-.777.395-.264 1.449-.856 2.357-1.304.909-.46 1.856-.96 2.107-1.132.25-.17.592-.527.737-.803.158-.277.5-1.146.751-1.95.264-.79.856-2.726 1.33-4.28a105.8 105.8 0 0 1 1.568-4.807c.382-1.08.987-2.62 1.33-3.423.355-.79.947-2.055 1.343-2.792.526-1 .816-1.41 1.106-1.554.21-.105.553-.198.75-.198.212 0 .528.145.726.33.21.184.408.486.46.697.04.197.013.62-.079.948-.092.33-.342 1.278-.566 2.108-.277.987-.527 1.62-.725 1.817-.158.158-.447.29-.632.29-.302 0-.382.145-1 1.686-.382.921-1.027 2.712-1.449 3.976a80.582 80.582 0 0 0-1.29 4.347c-.29 1.115-.513 2.047-.502 2.08.013.013 1.002-.342 2.2-.803a131.61 131.61 0 0 0 4.478-1.87 127.225 127.225 0 0 0 9.35-4.61c1.119-.631 2.634-1.527 3.358-2.001a45.062 45.062 0 0 0 2.37-1.686c.58-.447 1.318-1.106 1.634-1.462.303-.355.685-.87.816-1.133.132-.276.25-.644.25-.829 0-.184-.078-.527-.171-.75-.105-.238-.421-.646-.698-.896-.276-.263-.843-.632-1.238-.816a14.627 14.627 0 0 0-1.58-.62c-.474-.158-1.54-.421-2.37-.592-.83-.185-2.253-.408-3.161-.527a82.591 82.591 0 0 0-3.49-.343 83.324 83.324 0 0 0-4.412-.131c-1.409 0-3.398.066-4.412.131-1.014.08-2.791.251-3.95.396a67.347 67.347 0 0 0-4.017.658c-1.053.21-2.62.593-3.49.843-.869.25-2.146.684-2.831.96-.685.277-1.726.765-2.292 1.095-.58.329-1.515 1.04-2.081 1.58-.737.684-1.172 1.225-1.436 1.778-.289.592-.381.974-.381 1.514 0 .487.092.87.263 1.159.145.224.567.58.936.79.382.197.882.514 1.119.725.382.302.447.434.447.948 0 .487-.065.632-.368.855-.198.158-.488.277-.66.264-.157 0-.539-.132-.855-.29-.302-.158-.855-.579-1.224-.947-.369-.37-.83-.923-1.015-1.226-.197-.316-.474-.935-.632-1.383-.21-.632-.263-1.067-.223-1.817.04-.816.132-1.159.566-2.041.369-.764.764-1.317 1.436-1.988.513-.514 1.461-1.291 2.12-1.712.645-.422 1.803-1.04 2.567-1.383.764-.343 2.12-.856 3.03-1.146a44.44 44.44 0 0 1 3.16-.87c.83-.184 2.437-.474 3.556-.658a64.46 64.46 0 0 1 3.885-.461C78.709.712 79.802.62 80.132.606c.33-.026 1.685-.052 3.028-.065Zm1.185 28.09c-2.713-.026-5.412 0-5.992.066-.58.066-1.369.185-1.75.264-.37.066-.765.21-.857.303-.092.105-.224.948-.33 2.014-.091 1-.197 2.053-.223 2.318l-.066.5c1.58-.118 2.87-.263 3.884-.407a87.061 87.061 0 0 0 3.556-.593 99.403 99.403 0 0 0 3.754-.843 62.499 62.499 0 0 0 3.16-.87c.619-.184 1.712-.579 2.437-.868.724-.29 1.54-.646 1.804-.778.277-.131.474-.29.448-.355-.028-.053-.488-.17-1.014-.263a63.53 63.53 0 0 0-2.424-.304c-.804-.065-3.674-.157-6.387-.183Zm21.23-8.217c-.053 0-.224.17-.396.395-.158.21-.25.421-.211.474.04.066.225-.066.396-.29.171-.223.315-.433.315-.5 0-.052-.038-.092-.104-.079ZM17.273.001c.027-.013.238.08.461.185.237.105.567.394.725.631.25.356.276.514.197 1.08-.052.37-.197.804-.329.989-.118.184-.316.447-.408.592-.105.144-.316.58-.737 1.646h1.145c.645 0 2.002-.093 4.912-.395l.422-.461c.237-.264.593-.5.79-.527.21-.04.5 0 .658.08.172.078.422.263.567.395.25.237.37.25 1.975.104.949-.079 2.726-.118 3.95-.091 2.015.04 2.292.066 2.793.342.316.158.685.448.83.659.158.197.277.513.263.724 0 .198-.119.473-.263.618-.145.145-.303.264-.356.264-.066 0-.554-.105-1.094-.224-.763-.17-1.66-.223-3.884-.223-1.594 0-3.16.038-4.082.183l-.225.962c-.132.514-.355 1.106-.5 1.317-.158.223-.382.356-.593.356-.302 0-.356.105-.672 1.158-.184.632-.67 2.28-1.066 3.649a245.15 245.15 0 0 0-1.633 6.123c-.513 1.986-.908 3.697-.883 3.793.027.092.422-.382.896-1.04.474-.672 1.159-1.515 1.514-1.87.37-.37.922-.777 1.252-.922.368-.158.738-.224.988-.171.223.04.539.184.723.315.185.132.435.514.567.83.171.395.29 1.173.369 2.463.066 1.066.197 2.027.303 2.238.092.198.277.396.395.461.119.053.448.093.738.093s.987-.145 1.553-.329c.553-.171 1.488-.606 2.068-.948.579-.343 1.527-1.028 2.107-1.515a21.17 21.17 0 0 0 1.527-1.383c.264-.276.725-.909 1.015-1.422.29-.5.842-1.33 1.237-1.844.395-.5 1.068-1.185 1.502-1.514.422-.33 1.106-.712 1.501-.844.422-.144.935-.223 1.251-.183.29.026.725.184.962.342.276.197.5.5.645.921.145.435.184.817.132 1.278-.053.368-.316 1.132-.606 1.712-.395.816-.817 1.37-1.805 2.424-.724.75-1.975 1.883-4.293 3.634l.093.593c.053.33.158.672.236.764.093.105.449.171.857.158.408 0 1.054-.132 1.567-.343.5-.184 1.224-.513 1.62-.737a61 61 0 0 0 1.843-1.16 55.091 55.091 0 0 0 2.437-1.777 74.537 74.537 0 0 0 2.673-2.225c.751-.659 1.462-1.252 1.58-1.305.145-.079.37-.052.606.067.21.092.461.29.566.434.093.145.171.421.171.632 0 .276-.315.672-1.474 1.844-.817.816-1.989 1.883-2.608 2.37a44.52 44.52 0 0 1-2.7 1.963c-.869.579-2.172 1.343-2.896 1.685-.725.343-1.7.725-2.174.857-.619.158-1.093.21-1.712.144-.566-.053-1.04-.185-1.383-.395a4.796 4.796 0 0 1-.882-.698c-.197-.197-.487-.658-.645-1.027a4.41 4.41 0 0 1-.303-1.344c0-.381-.04-.697-.08-.697-.039 0-.447.25-.92.565-.475.303-1.305.751-1.845.975-.553.237-1.475.488-2.107.58-.856.119-1.33.119-1.975 0-.487-.079-1.106-.303-1.435-.514a3.867 3.867 0 0 1-.962-.882c-.198-.29-.448-.882-.567-1.317a8.557 8.557 0 0 1-.197-1.673c0-.499-.04-.893-.092-.895-.066 0-.29.185-.513.422-.237.237-.725.908-1.107 1.487-.382.58-1.145 2.002-1.712 3.161-.566 1.16-1.225 2.66-1.475 3.345-.29.816-.54 1.33-.764 1.502-.263.197-.474.236-.987.183-.553-.052-.725-.144-1.554-1.079l.08-.988c.052-.54.275-1.87.486-2.963.223-1.08.816-3.635 1.317-5.663.5-2.028 1.422-5.558 2.04-7.836.62-2.278 1.384-4.885 1.7-5.794.316-.908.606-1.75.646-1.87.066-.184.025-.237-.199-.237-.172 0-1.436.158-2.804.343-2.146.29-2.541.368-2.779.618-.184.184-.777 1.817-1.672 4.636-.777 2.396-1.555 4.912-1.726 5.597-.184.685-.54 2.41-.79 3.819-.264 1.409-.738 3.872-1.054 5.465a324.587 324.587 0 0 1-1.264 5.926 374.08 374.08 0 0 1-1 4.28c-.211.79-.435 1.357-.62 1.541-.158.172-.382.33-.487.356-.105.026-.395-.053-.632-.171-.276-.132-.54-.408-.698-.737-.132-.29-.25-.725-.25-.949 0-.237.157-1.462.342-2.7.184-1.25.567-3.437.856-4.846.29-1.41.764-3.45 1.04-4.543.277-1.08.87-3.214 1.291-4.742.435-1.527.87-3.265.949-3.884.105-.672.145-1.766.105-2.7-.053-1.225-.145-1.752-.382-2.37-.171-.435-.461-.962-.645-1.173a2.943 2.943 0 0 0-.79-.605c-.25-.132-.817-.303-1.251-.396a6.205 6.205 0 0 0-1.647-.079c-.474.04-1.567.251-2.436.475-.87.21-1.818.395-2.108.395a1.375 1.375 0 0 1-.855-.25c-.185-.132-.435-.435-.567-.659-.21-.395-.21-.422.04-.738.144-.184.487-.434.75-.58.277-.13.91-.367 1.423-.525.515-.159 3.438-.725 6.519-1.278 3.305-.58 5.637-1.04 5.69-1.146.053-.082.382-.989.71-2.001.342-1.014.764-2.12.948-2.463.198-.343.488-.672.672-.737.184-.08.354-.146.368-.146Zm22.455 20.413c-.053 0-.225.17-.396.395-.158.21-.25.422-.21.474.04.065.224-.066.395-.29.17-.223.316-.433.316-.5 0-.052-.04-.092-.105-.079ZM13.586 8.154c-.04-.04-.593-.001-1.225.091-.645.092-1.369.198-1.606.237l-.422.066c1.33 1.422 1.831 2.095 1.99 2.397.21.421.302.513.381.368.053-.106.29-.856.514-1.645.237-.79.394-1.474.368-1.515Z"/></svg>