<?xml version="1.0" standalone="no"?>
<!DOCTYPE svg PUBLIC "-//W3C//DTD SVG 20010904//EN"
 "http://www.w3.org/TR/2001/REC-SVG-20010904/DTD/svg10.dtd">
<svg version="1.0" xmlns="http://www.w3.org/2000/svg"
 width="700.000000pt" height="700.000000pt" viewBox="0 0 700.000000 700.000000"
 preserveAspectRatio="xMidYMid meet">
<metadata>
Created by potrace 1.14, written by Peter Selinger 2001-2017
</metadata>
<g transform="translate(0.000000,700.000000) scale(0.100000,-0.100000)"
fill="#000000" stroke="none">
<path d="M0 5905 l0 -1095 63 -1 c34 0 85 -3 112 -6 72 -6 131 5 163 32 l28
23 152 -146 c83 -81 160 -163 170 -182 54 -99 73 -124 142 -185 52 -46 111
-85 190 -125 177 -90 253 -179 284 -335 11 -53 16 -79 22 -110 13 -75 27 -128
61 -237 l37 -118 36 -1 c205 -8 205 -8 255 95 35 73 39 89 51 191 3 33 13 73
21 88 27 52 26 196 -2 327 -16 73 -47 154 -103 265 -19 39 -40 80 -46 92 -6
13 -14 23 -18 23 -5 0 -8 5 -8 10 0 6 -12 29 -26 52 -42 67 -47 96 -23 145 12
24 40 58 62 77 42 33 237 120 293 129 453 78 434 75 598 73 104 -1 198 4 275
15 64 9 137 20 163 23 26 4 80 2 120 -4 110 -16 133 -19 190 -25 60 -7 111
-12 182 -21 27 -3 119 -23 205 -44 136 -33 244 -49 370 -55 18 -1 88 14 155
33 128 36 165 39 426 32 102 -3 138 2 327 40 142 28 262 100 304 181 23 46 24
78 5 124 -32 75 -110 119 -226 129 -41 3 -106 8 -145 12 -38 3 -86 7 -105 8
-19 1 -74 -10 -123 -26 -81 -26 -102 -29 -260 -31 -168 -2 -255 3 -482 27 -33
3 -87 8 -120 11 -33 3 -71 7 -85 10 -14 2 -56 7 -95 10 -107 10 -94 8 -343 64
-129 29 -221 79 -267 142 -24 33 -31 51 -23 54 7 2 54 16 103 30 182 54 252
93 307 173 29 42 32 54 32 117 0 56 -6 80 -28 123 -34 67 -109 141 -173 171
l-50 23 29 75 c37 95 47 193 25 245 -21 51 -66 105 -126 153 l-50 39 32 14
c17 7 42 23 55 35 22 20 52 77 52 98 0 5 -682 9 -1585 9 l-1585 0 0 -1095z"/>
<path d="M5559 3926 c-2 -2 -21 -7 -43 -10 -21 -4 -51 -16 -66 -29 -16 -12
-37 -29 -47 -37 -23 -18 -83 -104 -83 -119 0 -6 -4 -11 -8 -11 -12 0 -46 -73
-79 -170 -26 -77 -29 -96 -27 -205 2 -144 32 -325 69 -414 15 -36 51 -113 81
-173 129 -257 109 -429 -60 -515 -45 -23 -62 -27 -146 -26 -142 1 -399 16
-460 28 -14 3 -59 8 -195 21 -27 3 -61 7 -75 9 -14 2 -54 6 -90 10 -36 4 -76
8 -90 10 -14 2 -77 11 -140 20 -144 20 -156 22 -205 29 -55 8 -125 15 -225 21
-47 3 -123 8 -170 11 -150 11 -162 11 -239 -3 -42 -7 -94 -15 -116 -18 -22 -3
-49 -7 -60 -9 -32 -6 -116 -16 -170 -21 -27 -2 -88 -6 -135 -10 -49 -4 -95
-13 -109 -22 -17 -11 -29 -12 -45 -5 -11 5 -57 10 -101 11 -248 8 -232 9 -365
-35 -161 -53 -213 -85 -244 -146 -24 -47 -24 -49 -7 -102 19 -65 41 -84 136
-118 96 -34 136 -36 335 -22 102 7 264 9 595 4 88 -1 221 1 295 4 131 6 139 5
265 -28 127 -33 155 -39 280 -51 33 -3 80 -8 103 -11 27 -3 62 -17 90 -36 44
-30 84 -69 78 -76 -2 -1 -29 -7 -60 -12 -68 -11 -267 -81 -358 -126 -86 -43
-178 -120 -212 -177 -31 -55 -36 -152 -10 -208 23 -48 102 -119 171 -153 32
-17 60 -31 62 -32 2 -2 -8 -16 -21 -33 -19 -22 -25 -42 -27 -87 -1 -33 -4 -82
-5 -110 -3 -49 -2 -52 53 -109 50 -52 67 -62 151 -93 141 -51 170 -58 228 -56
28 0 52 -1 52 -3 0 -2 -12 -26 -26 -53 -21 -39 -26 -64 -27 -123 0 -40 3 -79
7 -85 9 -16 88 -61 118 -68 70 -17 207 -15 302 5 l100 20 50 -47 c28 -25 56
-52 61 -58 7 -8 61 -14 160 -17 118 -4 172 -11 250 -31 l100 -26 898 0 897 0
0 619 0 619 -72 22 -73 21 -66 92 c-66 92 -139 203 -139 212 0 3 -19 35 -41
72 -23 37 -75 133 -117 213 -127 246 -276 492 -354 585 -28 34 -34 41 -64 80
-18 22 -48 69 -68 105 -20 36 -41 72 -46 80 -78 125 -280 526 -280 555 0 9 -8
32 -18 53 -17 33 -19 62 -18 272 2 250 -2 276 -48 312 -22 18 -30 21 -37 14z"/>
</g>
</svg>
